<svg width="49" height="49" viewBox="0 0 49 49" fill="none" xmlns="http://www.w3.org/2000/svg">
<path d="M16.08 17.1662C16.5533 18.7911 16.0054 20.3698 14.8568 20.692C13.7081 21.0145 12.3934 19.9585 11.9201 18.3336C11.4469 16.7087 11.9948 15.13 13.1434 14.8078C14.2924 14.4857 15.6071 15.5413 16.08 17.1662Z" fill="url(#paint0_linear_166_3521)"/>
<path d="M32.9201 17.1662C32.4469 18.7911 32.9948 20.3698 34.1434 20.692C35.292 21.0145 36.6068 19.9585 37.08 18.3336C37.5533 16.7087 37.0054 15.13 35.8568 14.8078C34.7078 14.4857 33.393 15.5413 32.9201 17.1662Z" fill="url(#paint1_linear_166_3521)"/>
<path d="M15.9951 17.4142C16.2235 18.2216 15.8515 19.026 15.1638 19.2116C14.476 19.3968 13.7331 18.8928 13.5048 18.0858C13.2764 17.2785 13.6484 16.4741 14.3361 16.2885C15.0239 16.1028 15.7664 16.6068 15.9951 17.4142Z" fill="url(#paint2_linear_166_3521)"/>
<path d="M33.0048 17.4142C32.7764 18.2216 33.1484 19.026 33.8361 19.2116C34.5239 19.3968 35.2668 18.8928 35.4951 18.0858C35.7235 17.2785 35.3515 16.4741 34.6638 16.2885C33.976 16.1028 33.2335 16.6068 33.0048 17.4142Z" fill="url(#paint3_linear_166_3521)"/>
<path d="M28.625 33.875H20.375L20.75 26.375H28.25L28.625 33.875Z" fill="url(#paint4_linear_166_3521)"/>
<path d="M28.2497 26.375H20.7497L20.6582 28.2058L26.3275 33.875H28.6247L28.2497 26.375Z" fill="url(#paint5_linear_166_3521)"/>
<path d="M24.5 29C19.1375 29 14.75 24.6125 14.75 19.25V13.25C14.75 7.8875 19.1375 3.5 24.5 3.5C29.8625 3.5 34.25 7.8875 34.25 13.25V19.25C34.25 24.6125 29.8625 29 24.5 29Z" fill="url(#paint6_linear_166_3521)"/>
<path d="M29.7084 32.75H19.2916C12.2563 32.75 6.5 38.4875 6.5 45.5V47.75H42.5V45.5C42.5 38.4875 36.7437 32.75 29.7084 32.75Z" fill="#3E9ECD"/>
<path d="M20.8486 17.75H20.651C20.4784 17.7495 20.3131 17.6807 20.1911 17.5586C20.0691 17.4366 20.0004 17.2712 20 17.0986V16.151C20 15.7929 20.2929 15.5 20.6514 15.5H20.849C21.2071 15.5 21.5 15.7929 21.5 16.1514V17.099C21.5 17.4571 21.2071 17.75 20.8486 17.75ZM28.3486 17.75H28.151C27.9784 17.7495 27.8131 17.6807 27.6911 17.5586C27.5691 17.4366 27.5004 17.2712 27.5 17.0986V16.151C27.5 15.7929 27.7929 15.5 28.1514 15.5H28.349C28.7071 15.5 29 15.7929 29 16.1514V17.099C29 17.4571 28.7071 17.75 28.3486 17.75Z" fill="#51251F"/>
<path d="M24.5592 22.25H24.4407C24.1583 22.2492 23.8877 22.1367 23.688 21.937C23.4883 21.7373 23.3758 21.4667 23.375 21.1843V18.0657C23.3758 17.7833 23.4883 17.5127 23.688 17.313C23.8877 17.1133 24.1583 17.0008 24.4407 17H24.5592C24.8417 17.0008 25.1123 17.1133 25.312 17.313C25.5117 17.5127 25.6242 17.7833 25.625 18.0657V21.1843C25.6242 21.4667 25.5117 21.7373 25.312 21.937C25.1123 22.1367 24.8417 22.2492 24.5592 22.25Z" fill="url(#paint7_linear_166_3521)"/>
<path d="M19.626 14.3753C19.5293 14.372 19.4377 14.3314 19.3702 14.2622C19.3027 14.1929 19.2646 14.1003 19.2637 14.0036C19.2628 13.9069 19.2993 13.8135 19.3655 13.7431C19.4318 13.6726 19.5227 13.6304 19.6192 13.6253L21.8692 13.586C22.0822 13.5938 22.2472 13.7476 22.251 13.9542C22.2547 14.1608 22.0897 14.3322 21.8827 14.336L19.6327 14.3753H19.626ZM29.376 14.3753H29.3692L27.1192 14.336C27.07 14.3355 27.0213 14.3254 26.976 14.3061C26.9307 14.2869 26.8896 14.2589 26.8551 14.2237C26.8206 14.1886 26.7933 14.147 26.7749 14.1013C26.7564 14.0557 26.7472 14.0068 26.7476 13.9576C26.7481 13.9083 26.7582 13.8597 26.7775 13.8143C26.7967 13.769 26.8247 13.7279 26.8598 13.6934C26.895 13.6589 26.9366 13.6316 26.9822 13.6132C27.0279 13.5948 27.0767 13.5855 27.126 13.586H27.1327L29.3827 13.6253C29.4822 13.6262 29.5772 13.6666 29.6469 13.7375C29.7166 13.8085 29.7553 13.9042 29.7544 14.0037C29.7535 14.1032 29.7131 14.1982 29.6421 14.2679C29.5712 14.3376 29.4754 14.3762 29.376 14.3753Z" fill="#7A5954"/>
<path d="M23.7607 24.5908C22.8168 24.5908 22.0331 24.53 21.8437 24.5139C21.7446 24.5056 21.6528 24.4583 21.5886 24.3823C21.5244 24.3064 21.493 24.208 21.5013 24.1089C21.5049 24.0596 21.5183 24.0115 21.5407 23.9675C21.5631 23.9235 21.5942 23.8844 21.6319 23.8525C21.6697 23.8206 21.7135 23.7966 21.7607 23.7819C21.8078 23.7672 21.8575 23.7621 21.9067 23.7669C23.5642 23.9064 26.4412 23.897 27.1023 23.2805C27.1751 23.2127 27.2718 23.1765 27.3712 23.1799C27.4707 23.1834 27.5647 23.2262 27.6326 23.2989C27.7004 23.3717 27.7366 23.4684 27.7332 23.5679C27.7297 23.6673 27.6869 23.7613 27.6142 23.8292C26.9429 24.4547 25.1726 24.5908 23.7607 24.5908Z" fill="#F09890"/>
<path d="M25.625 37.625H23.375L22.625 47.75H26.375L25.625 37.625Z" fill="url(#paint8_linear_166_3521)"/>
<path d="M25.25 33.875H23.75C23.75 33.875 22.2455 36.116 22.25 36.125L23.375 37.625H25.625L26.75 36.125C26.7418 36.0965 25.25 33.875 25.25 33.875Z" fill="url(#paint9_linear_166_3521)"/>
<path d="M20.375 30.125L24.5 32.75L20.75 38.375L17 32.75L20.375 30.125Z" fill="#3E9ECD"/>
<path d="M28.625 30.125L24.5 32.75L28.25 38.375L32 32.75L28.625 30.125Z" fill="#3E9ECD"/>
<path d="M12.125 47.75H11.375V43.625C11.375 43.5255 11.4145 43.4302 11.4848 43.3598C11.5552 43.2895 11.6505 43.25 11.75 43.25C11.8495 43.25 11.9448 43.2895 12.0152 43.3598C12.0855 43.4302 12.125 43.5255 12.125 43.625V47.75ZM37.625 47.75H36.875V43.625C36.875 43.5255 36.9145 43.4302 36.9848 43.3598C37.0552 43.2895 37.1505 43.25 37.25 43.25C37.3495 43.25 37.4448 43.2895 37.5152 43.3598C37.5855 43.4302 37.625 43.5255 37.625 43.625V47.75ZM34.25 43.625H29.75C29.6505 43.625 29.5552 43.5855 29.4848 43.5152C29.4145 43.4448 29.375 43.3495 29.375 43.25C29.375 43.1505 29.4145 43.0552 29.4848 42.9848C29.5552 42.9145 29.6505 42.875 29.75 42.875H34.25C34.3495 42.875 34.4448 42.9145 34.5152 42.9848C34.5855 43.0552 34.625 43.1505 34.625 43.25C34.625 43.3495 34.5855 43.4448 34.5152 43.5152C34.4448 43.5855 34.3495 43.625 34.25 43.625Z" fill="#D1D3D4"/>
<path d="M16.25 11.75L14.75 17.375C14.75 17.375 13.625 14.1796 13.625 11L16.25 11.75Z" fill="url(#paint10_linear_166_3521)"/>
<path d="M33.125 12.875L30.5 13.625L30.875 11L26.75 12.875L27.125 11C27.125 11 23.9218 12.875 20.75 12.875C17.8554 12.875 10.25 10.25 10.25 10.25L14 6.5L11.75 5.75C11.75 5.75 17.0311 1.79488 23.375 2C25.1285 2.05663 27.6192 2.26662 29.375 3.125L29 1.25C29 1.25 35.8044 3.875 35.75 11C35.7414 12.1325 35.4005 13.3827 35 14.75L34.25 17.375L33.125 12.875Z" fill="url(#paint11_linear_166_3521)"/>
<defs>
<linearGradient id="paint0_linear_166_3521" x1="11.75" y1="14.75" x2="16.2502" y2="14.75" gradientUnits="userSpaceOnUse">
<stop stop-color="#FCB799"/>
<stop offset="0.5" stop-color="#F4D1C0"/>
<stop offset="0.59" stop-color="#FEC2AB"/>
<stop offset="1" stop-color="#FFB199"/>
</linearGradient>
<linearGradient id="paint1_linear_166_3521" x1="32.75" y1="14.75" x2="37.2502" y2="14.75" gradientUnits="userSpaceOnUse">
<stop stop-color="#FCB799"/>
<stop offset="0.5" stop-color="#F4D1C0"/>
<stop offset="0.59" stop-color="#FEC2AB"/>
<stop offset="1" stop-color="#FFB199"/>
</linearGradient>
<linearGradient id="paint2_linear_166_3521" x1="13.4375" y1="16.25" x2="16.0624" y2="16.25" gradientUnits="userSpaceOnUse">
<stop stop-color="#F7D0BF"/>
<stop offset="1" stop-color="#F1BEAE"/>
</linearGradient>
<linearGradient id="paint3_linear_166_3521" x1="32.9375" y1="16.25" x2="35.5624" y2="16.25" gradientUnits="userSpaceOnUse">
<stop stop-color="#F7D0BF"/>
<stop offset="1" stop-color="#F1BEAE"/>
</linearGradient>
<linearGradient id="paint4_linear_166_3521" x1="20.375" y1="26.375" x2="28.625" y2="26.375" gradientUnits="userSpaceOnUse">
<stop stop-color="#FCB799"/>
<stop offset="0.5" stop-color="#F4D1C0"/>
<stop offset="0.59" stop-color="#FEC2AB"/>
<stop offset="1" stop-color="#FFB199"/>
</linearGradient>
<linearGradient id="paint5_linear_166_3521" x1="22.1263" y1="25.1225" x2="29.7865" y2="32.5456" gradientUnits="userSpaceOnUse">
<stop stop-color="#EEAE9A"/>
<stop offset="0.316" stop-color="#EFB4A0"/>
<stop offset="0.738" stop-color="#F4C3B1"/>
<stop offset="1" stop-color="#F7D0BF"/>
</linearGradient>
<linearGradient id="paint6_linear_166_3521" x1="14.75" y1="3.5" x2="34.25" y2="3.5" gradientUnits="userSpaceOnUse">
<stop stop-color="#FCB799"/>
<stop offset="0.5" stop-color="#F4D1C0"/>
<stop offset="0.59" stop-color="#FEC2AB"/>
<stop offset="1" stop-color="#FFB199"/>
</linearGradient>
<linearGradient id="paint7_linear_166_3521" x1="24.5" y1="17" x2="24.5" y2="22.25" gradientUnits="userSpaceOnUse">
<stop stop-color="#F7D0BF"/>
<stop offset="1" stop-color="#EEAE9A"/>
</linearGradient>
<linearGradient id="paint8_linear_166_3521" x1="22.625" y1="37.625" x2="26.375" y2="37.625" gradientUnits="userSpaceOnUse">
<stop stop-color="#6C6F73"/>
<stop offset="1" stop-color="#56585B"/>
</linearGradient>
<linearGradient id="paint9_linear_166_3521" x1="22.25" y1="33.875" x2="26.75" y2="33.875" gradientUnits="userSpaceOnUse">
<stop stop-color="#6C6F73"/>
<stop offset="1" stop-color="#56585B"/>
</linearGradient>
<linearGradient id="paint10_linear_166_3521" x1="13.625" y1="11" x2="16.25" y2="11" gradientUnits="userSpaceOnUse">
<stop stop-color="#AC766A"/>
<stop offset="1" stop-color="#93634D"/>
</linearGradient>
<linearGradient id="paint11_linear_166_3521" x1="10.25" y1="1.25" x2="35.7503" y2="1.25" gradientUnits="userSpaceOnUse">
<stop stop-color="#AC766A"/>
<stop offset="1" stop-color="#93634D"/>
</linearGradient>
</defs>
</svg>
