<svg width="430" height="377" viewBox="0 0 430 377" fill="none" xmlns="http://www.w3.org/2000/svg">
<g clip-path="url(#clip0_1472_1156)">
<path d="M0 0H430V364.2C430 368.68 430 370.921 429.128 372.632C428.361 374.137 427.137 375.361 425.632 376.128C423.921 377 421.68 377 417.2 377H12.8C8.31957 377 6.07937 377 4.36808 376.128C2.86278 375.361 1.63893 374.137 0.871948 372.632C0 370.921 0 368.68 0 364.2V0Z" fill="white"/>
<rect opacity="0.59" width="430" height="377" fill="url(#paint0_linear_1472_1156)"/>
</g>
<defs>
<linearGradient id="paint0_linear_1472_1156" x1="0" y1="188.5" x2="430" y2="188.5" gradientUnits="userSpaceOnUse">
<stop offset="0.2" stop-color="#0492B0"/>
<stop offset="1" stop-color="#3A7BD5"/>
</linearGradient>
<clipPath id="clip0_1472_1156">
<path d="M0 0H430V364.2C430 368.68 430 370.921 429.128 372.632C428.361 374.137 427.137 375.361 425.632 376.128C423.921 377 421.68 377 417.2 377H12.8C8.31957 377 6.07937 377 4.36808 376.128C2.86278 375.361 1.63893 374.137 0.871948 372.632C0 370.921 0 368.68 0 364.2V0Z" fill="white"/>
</clipPath>
</defs>
</svg>
