<svg width="20" height="20" viewBox="0 0 20 20" fill="none" xmlns="http://www.w3.org/2000/svg">
<path d="M18.8 0H1.20002C0.881762 0 0.576538 0.137422 0.351494 0.382034C0.126451 0.626647 2.29466e-05 0.958413 2.29466e-05 1.30435V18.6957C-0.0013983 18.9444 0.0632296 19.1882 0.186152 19.398C0.309075 19.6078 0.48507 19.7745 0.693022 19.8783C0.851998 19.958 1.02493 19.9995 1.20002 20C1.48179 19.9997 1.75432 19.8907 1.96902 19.6924L1.97502 19.6859L5.18902 16.6239C5.26202 16.5571 5.35459 16.5209 5.45002 16.5217H18.8C19.1183 16.5217 19.4235 16.3843 19.6485 16.1397C19.8736 15.8951 20 15.5633 20 15.2174V1.30435C20 0.958413 19.8736 0.626647 19.6485 0.382034C19.4235 0.137422 19.1183 0 18.8 0ZM19.2 15.2174C19.2 15.3327 19.1579 15.4433 19.0828 15.5248C19.0078 15.6064 18.9061 15.6522 18.8 15.6522H5.45002C5.16463 15.6531 4.88871 15.7635 4.67102 15.9641L1.45502 19.0293C1.39662 19.0819 1.32568 19.1153 1.25048 19.1257C1.17527 19.1361 1.0989 19.123 1.03026 19.0881C0.961618 19.0531 0.903532 18.9976 0.862769 18.9282C0.822006 18.8587 0.800245 18.7781 0.800022 18.6957V1.30435C0.800022 1.18904 0.842165 1.07845 0.917179 0.99691C0.992194 0.915373 1.09394 0.869565 1.20002 0.869565H18.8C18.9061 0.869565 19.0078 0.915373 19.0828 0.99691C19.1579 1.07845 19.2 1.18904 19.2 1.30435V15.2174Z" fill="white"/>
</svg>
