<svg xmlns="http://www.w3.org/2000/svg" width="20" height="21" viewBox="0 0 20 21" fill="none">
  <path d="M11.1966 4.15886C11.1966 3.09192 9.90606 2.55765 9.15218 3.31234L5.55843 6.90609H4.01551C3.10429 6.90609 2.16433 7.43636 1.8912 8.42744C1.70591 9.10262 1.61243 9.79969 1.61329 10.4998C1.61329 11.217 1.70992 11.9118 1.8928 12.5722C2.16513 13.5625 3.10509 14.0936 4.01631 14.0936H5.55763L9.15138 17.6873C9.90606 18.442 11.1966 17.9078 11.1966 16.8408V4.15886ZM15.2568 4.99421C15.3691 4.88205 15.5213 4.81904 15.68 4.81904C15.8387 4.81904 15.991 4.88205 16.1033 4.99421C19.1444 8.03452 19.1444 12.9643 16.1033 16.0055C15.9897 16.1113 15.8396 16.1689 15.6844 16.1661C15.5292 16.1634 15.3812 16.1005 15.2714 15.9908C15.1617 15.881 15.0988 15.733 15.0961 15.5778C15.0934 15.4227 15.151 15.2725 15.2568 15.1589C15.8687 14.5471 16.354 13.8208 16.6852 13.0214C17.0163 12.2219 17.1868 11.3651 17.1868 10.4998C17.1868 9.63455 17.0163 8.77773 16.6852 7.97832C16.354 7.17891 15.8687 6.45255 15.2568 5.84074C15.1446 5.72843 15.0816 5.5762 15.0816 5.41747C15.0816 5.25875 15.1446 5.10652 15.2568 4.99421Z" fill="#115223"/>
  <path d="M13.1392 7.11111C13.1948 7.05545 13.2609 7.0113 13.3336 6.98118C13.4063 6.95105 13.4842 6.93555 13.5629 6.93555C13.6416 6.93555 13.7195 6.95105 13.7922 6.98118C13.8649 7.0113 13.9309 7.05545 13.9865 7.11111C14.4316 7.55607 14.7846 8.08434 15.0255 8.66574C15.2663 9.24715 15.3903 9.8703 15.3903 10.4996C15.3903 11.1289 15.2663 11.7521 15.0255 12.3335C14.7846 12.9149 14.4316 13.4432 13.9865 13.8881C13.8735 13.9972 13.7222 14.0575 13.5652 14.056C13.4081 14.0546 13.2579 13.9915 13.1469 13.8804C13.0359 13.7693 12.973 13.6191 12.9717 13.462C12.9704 13.305 13.0309 13.1537 13.14 13.0408C13.4737 12.7071 13.7384 12.3109 13.919 11.8749C14.0997 11.4389 14.1926 10.9716 14.1926 10.4996C14.1926 10.0277 14.0997 9.56036 13.919 9.12434C13.7384 8.68833 13.4737 8.29215 13.14 7.95844C13.0278 7.84613 12.9648 7.6939 12.9648 7.53518C12.9648 7.37645 13.0278 7.22422 13.14 7.11191L13.1392 7.11111Z" fill="#115223"/>
</svg>