<svg width="430" height="377" viewBox="0 0 430 377" fill="none" xmlns="http://www.w3.org/2000/svg">
<g clip-path="url(#clip0_1472_1412)">
<path d="M0 0H430V364.2C430 368.68 430 370.921 429.128 372.632C428.361 374.137 427.137 375.361 425.632 376.128C423.921 377 421.68 377 417.2 377H12.8C8.31957 377 6.07937 377 4.36808 376.128C2.86278 375.361 1.63893 374.137 0.871948 372.632C0 370.921 0 368.68 0 364.2V0Z" fill="white"/>
<rect opacity="0.59" width="430" height="377" fill="url(#paint0_linear_1472_1412)"/>
<g clip-path="url(#clip1_1472_1412)">
<path d="M-19.5283 16.8958L-0.000228823 -2.61729" stroke="#223D65" stroke-opacity="0.2" stroke-width="2" stroke-linecap="round"/>
<path d="M-12.4272 47.0522L7.10085 27.5392" stroke="#223D65" stroke-opacity="0.2" stroke-width="2" stroke-linecap="round"/>
<path d="M35.5054 38.1826L55.0335 18.6696" stroke="#223D65" stroke-opacity="0.2" stroke-width="2" stroke-linecap="round"/>
<path d="M24.854 94.9478L44.3821 75.4347" stroke="#223D65" stroke-opacity="0.2" stroke-width="2" stroke-linecap="round"/>
<path d="M31.9551 125.104L51.4832 105.591" stroke="#223D65" stroke-opacity="0.2" stroke-width="2" stroke-linecap="round"/>
<path d="M-19.5283 116.235L-0.000228823 96.7218" stroke="#223D65" stroke-opacity="0.2" stroke-width="2" stroke-linecap="round"/>
<path d="M-14.2021 144.617L5.32594 125.104" stroke="#223D65" stroke-opacity="0.2" stroke-width="2" stroke-linecap="round"/>
<path d="M0 173L19.5281 153.487" stroke="#223D65" stroke-opacity="0.2" stroke-width="2" stroke-linecap="round"/>
<path d="M124.27 142.844L143.798 123.33" stroke="#223D65" stroke-opacity="0.2" stroke-width="2" stroke-linecap="round"/>
<path d="M131.371 173L150.899 153.487" stroke="#223D65" stroke-opacity="0.2" stroke-width="2" stroke-linecap="round"/>
<path d="M79.8877 164.13L99.4158 144.617" stroke="#223D65" stroke-opacity="0.2" stroke-width="2" stroke-linecap="round"/>
<path d="M79.8877 116.235L99.4158 96.7218" stroke="#223D65" stroke-opacity="0.2" stroke-width="2" stroke-linecap="round"/>
<path d="M126.045 18.6697L145.573 -0.843368" stroke="#223D65" stroke-opacity="0.2" stroke-width="2" stroke-linecap="round"/>
<path d="M74.5615 9.80005L94.0896 -9.713" stroke="#223D65" stroke-opacity="0.2" stroke-width="2" stroke-linecap="round"/>
<path d="M79.8877 38.1826L99.4158 18.6696" stroke="#223D65" stroke-opacity="0.2" stroke-width="2" stroke-linecap="round"/>
<path d="M94.0898 66.5652L113.618 47.0521" stroke="#223D65" stroke-opacity="0.2" stroke-width="2" stroke-linecap="round"/>
<path d="M173.978 9.80005L193.506 -9.713" stroke="#223D65" stroke-opacity="0.2" stroke-width="2" stroke-linecap="round"/>
<path d="M182.854 36.4087L202.382 16.8956" stroke="#223D65" stroke-opacity="0.2" stroke-width="2" stroke-linecap="round"/>
<path d="M189.955 66.5652L209.483 47.0521" stroke="#223D65" stroke-opacity="0.2" stroke-width="2" stroke-linecap="round"/>
<path d="M138.472 57.6956L158 38.1825" stroke="#223D65" stroke-opacity="0.2" stroke-width="2" stroke-linecap="round"/>
<path d="M143.798 86.0784L163.326 66.5653" stroke="#223D65" stroke-opacity="0.2" stroke-width="2" stroke-linecap="round"/>
<path d="M158 114.461L177.528 94.9479" stroke="#223D65" stroke-opacity="0.2" stroke-width="2" stroke-linecap="round"/>
<path d="M237.888 57.6956L257.416 38.1825" stroke="#223D65" stroke-opacity="0.2" stroke-width="2" stroke-linecap="round"/>
<path d="M227.236 114.461L246.764 94.9479" stroke="#223D65" stroke-opacity="0.2" stroke-width="2" stroke-linecap="round"/>
<path d="M234.337 144.617L253.865 125.104" stroke="#223D65" stroke-opacity="0.2" stroke-width="2" stroke-linecap="round"/>
<path d="M182.854 135.748L202.382 116.235" stroke="#223D65" stroke-opacity="0.2" stroke-width="2" stroke-linecap="round"/>
<path d="M188.18 164.13L207.708 144.617" stroke="#223D65" stroke-opacity="0.2" stroke-width="2" stroke-linecap="round"/>
<path d="M282.27 135.748L301.798 116.235" stroke="#223D65" stroke-opacity="0.2" stroke-width="2" stroke-linecap="round"/>
<path d="M276.944 29.313L296.472 9.79994" stroke="#223D65" stroke-opacity="0.2" stroke-width="2" stroke-linecap="round"/>
<path d="M282.27 57.6956L301.798 38.1825" stroke="#223D65" stroke-opacity="0.2" stroke-width="2" stroke-linecap="round"/>
<path d="M296.472 86.0784L316 66.5653" stroke="#223D65" stroke-opacity="0.2" stroke-width="2" stroke-linecap="round"/>
</g>
<g clip-path="url(#clip2_1472_1412)">
<path d="M-12.4272 210.052L7.10085 190.539" stroke="#223D65" stroke-opacity="0.2" stroke-width="2" stroke-linecap="round"/>
<path d="M35.5054 201.183L55.0335 181.67" stroke="#223D65" stroke-opacity="0.2" stroke-width="2" stroke-linecap="round"/>
<path d="M24.854 257.948L44.3821 238.435" stroke="#223D65" stroke-opacity="0.2" stroke-width="2" stroke-linecap="round"/>
<path d="M31.9551 288.104L51.4832 268.591" stroke="#223D65" stroke-opacity="0.2" stroke-width="2" stroke-linecap="round"/>
<path d="M-19.5283 279.235L-0.000228823 259.722" stroke="#223D65" stroke-opacity="0.2" stroke-width="2" stroke-linecap="round"/>
<path d="M-14.2021 307.617L5.32594 288.104" stroke="#223D65" stroke-opacity="0.2" stroke-width="2" stroke-linecap="round"/>
<path d="M0 336L19.5281 316.487" stroke="#223D65" stroke-opacity="0.2" stroke-width="2" stroke-linecap="round"/>
<path d="M124.27 305.844L143.798 286.33" stroke="#223D65" stroke-opacity="0.2" stroke-width="2" stroke-linecap="round"/>
<path d="M131.371 336L150.899 316.487" stroke="#223D65" stroke-opacity="0.2" stroke-width="2" stroke-linecap="round"/>
<path d="M79.8877 327.13L99.4158 307.617" stroke="#223D65" stroke-opacity="0.2" stroke-width="2" stroke-linecap="round"/>
<path d="M79.8877 279.235L99.4158 259.722" stroke="#223D65" stroke-opacity="0.2" stroke-width="2" stroke-linecap="round"/>
<path d="M79.8877 201.183L99.4158 181.67" stroke="#223D65" stroke-opacity="0.2" stroke-width="2" stroke-linecap="round"/>
<path d="M94.0898 229.565L113.618 210.052" stroke="#223D65" stroke-opacity="0.2" stroke-width="2" stroke-linecap="round"/>
<path d="M182.854 199.409L202.382 179.896" stroke="#223D65" stroke-opacity="0.2" stroke-width="2" stroke-linecap="round"/>
<path d="M189.955 229.565L209.483 210.052" stroke="#223D65" stroke-opacity="0.2" stroke-width="2" stroke-linecap="round"/>
<path d="M138.472 220.696L158 201.183" stroke="#223D65" stroke-opacity="0.2" stroke-width="2" stroke-linecap="round"/>
<path d="M143.798 249.078L163.326 229.565" stroke="#223D65" stroke-opacity="0.2" stroke-width="2" stroke-linecap="round"/>
<path d="M158 277.461L177.528 257.948" stroke="#223D65" stroke-opacity="0.2" stroke-width="2" stroke-linecap="round"/>
<path d="M237.888 220.696L257.416 201.183" stroke="#223D65" stroke-opacity="0.2" stroke-width="2" stroke-linecap="round"/>
<path d="M227.236 277.461L246.764 257.948" stroke="#223D65" stroke-opacity="0.2" stroke-width="2" stroke-linecap="round"/>
<path d="M234.337 307.617L253.865 288.104" stroke="#223D65" stroke-opacity="0.2" stroke-width="2" stroke-linecap="round"/>
<path d="M182.854 298.748L202.382 279.235" stroke="#223D65" stroke-opacity="0.2" stroke-width="2" stroke-linecap="round"/>
<path d="M188.18 327.13L207.708 307.617" stroke="#223D65" stroke-opacity="0.2" stroke-width="2" stroke-linecap="round"/>
<path d="M282.27 298.748L301.798 279.235" stroke="#223D65" stroke-opacity="0.2" stroke-width="2" stroke-linecap="round"/>
<path d="M276.944 192.313L296.472 172.8" stroke="#223D65" stroke-opacity="0.2" stroke-width="2" stroke-linecap="round"/>
<path d="M282.27 220.696L301.798 201.183" stroke="#223D65" stroke-opacity="0.2" stroke-width="2" stroke-linecap="round"/>
<path d="M296.472 249.078L316 229.565" stroke="#223D65" stroke-opacity="0.2" stroke-width="2" stroke-linecap="round"/>
</g>
<g clip-path="url(#clip3_1472_1412)">
<path d="M296.854 36.4087L316.382 16.8956" stroke="#223D65" stroke-opacity="0.2" stroke-width="2" stroke-linecap="round"/>
<path d="M303.955 66.5652L323.483 47.0521" stroke="#223D65" stroke-opacity="0.2" stroke-width="2" stroke-linecap="round"/>
<path d="M351.888 57.6956L371.416 38.1825" stroke="#223D65" stroke-opacity="0.2" stroke-width="2" stroke-linecap="round"/>
<path d="M341.236 114.461L360.764 94.9479" stroke="#223D65" stroke-opacity="0.2" stroke-width="2" stroke-linecap="round"/>
<path d="M348.337 144.617L367.865 125.104" stroke="#223D65" stroke-opacity="0.2" stroke-width="2" stroke-linecap="round"/>
<path d="M296.854 135.748L316.382 116.235" stroke="#223D65" stroke-opacity="0.2" stroke-width="2" stroke-linecap="round"/>
<path d="M302.18 164.13L321.708 144.617" stroke="#223D65" stroke-opacity="0.2" stroke-width="2" stroke-linecap="round"/>
<path d="M396.27 135.748L415.798 116.235" stroke="#223D65" stroke-opacity="0.2" stroke-width="2" stroke-linecap="round"/>
<path d="M390.944 29.313L410.472 9.79994" stroke="#223D65" stroke-opacity="0.2" stroke-width="2" stroke-linecap="round"/>
<path d="M396.27 57.6956L415.798 38.1825" stroke="#223D65" stroke-opacity="0.2" stroke-width="2" stroke-linecap="round"/>
<path d="M410.472 86.0784L430 66.5653" stroke="#223D65" stroke-opacity="0.2" stroke-width="2" stroke-linecap="round"/>
</g>
<g clip-path="url(#clip4_1472_1412)">
<path d="M296.854 207.409L316.382 187.896" stroke="#223D65" stroke-opacity="0.2" stroke-width="2" stroke-linecap="round"/>
<path d="M303.955 237.565L323.483 218.052" stroke="#223D65" stroke-opacity="0.2" stroke-width="2" stroke-linecap="round"/>
<path d="M351.888 228.696L371.416 209.183" stroke="#223D65" stroke-opacity="0.2" stroke-width="2" stroke-linecap="round"/>
<path d="M341.236 285.461L360.764 265.948" stroke="#223D65" stroke-opacity="0.2" stroke-width="2" stroke-linecap="round"/>
<path d="M348.337 315.617L367.865 296.104" stroke="#223D65" stroke-opacity="0.2" stroke-width="2" stroke-linecap="round"/>
<path d="M296.854 306.748L316.382 287.235" stroke="#223D65" stroke-opacity="0.2" stroke-width="2" stroke-linecap="round"/>
<path d="M302.18 335.13L321.708 315.617" stroke="#223D65" stroke-opacity="0.2" stroke-width="2" stroke-linecap="round"/>
<path d="M396.27 306.748L415.798 287.235" stroke="#223D65" stroke-opacity="0.2" stroke-width="2" stroke-linecap="round"/>
<path d="M390.944 200.313L410.472 180.8" stroke="#223D65" stroke-opacity="0.2" stroke-width="2" stroke-linecap="round"/>
<path d="M396.27 228.696L415.798 209.183" stroke="#223D65" stroke-opacity="0.2" stroke-width="2" stroke-linecap="round"/>
<path d="M410.472 257.078L430 237.565" stroke="#223D65" stroke-opacity="0.2" stroke-width="2" stroke-linecap="round"/>
</g>
</g>
<defs>
<linearGradient id="paint0_linear_1472_1412" x1="0" y1="188.5" x2="430" y2="188.5" gradientUnits="userSpaceOnUse">
<stop offset="0.2" stop-color="#0492B0"/>
<stop offset="1" stop-color="#3A7BD5"/>
</linearGradient>
<clipPath id="clip0_1472_1412">
<path d="M0 0H430V364.2C430 368.68 430 370.921 429.128 372.632C428.361 374.137 427.137 375.361 425.632 376.128C423.921 377 421.68 377 417.2 377H12.8C8.31957 377 6.07937 377 4.36808 376.128C2.86278 375.361 1.63893 374.137 0.871948 372.632C0 370.921 0 368.68 0 364.2V0Z" fill="white"/>
</clipPath>
<clipPath id="clip1_1472_1412">
<rect width="316" height="204" fill="white" transform="translate(0 -31)"/>
</clipPath>
<clipPath id="clip2_1472_1412">
<rect width="316" height="145" fill="white" transform="translate(0 191)"/>
</clipPath>
<clipPath id="clip3_1472_1412">
<rect width="114" height="204" fill="white" transform="translate(316 -31)"/>
</clipPath>
<clipPath id="clip4_1472_1412">
<rect width="114" height="204" fill="white" transform="translate(316 140)"/>
</clipPath>
</defs>
</svg>
