<svg width="41" height="30" viewBox="0 0 41 30" fill="none" xmlns="http://www.w3.org/2000/svg">
<g clip-path="url(#clip0_1472_1658)">
<path d="M25.5849 6.58764C26.2117 6.58764 26.7362 6.05036 26.7362 5.42353V2.77549C26.7362 2.13587 26.2117 1.61138 25.5849 1.61138C24.9453 1.61138 24.4208 2.13587 24.4208 2.77549V5.42353C24.4208 6.05036 24.9453 6.58764 25.5849 6.58764ZM17.9862 9.05658C18.4467 9.51711 19.1887 9.50432 19.6236 9.05658C20.0586 8.62164 20.0713 7.89247 19.6236 7.44473L17.7431 5.53866C17.2954 5.09092 16.5534 5.10371 16.1185 5.53866C15.6707 5.98639 15.6707 6.72836 16.1185 7.17609L17.9862 9.05658ZM31.5334 9.06937C31.9683 9.50432 32.7231 9.51711 33.1708 9.05658L35.0513 7.17609C35.499 6.72836 35.499 5.98639 35.0513 5.55145C34.6036 5.10371 33.8744 5.10371 33.4267 5.55145L31.5334 7.44473C31.0856 7.87968 31.0984 8.62164 31.5334 9.06937ZM28.9877 20.4674C30.8298 19.2266 31.9811 17.2693 31.9811 15.0051C31.9811 11.4616 29.1284 8.60884 25.5849 8.60884C23.2439 8.60884 21.2099 9.84971 20.1481 11.6918C20.6982 12.2547 21.1715 12.8687 21.5681 13.6235C25.7256 13.9433 28.5655 16.6041 28.9877 20.4674ZM6.71603 27.8487H20.9156C24.5615 27.8487 27.3758 25.0727 27.3758 21.4653C27.3758 17.8322 24.4847 15.1074 20.583 15.0946C19.1375 12.3314 16.5023 10.5405 13.189 10.5405C8.94192 10.5405 5.36003 13.8154 4.97626 18.088C2.76317 18.7277 1.34321 20.6082 1.34321 22.9108C1.34321 25.8403 3.53071 27.8487 6.71603 27.8487ZM35.1536 16.1564H37.8017C38.4413 16.1564 38.953 15.6447 38.953 15.0179C38.953 14.3782 38.4413 13.8537 37.8017 13.8537H35.1536C34.5268 13.8537 33.9895 14.3782 33.9895 15.0179C33.9895 15.6447 34.5268 16.1564 35.1536 16.1564ZM33.4267 24.4843C33.8744 24.932 34.6036 24.932 35.0513 24.4843C35.4862 24.0365 35.4862 23.3074 35.0385 22.8596L33.158 20.9791C32.7103 20.5442 31.9811 20.5314 31.5334 20.9791C31.0856 21.4269 31.0856 22.156 31.5334 22.6038L33.4267 24.4843ZM16.9372 34.0658L18.5874 31.2131C18.8433 30.7909 18.7153 30.3048 18.2932 30.0618C17.8838 29.8187 17.4105 29.9594 17.1547 30.3816L15.5044 33.2599C15.2614 33.6564 15.3765 34.1426 15.7987 34.3856C16.208 34.6159 16.7069 34.4752 16.9372 34.0658ZM6.7672 34.0786L8.41743 31.2259C8.66048 30.8037 8.53256 30.3176 8.1232 30.0746C7.70105 29.8315 7.22773 29.9722 6.98467 30.3944L5.32166 33.2727C5.09139 33.6692 5.19373 34.1554 5.62868 34.3984C6.03803 34.6287 6.53694 34.488 6.7672 34.0786ZM20.954 37.6605L22.6042 34.8078C22.8473 34.3856 22.7194 33.8995 22.31 33.6564C21.8879 33.4134 21.4273 33.5541 21.1715 33.9763L19.5085 36.8546C19.2782 37.2511 19.3933 37.7372 19.8155 37.9803C20.2249 38.2106 20.7238 38.0698 20.954 37.6605ZM10.7712 37.6733L12.4215 34.8206C12.6773 34.3984 12.5494 33.9123 12.1272 33.6692C11.7179 33.4262 11.2446 33.5669 10.9887 33.9891L9.33848 36.8674C9.09543 37.2639 9.21056 37.75 9.63271 37.9931C10.0421 38.2234 10.541 38.0826 10.7712 37.6733Z" fill="#023035"/>
</g>
<defs>
<clipPath id="clip0_1472_1658">
<rect width="41" height="30" fill="white"/>
</clipPath>
</defs>
</svg>
