<svg xmlns="http://www.w3.org/2000/svg" width="25" height="25" viewBox="0 0 25 25" fill="none">
  <g clip-path="url(#clip0_5919_209)">
    <path fill-rule="evenodd" clip-rule="evenodd" d="M13.6474 24.7509H11.839C11.2074 24.7509 10.6907 24.2342 10.6907 23.5883C10.6907 23.3156 10.662 23.0286 10.7051 22.8133C10.8199 22.153 14.81 22.6123 14.81 22.8276V23.5883C14.81 24.2342 14.279 24.7509 13.6474 24.7509Z" fill="#56717D"/>
    <path fill-rule="evenodd" clip-rule="evenodd" d="M15.8285 19.9856H9.67108C9.51319 19.9856 9.38402 19.8564 9.38402 19.6985V17.5456C7.01578 16.2969 5.56613 13.8712 5.56613 11.1872C5.56613 7.2258 8.78119 4.01074 12.7426 4.01074C16.704 4.01074 19.9334 7.2258 19.9334 11.1872C19.9334 13.8712 18.4694 16.2969 16.1156 17.5456V19.6985C16.1156 19.8564 15.9864 19.9856 15.8285 19.9856Z" fill="#F7CC3F"/>
    <path fill-rule="evenodd" clip-rule="evenodd" d="M11.8384 19.9829H11.2643V14.213L10.2739 12.505C10.0873 12.1749 10.5753 11.8878 10.7619 12.2179C10.9198 12.4763 11.8384 13.969 11.8384 14.1412V19.9829ZM14.2353 19.9829H13.6612V14.1412C13.6612 13.969 14.5798 12.4763 14.7233 12.2179C14.9099 11.8878 15.4123 12.1749 15.2257 12.4906L14.2353 14.213V19.9829Z" fill="#F9A633"/>
    <path fill-rule="evenodd" clip-rule="evenodd" d="M14.9678 23.1132H10.5327C9.9012 23.1132 9.38449 22.5965 9.38449 21.965V19.4102H16.116V21.965C16.116 22.5965 15.5993 23.1132 14.9678 23.1132Z" fill="#607D8B"/>
    <path fill-rule="evenodd" clip-rule="evenodd" d="M9.38449 21.5487V20.9746H16.116V21.5487H9.38449Z" fill="#56717D"/>
    <path fill-rule="evenodd" clip-rule="evenodd" d="M12.7429 3.22106C12.4558 3.22106 12.2261 2.99141 12.2261 2.70435V0.766706C12.2261 0.0777646 13.2739 0.0777646 13.2739 0.766706V2.70435C13.2739 2.99141 13.0299 3.22106 12.7429 3.22106ZM17.1923 4.41236C16.7904 4.41236 16.5464 3.98177 16.7473 3.6373L17.709 1.958C17.8094 1.78577 17.9673 1.6853 18.1539 1.6853C18.5558 1.69965 18.8285 2.11588 18.6132 2.47471L17.6516 4.154C17.5511 4.31188 17.3789 4.41236 17.1923 4.41236ZM20.4504 7.67048C19.9193 7.67048 19.7184 6.96718 20.192 6.69447L21.8713 5.73283C22.0292 5.63236 22.2158 5.63236 22.388 5.71847C22.7182 5.93377 22.7469 6.42177 22.388 6.63706C22.0579 6.82365 20.7231 7.67048 20.4504 7.67048ZM23.5793 12.1199H21.6417C20.9527 12.1199 20.9527 11.0721 21.6417 11.0721H23.5793C24.2683 11.0721 24.2683 12.1199 23.5793 12.1199ZM8.30779 4.41236C8.1212 4.41236 7.94897 4.31188 7.8485 4.154L6.88685 2.47471C6.78638 2.31682 6.78638 2.11588 6.8725 1.958C7.08779 1.61353 7.57579 1.59918 7.79109 1.958L8.75273 3.6373C8.95368 3.98177 8.69532 4.41236 8.30779 4.41236ZM5.04967 7.67048C4.77697 7.67048 3.44214 6.82365 3.11202 6.63706C2.93979 6.53659 2.83932 6.37871 2.83932 6.17777C2.85367 5.79024 3.26991 5.51753 3.62873 5.73283L5.30803 6.69447C5.76732 6.96718 5.58073 7.67048 5.04967 7.67048ZM3.85838 12.1199H1.92073C1.23179 12.1199 1.23179 11.0721 1.92073 11.0721H3.85838C4.54732 11.0721 4.54732 12.1199 3.85838 12.1199Z" fill="#F9A633"/>
  </g>
  <defs>
    <clipPath id="clip0_5919_209">
      <rect width="24.5005" height="24.5005" fill="white" transform="translate(0.499725 0.25)"/>
    </clipPath>
  </defs>
</svg>