<svg width="430" height="377" viewBox="0 0 430 377" fill="none" xmlns="http://www.w3.org/2000/svg">
<g clip-path="url(#clip0_166_4786)">
<path d="M0 0H430V364.2C430 368.68 430 370.921 429.128 372.632C428.361 374.137 427.137 375.361 425.632 376.128C423.921 377 421.68 377 417.2 377H12.8C8.31957 377 6.07937 377 4.36808 376.128C2.86278 375.361 1.63893 374.137 0.871948 372.632C0 370.921 0 368.68 0 364.2V0Z" fill="white"/>
<rect opacity="0.59" width="430" height="377" fill="url(#paint0_linear_166_4786)"/>
<circle opacity="0.23" cx="252.921" cy="-16.6177" r="89.3237" fill="white" fill-opacity="0.49"/>
<circle opacity="0.28" cx="252.835" cy="-16.7029" r="70.1829" fill="white" fill-opacity="0.3"/>
<circle cx="253.133" cy="-16.4049" r="47.852" fill="#FCE588"/>
<g clip-path="url(#clip1_166_4786)">
<path d="M356.726 31.6661L353.666 28.6064C352.822 27.7614 351.45 27.7614 350.606 28.6064C349.761 29.4514 349.761 30.8211 350.606 31.6661L353.666 34.7258C354.088 35.1488 354.642 35.3598 355.196 35.3598C355.75 35.3598 356.304 35.1488 356.726 34.7258C357.571 33.8808 357.571 32.5111 356.726 31.6661Z" fill="white"/>
<path d="M349.492 44.8027H345.164C343.969 44.8027 343 45.7721 343 46.9666C343 48.161 343.969 49.1304 345.164 49.1304H349.492C350.686 49.1304 351.655 48.161 351.655 46.9666C351.655 45.7721 350.686 44.8027 349.492 44.8027Z" fill="white"/>
<path d="M356.726 59.207C355.882 58.362 354.51 58.362 353.666 59.207L350.606 62.2667C349.761 63.1116 349.761 64.4814 350.606 65.3263C351.028 65.7494 351.582 65.9604 352.136 65.9604C352.69 65.9604 353.244 65.7494 353.666 65.3263L356.726 62.2667C357.571 61.4217 357.571 60.052 356.726 59.207Z" fill="white"/>
<path d="M368.967 64.2773C367.772 64.2773 366.803 65.2467 366.803 66.4412V70.7689C366.803 71.9633 367.772 72.9327 368.967 72.9327C370.161 72.9327 371.13 71.9633 371.13 70.7689V66.4412C371.13 65.2467 370.161 64.2773 368.967 64.2773Z" fill="white"/>
<path d="M387.327 62.2667L384.268 59.207C383.424 58.362 382.052 58.362 381.208 59.207C380.363 60.052 380.363 61.4217 381.208 62.2667L384.268 65.3263C384.69 65.7494 385.244 65.9604 385.797 65.9604C386.351 65.9604 386.905 65.7494 387.327 65.3263C388.172 64.4814 388.172 63.1116 387.327 62.2667Z" fill="white"/>
<path d="M392.769 44.8027H388.441C387.247 44.8027 386.277 45.7721 386.277 46.9666C386.277 48.161 387.247 49.1304 388.441 49.1304H392.769C393.963 49.1304 394.933 48.161 394.933 46.9666C394.933 45.7721 393.963 44.8027 392.769 44.8027Z" fill="white"/>
<path d="M387.327 28.6064C386.483 27.7614 385.112 27.7614 384.268 28.6064L381.208 31.6661C380.363 32.5111 380.363 33.8808 381.208 34.7258C381.63 35.1488 382.184 35.3598 382.738 35.3598C383.292 35.3598 383.846 35.1488 384.268 34.7258L387.327 31.6661C388.172 30.8211 388.172 29.4514 387.327 28.6064Z" fill="white"/>
<path d="M368.967 21C367.772 21 366.803 21.9694 366.803 23.1638V27.4915C366.803 28.686 367.772 29.6554 368.967 29.6554C370.161 29.6554 371.13 28.686 371.13 27.4915V23.1638C371.13 21.9694 370.161 21 368.967 21Z" fill="white"/>
<path d="M368.967 32.9014C361.212 32.9014 354.902 39.2111 354.902 46.9664C354.902 54.7216 361.212 61.0314 368.967 61.0314C376.723 61.0314 383.032 54.7216 383.032 46.9664C383.032 39.2111 376.723 32.9014 368.967 32.9014ZM368.967 56.7037C363.599 56.7037 359.23 52.3349 359.23 46.9664C359.23 41.5979 363.599 37.2291 368.967 37.2291C374.336 37.2291 378.705 41.5979 378.705 46.9664C378.705 52.3349 374.336 56.7037 368.967 56.7037Z" fill="white"/>
</g>
<path d="M25.564 137.488L33.676 128.704C35.084 127.136 36.316 125.744 37.372 124.528C38.428 123.28 39.244 122.048 39.82 120.832C40.396 119.584 40.684 118.24 40.684 116.8C40.684 115.392 40.284 114.304 39.484 113.536C38.684 112.768 37.596 112.384 36.22 112.384C34.908 112.384 33.66 112.688 32.476 113.296C31.324 113.904 30.156 114.736 28.972 115.792L25.612 111.808C26.508 110.976 27.468 110.224 28.492 109.552C29.548 108.848 30.732 108.288 32.044 107.872C33.388 107.456 34.876 107.248 36.508 107.248C38.62 107.248 40.444 107.632 41.98 108.4C43.516 109.168 44.7 110.256 45.532 111.664C46.396 113.072 46.828 114.752 46.828 116.704C46.828 118.464 46.428 120.144 45.628 121.744C44.86 123.344 43.82 124.912 42.508 126.448C41.228 127.984 39.788 129.584 38.188 131.248L33.148 136.432V136.72H47.932V142H25.564V137.488ZM68.9455 113.008H52.4815V107.776H75.5215V111.904L62.8495 142H56.4175L68.9455 113.008ZM110.78 112.432C109.212 112.432 107.82 112.72 106.604 113.296C105.388 113.872 104.348 114.704 103.484 115.792C102.652 116.88 102.012 118.192 101.564 119.728C101.148 121.264 100.94 122.992 100.94 124.912C100.94 127.504 101.292 129.728 101.996 131.584C102.7 133.408 103.772 134.816 105.212 135.808C106.684 136.8 108.524 137.296 110.732 137.296C112.204 137.296 113.612 137.152 114.956 136.864C116.332 136.544 117.772 136.128 119.276 135.616V140.848C117.868 141.424 116.444 141.84 115.004 142.096C113.596 142.352 111.964 142.48 110.108 142.48C106.588 142.48 103.676 141.76 101.372 140.32C99.0677 138.848 97.3557 136.8 96.2357 134.176C95.1157 131.52 94.5557 128.416 94.5557 124.864C94.5557 122.272 94.9077 119.904 95.6117 117.76C96.3477 115.616 97.3877 113.76 98.7317 112.192C100.108 110.624 101.804 109.408 103.82 108.544C105.836 107.68 108.156 107.248 110.78 107.248C112.508 107.248 114.204 107.456 115.868 107.872C117.564 108.256 119.148 108.8 120.62 109.504L118.508 114.544C117.292 114 116.028 113.52 114.716 113.104C113.436 112.656 112.124 112.432 110.78 112.432Z" fill="white"/>
<circle cx="88.8424" cy="104.342" r="4.91535" stroke="white" stroke-width="2.85408"/>
<path d="M352.635 101.447L353.337 100.277C353.623 100.745 353.857 101.317 354.039 101.993C354.247 102.669 354.351 103.553 354.351 104.645C354.351 105.685 354.221 106.608 353.961 107.414C353.701 108.194 353.337 108.87 352.869 109.442L352.518 109.988C352.024 110.508 351.465 110.976 350.841 111.392C350.217 111.808 349.554 112.159 348.852 112.445L349.086 112.055C350.1 113.277 351.283 114.551 352.635 115.877C353.987 117.203 355.417 118.477 356.925 119.699L354.078 122.585C352.648 121.285 351.296 120.024 350.022 118.802C348.774 117.554 347.669 116.384 346.707 115.292C345.745 114.2 344.952 113.251 344.328 112.445C343.756 111.665 343.379 111.015 343.197 110.495C343.041 109.975 342.963 109.494 342.963 109.052C342.963 108.454 343.184 107.869 343.626 107.297C344.068 106.725 344.809 106.439 345.849 106.439C346.525 106.439 347.123 106.582 347.643 106.868C348.189 107.154 348.683 107.557 349.125 108.077C349.567 108.597 349.996 109.247 350.412 110.027L347.799 108.935C348.345 108.571 348.761 108.142 349.047 107.648C349.359 107.128 349.58 106.569 349.71 105.971C349.84 105.373 349.905 104.762 349.905 104.138C349.905 103.306 349.801 102.539 349.593 101.837C349.411 101.135 349.203 100.615 348.969 100.277L351.387 101.447H341.637V97.742H360.63V101.447H352.635ZM356.886 109.169C357.77 109.169 358.576 109.13 359.304 109.052C360.032 108.974 360.76 108.857 361.488 108.701C362.242 108.519 363.048 108.259 363.906 107.921V111.743C362.84 112.185 361.787 112.484 360.747 112.64C359.733 112.796 358.589 112.874 357.315 112.874C356.327 112.874 355.378 112.822 354.468 112.718C353.558 112.588 352.726 112.419 351.972 112.211C351.218 111.977 350.581 111.73 350.061 111.47L350.685 108.233C351.309 108.415 351.946 108.584 352.596 108.74C353.246 108.87 353.922 108.974 354.624 109.052C355.352 109.13 356.106 109.169 356.886 109.169ZM378.921 101.447V122H374.475V113.303L375.684 114.551C374.956 115.045 374.241 115.461 373.539 115.799C372.863 116.137 372.148 116.384 371.394 116.54C370.64 116.696 369.769 116.774 368.781 116.774C367.637 116.774 366.623 116.592 365.739 116.228C364.881 115.864 364.179 115.409 363.633 114.863C363.191 114.369 362.827 113.849 362.541 113.303C362.255 112.731 362.047 112.055 361.917 111.275C361.787 110.469 361.722 109.494 361.722 108.35V101.447H358.914V97.742H382.704V101.447H378.921ZM374.475 101.447H366.168V107.999C366.168 108.909 366.194 109.637 366.246 110.183C366.324 110.703 366.441 111.132 366.597 111.47C366.753 111.782 366.948 112.055 367.182 112.289C367.442 112.549 367.767 112.744 368.157 112.874C368.547 113.004 369.028 113.069 369.6 113.069C370.432 113.069 371.212 112.9 371.94 112.562C372.668 112.198 373.305 111.782 373.851 111.314C374.397 110.846 374.8 110.43 375.06 110.066L374.475 112.757V101.447ZM394.718 122C392.768 122 391.065 121.753 389.609 121.259C388.153 120.739 387.009 119.972 386.177 118.958C385.371 117.918 384.968 116.631 384.968 115.097C384.968 113.719 385.384 112.562 386.216 111.626C387.074 110.69 388.257 109.988 389.765 109.52C391.299 109.026 393.093 108.779 395.147 108.779H396.473C396.811 108.779 397.123 108.792 397.409 108.818C397.721 108.818 398.033 108.831 398.345 108.857V101.096H402.674V108.974L399.476 112.055H396.005C394.757 112.055 393.743 112.12 392.963 112.25C392.183 112.354 391.507 112.536 390.935 112.796C390.467 113.03 390.09 113.342 389.804 113.732C389.544 114.122 389.414 114.59 389.414 115.136C389.414 115.89 389.635 116.501 390.077 116.969C390.519 117.411 391.156 117.736 391.988 117.944C392.82 118.126 393.795 118.217 394.913 118.217C396.239 118.217 397.5 118.061 398.696 117.749C399.918 117.437 401.049 117.034 402.089 116.54L403.493 120.206C402.349 120.726 400.984 121.155 399.398 121.493C397.812 121.831 396.252 122 394.718 122ZM388.283 101.642L390.35 100.043L398.969 108.389L397.409 110.417L388.283 101.642ZM387.23 111.314C386.762 110.872 386.359 110.391 386.021 109.871C385.709 109.351 385.462 108.74 385.28 108.038C385.124 107.31 385.046 106.439 385.046 105.425V101.447H382.16V97.742H406.535V101.447H389.375V105.074C389.375 105.906 389.427 106.595 389.531 107.141C389.635 107.687 389.804 108.142 390.038 108.506C390.272 108.844 390.597 109.156 391.013 109.442L387.23 111.314Z" fill="white"/>
<g clip-path="url(#clip2_166_4786)">
<path d="M210.069 136.931C206.211 136.931 203.072 140.126 203.072 144.053C203.072 146.25 204.183 148.916 206.375 151.978C207.978 154.219 209.558 155.817 209.625 155.884C209.747 156.007 209.908 156.069 210.069 156.069C210.225 156.069 210.382 156.011 210.503 155.894C210.57 155.83 212.154 154.296 213.76 152.086C215.954 149.07 217.065 146.367 217.065 144.053C217.065 140.126 213.927 136.931 210.069 136.931ZM210.069 147.128C208.183 147.128 206.648 145.594 206.648 143.708C206.648 141.822 208.183 140.287 210.069 140.287C211.955 140.287 213.489 141.822 213.489 143.708C213.489 145.594 211.955 147.128 210.069 147.128Z" fill="white"/>
</g>
<path d="M232.153 134.872C233.005 134.872 233.803 134.992 234.547 135.232C235.291 135.46 235.987 135.796 236.635 136.24C237.295 136.684 237.907 137.218 238.471 137.842C239.035 138.466 239.557 139.162 240.037 139.93H238.525C237.913 139.09 237.277 138.394 236.617 137.842C235.969 137.29 235.297 136.876 234.601 136.6C233.905 136.312 233.191 136.168 232.459 136.168C231.619 136.168 230.959 136.348 230.479 136.708C230.011 137.056 229.777 137.536 229.777 138.148C229.777 138.544 229.843 138.886 229.975 139.174C230.119 139.462 230.269 139.714 230.425 139.93H228.877C228.721 139.642 228.589 139.342 228.481 139.03C228.373 138.706 228.319 138.352 228.319 137.968C228.319 137.344 228.475 136.804 228.787 136.348C229.111 135.88 229.561 135.52 230.137 135.268C230.713 135.004 231.385 134.872 232.153 134.872ZM228.967 141.082H227.365V139.804H232.279V141.082H230.425V151H228.967V141.082ZM242.913 141.082H241.059V151H239.601V147.382L239.871 147.85C239.655 148.006 239.397 148.168 239.097 148.336C238.809 148.492 238.467 148.624 238.071 148.732C237.687 148.828 237.237 148.876 236.721 148.876C236.049 148.876 235.443 148.75 234.903 148.498C234.375 148.246 233.961 147.898 233.661 147.454C233.361 146.998 233.211 146.464 233.211 145.852C233.211 145.168 233.373 144.586 233.697 144.106C234.033 143.626 234.495 143.266 235.083 143.026C235.683 142.774 236.373 142.648 237.153 142.648C237.321 142.648 237.525 142.66 237.765 142.684C238.005 142.696 238.239 142.714 238.467 142.738C238.707 142.762 238.893 142.792 239.025 142.828L238.917 144.07C238.677 144.022 238.407 143.98 238.107 143.944C237.807 143.908 237.507 143.89 237.207 143.89C236.415 143.89 235.791 144.058 235.335 144.394C234.891 144.718 234.669 145.198 234.669 145.834C234.669 146.458 234.867 146.926 235.263 147.238C235.671 147.538 236.163 147.688 236.739 147.688C237.231 147.688 237.669 147.61 238.053 147.454C238.449 147.298 238.791 147.1 239.079 146.86C239.379 146.62 239.631 146.374 239.835 146.122L239.601 147.04V141.082H232.383V139.804H242.913V141.082ZM236.073 143.368L239.169 147.238L238.341 147.994L234.957 143.782L236.073 143.368ZM253.665 141.082V151H252.207V141.082H250.605V139.804H255.537V141.082H253.665ZM245.223 147.598C244.803 147.598 244.449 147.496 244.161 147.292C243.885 147.076 243.747 146.782 243.747 146.41C243.747 146.062 243.855 145.798 244.071 145.618C244.287 145.438 244.563 145.348 244.899 145.348C245.151 145.348 245.415 145.414 245.691 145.546C245.967 145.666 246.351 145.924 246.843 146.32L247.059 146.572C247.479 146.896 247.893 147.268 248.301 147.688C248.721 148.096 249.117 148.522 249.489 148.966C249.861 149.398 250.191 149.818 250.479 150.226L249.327 151.018C248.595 149.974 247.935 149.152 247.347 148.552C246.771 147.94 246.225 147.448 245.709 147.076L245.493 146.194C246.057 146.182 246.567 146.05 247.023 145.798C247.479 145.546 247.839 145.186 248.103 144.718C248.379 144.238 248.517 143.674 248.517 143.026C248.517 142.354 248.337 141.82 247.977 141.424C247.629 141.016 247.173 140.812 246.609 140.812C246.237 140.812 245.961 140.896 245.781 141.064C245.601 141.22 245.511 141.436 245.511 141.712C245.511 141.856 245.541 142.006 245.601 142.162C245.661 142.306 245.769 142.45 245.925 142.594C246.093 142.726 246.333 142.84 246.645 142.936C246.969 143.02 247.383 143.068 247.887 143.08L247.581 144.34C246.453 144.268 245.607 143.986 245.043 143.494C244.491 142.99 244.215 142.39 244.215 141.694C244.215 141.082 244.425 140.584 244.845 140.2C245.277 139.816 245.895 139.624 246.699 139.624C247.263 139.624 247.791 139.756 248.283 140.02C248.775 140.272 249.171 140.656 249.471 141.172C249.783 141.676 249.939 142.312 249.939 143.08C249.939 143.884 249.741 144.634 249.345 145.33C248.961 146.014 248.415 146.566 247.707 146.986C246.999 147.394 246.171 147.598 245.223 147.598ZM255.621 139.804H265.863V141.082H264.009V151H262.551V145.636H259.293V146.608C259.293 146.944 259.209 147.196 259.041 147.364C258.873 147.532 258.651 147.616 258.375 147.616C258.159 147.616 257.925 147.544 257.673 147.4C257.433 147.256 257.205 147.064 256.989 146.824C256.785 146.584 256.617 146.332 256.485 146.068C256.353 145.792 256.287 145.528 256.287 145.276C256.287 145 256.365 144.778 256.521 144.61C256.689 144.442 256.977 144.358 257.385 144.358H262.551V141.082H255.621V139.804ZM274.587 141.082V151H273.129V146.914L273.471 147.346C273.219 147.514 272.949 147.682 272.661 147.85C272.373 148.006 272.055 148.132 271.707 148.228C271.371 148.324 270.981 148.372 270.537 148.372C270.057 148.372 269.619 148.294 269.223 148.138C268.839 147.97 268.521 147.76 268.269 147.508C268.065 147.292 267.897 147.058 267.765 146.806C267.633 146.542 267.537 146.23 267.477 145.87C267.417 145.51 267.387 145.072 267.387 144.556V141.082H265.965V139.804H276.459V141.082H274.587ZM273.129 141.082H268.845V144.358C268.845 144.85 268.863 145.24 268.899 145.528C268.935 145.816 268.989 146.05 269.061 146.23C269.145 146.398 269.253 146.548 269.385 146.68C269.529 146.824 269.709 146.932 269.925 147.004C270.141 147.064 270.399 147.094 270.699 147.094C271.071 147.094 271.425 147.022 271.761 146.878C272.109 146.734 272.421 146.554 272.697 146.338C272.985 146.11 273.225 145.876 273.417 145.636L273.129 146.572V141.082ZM272.092 151.216C272.404 151.084 272.734 150.982 273.082 150.91C273.43 150.838 273.772 150.802 274.108 150.802C275.008 150.802 275.71 151.03 276.214 151.486C276.706 151.954 276.952 152.566 276.952 153.322C276.952 154.054 276.676 154.654 276.124 155.122C275.56 155.59 274.762 155.824 273.73 155.824C272.962 155.824 272.266 155.698 271.642 155.446C271.006 155.194 270.424 154.84 269.896 154.384C269.356 153.94 268.846 153.412 268.366 152.8L269.464 152.026C269.932 152.602 270.376 153.076 270.796 153.448C271.216 153.82 271.666 154.09 272.146 154.258C272.614 154.438 273.142 154.528 273.73 154.528C274.366 154.528 274.846 154.414 275.17 154.186C275.482 153.958 275.638 153.628 275.638 153.196C275.638 152.932 275.572 152.71 275.44 152.53C275.296 152.362 275.116 152.236 274.9 152.152C274.684 152.068 274.45 152.026 274.198 152.026C273.874 152.026 273.586 152.056 273.334 152.116C273.07 152.188 272.812 152.29 272.56 152.422L272.092 151.216ZM282.028 141.082L282.532 140.812C282.664 141.004 282.766 141.262 282.838 141.586C282.922 141.91 282.964 142.3 282.964 142.756C282.964 143.428 282.826 143.998 282.55 144.466C282.274 144.922 281.896 145.312 281.416 145.636C280.936 145.96 280.39 146.242 279.778 146.482L279.85 146.338C280.21 146.758 280.612 147.196 281.056 147.652C281.512 148.096 281.992 148.54 282.496 148.984C283 149.416 283.51 149.836 284.026 150.244L283.054 151.216C282.346 150.628 281.68 150.034 281.056 149.434C280.432 148.834 279.88 148.27 279.4 147.742C278.92 147.214 278.542 146.764 278.266 146.392C278.002 146.02 277.828 145.726 277.744 145.51C277.672 145.294 277.636 145.084 277.636 144.88C277.636 144.652 277.726 144.436 277.906 144.232C278.086 144.028 278.38 143.926 278.788 143.926C279.244 143.926 279.616 144.076 279.904 144.376C280.192 144.676 280.45 145.084 280.678 145.6L279.562 144.97C280.246 144.742 280.744 144.43 281.056 144.034C281.368 143.626 281.524 143.14 281.524 142.576C281.524 142.228 281.476 141.886 281.38 141.55C281.296 141.202 281.188 140.962 281.056 140.83L281.866 141.082H276.916V139.804H284.548V141.082H282.028ZM294.087 141.082L294.591 140.812C294.723 141.004 294.831 141.262 294.915 141.586C294.999 141.91 295.041 142.3 295.041 142.756C295.041 143.284 294.975 143.746 294.843 144.142C294.723 144.526 294.549 144.844 294.321 145.096L294.303 145.258C294.087 145.534 293.829 145.774 293.529 145.978C293.241 146.182 292.911 146.356 292.539 146.5L292.611 146.338C293.103 146.974 293.685 147.634 294.357 148.318C295.041 149.002 295.761 149.644 296.517 150.244L295.545 151.216C294.873 150.628 294.237 150.034 293.637 149.434C293.049 148.834 292.527 148.27 292.071 147.742C291.615 147.214 291.255 146.764 290.991 146.392C290.727 146.02 290.559 145.726 290.487 145.51C290.427 145.294 290.397 145.084 290.397 144.88C290.397 144.652 290.487 144.436 290.667 144.232C290.847 144.028 291.141 143.926 291.549 143.926C291.849 143.926 292.107 143.998 292.323 144.142C292.551 144.274 292.755 144.466 292.935 144.718C293.115 144.958 293.283 145.252 293.439 145.6L292.341 145.042C292.677 144.946 292.929 144.778 293.097 144.538C293.277 144.298 293.403 144.022 293.475 143.71C293.547 143.386 293.583 143.068 293.583 142.756C293.583 142.3 293.541 141.91 293.457 141.586C293.373 141.25 293.277 141.004 293.169 140.848L293.943 141.082H289.677V139.804H297.183V141.082H294.087ZM300.243 141.082V151H298.785V141.082H296.805V139.804H302.115V141.082H300.243ZM296.319 145.204C296.727 145.204 297.099 145.186 297.435 145.15C297.771 145.114 298.107 145.06 298.443 144.988C298.779 144.904 299.139 144.79 299.523 144.646V145.96C299.007 146.164 298.533 146.302 298.101 146.374C297.681 146.446 297.153 146.482 296.517 146.482C296.121 146.482 295.701 146.458 295.257 146.41C294.825 146.35 294.417 146.272 294.033 146.176C293.649 146.068 293.337 145.954 293.097 145.834L293.457 144.754C293.697 144.838 293.973 144.916 294.285 144.988C294.597 145.06 294.927 145.114 295.275 145.15C295.623 145.186 295.971 145.204 296.319 145.204ZM299.159 139.93C298.907 138.982 298.661 138.238 298.421 137.698C298.169 137.146 297.893 136.756 297.593 136.528C297.293 136.3 296.939 136.186 296.531 136.186C296.267 136.186 296.033 136.216 295.829 136.276C295.625 136.324 295.439 136.378 295.271 136.438L294.839 135.124C295.091 135.028 295.343 134.962 295.595 134.926C295.847 134.89 296.141 134.872 296.477 134.872C296.969 134.872 297.407 134.956 297.791 135.124C298.175 135.292 298.523 135.568 298.835 135.952C299.147 136.336 299.441 136.858 299.717 137.518C299.993 138.166 300.257 138.97 300.509 139.93H299.159ZM313.685 141.082H310.697V145.636L310.373 145.222C310.685 144.982 311.021 144.784 311.381 144.628C311.741 144.46 312.203 144.376 312.767 144.376H313.919V145.654H313.001C312.569 145.654 312.209 145.69 311.921 145.762C311.645 145.834 311.381 145.954 311.129 146.122C310.889 146.29 310.607 146.518 310.283 146.806L310.697 145.816V151H309.239V147.22L309.491 147.652C309.299 147.82 309.065 148 308.789 148.192C308.525 148.384 308.213 148.546 307.853 148.678C307.505 148.81 307.097 148.876 306.629 148.876C306.065 148.876 305.531 148.762 305.027 148.534C304.535 148.306 304.139 147.964 303.839 147.508C303.539 147.04 303.389 146.464 303.389 145.78C303.389 145.132 303.539 144.574 303.839 144.106C304.139 143.638 304.559 143.278 305.099 143.026C305.639 142.774 306.257 142.648 306.953 142.648C307.229 142.648 307.535 142.672 307.871 142.72C308.219 142.756 308.483 142.792 308.663 142.828L308.555 144.142C308.363 144.094 308.117 144.052 307.817 144.016C307.529 143.98 307.271 143.962 307.043 143.962C306.347 143.962 305.807 144.118 305.423 144.43C305.039 144.742 304.847 145.18 304.847 145.744C304.847 146.38 305.027 146.854 305.387 147.166C305.759 147.466 306.185 147.616 306.665 147.616C307.265 147.616 307.793 147.454 308.249 147.13C308.717 146.806 309.149 146.428 309.545 145.996L309.239 146.968V141.082H302.561V139.804H313.685V141.082ZM321.948 141.082H319.284V144.718H318.294C317.718 144.718 317.238 144.766 316.854 144.862C316.47 144.958 316.14 145.096 315.864 145.276C315.552 145.492 315.306 145.756 315.126 146.068C314.958 146.38 314.874 146.734 314.874 147.13C314.874 147.706 315.006 148.186 315.27 148.57C315.534 148.942 315.876 149.218 316.296 149.398C316.728 149.578 317.196 149.668 317.7 149.668C318.348 149.668 318.9 149.596 319.356 149.452C319.812 149.296 320.292 149.086 320.796 148.822L321.282 150.154C320.754 150.394 320.19 150.598 319.59 150.766C319.002 150.922 318.39 151 317.754 151C316.926 151 316.182 150.844 315.522 150.532C314.874 150.22 314.364 149.77 313.992 149.182C313.62 148.594 313.434 147.88 313.434 147.04C313.434 146.26 313.638 145.606 314.046 145.078C314.454 144.538 314.988 144.13 315.648 143.854C316.32 143.578 317.034 143.44 317.79 143.44H317.88L317.826 143.512V141.082H312.606V139.804H321.948V141.082ZM327.149 141.082L327.653 140.812C327.785 141.004 327.887 141.262 327.959 141.586C328.043 141.91 328.085 142.3 328.085 142.756C328.085 143.428 327.947 143.998 327.671 144.466C327.395 144.922 327.017 145.312 326.537 145.636C326.057 145.96 325.511 146.242 324.899 146.482L324.971 146.338C325.331 146.758 325.733 147.196 326.177 147.652C326.633 148.096 327.113 148.54 327.617 148.984C328.121 149.416 328.631 149.836 329.147 150.244L328.175 151.216C327.467 150.628 326.801 150.034 326.177 149.434C325.553 148.834 325.001 148.27 324.521 147.742C324.041 147.214 323.663 146.764 323.387 146.392C323.123 146.02 322.949 145.726 322.865 145.51C322.793 145.294 322.757 145.084 322.757 144.88C322.757 144.652 322.847 144.436 323.027 144.232C323.207 144.028 323.501 143.926 323.909 143.926C324.365 143.926 324.737 144.076 325.025 144.376C325.313 144.676 325.571 145.084 325.799 145.6L324.683 144.97C325.367 144.742 325.865 144.43 326.177 144.034C326.489 143.626 326.645 143.14 326.645 142.576C326.645 142.228 326.597 141.886 326.501 141.55C326.417 141.202 326.309 140.962 326.177 140.83L326.987 141.082H322.037V139.804H329.669V141.082H327.149ZM339.082 151.18C338.482 151.18 337.906 151.12 337.354 151C336.802 150.892 336.334 150.718 335.95 150.478V148.966C336.214 149.146 336.526 149.302 336.886 149.434C337.258 149.554 337.642 149.65 338.038 149.722C338.434 149.782 338.794 149.812 339.118 149.812C340.042 149.812 340.762 149.59 341.278 149.146C341.806 148.702 342.07 148.006 342.07 147.058C342.07 146.206 341.812 145.564 341.296 145.132C340.78 144.688 340.03 144.466 339.046 144.466C338.734 144.466 338.374 144.496 337.966 144.556C337.57 144.604 337.252 144.652 337.012 144.7L336.22 144.196L336.706 138.148H342.772V139.606H338.092L337.75 143.296C337.942 143.248 338.2 143.206 338.524 143.17C338.86 143.134 339.214 143.116 339.586 143.116C340.366 143.116 341.062 143.26 341.674 143.548C342.298 143.824 342.79 144.244 343.15 144.808C343.522 145.36 343.708 146.05 343.708 146.878C343.708 148.222 343.312 149.278 342.52 150.046C341.728 150.802 340.582 151.18 339.082 151.18ZM350.04 151.18C348.756 151.18 347.76 150.874 347.052 150.262C346.356 149.638 346.008 148.792 346.008 147.724C346.008 147.136 346.116 146.626 346.332 146.194C346.56 145.762 346.86 145.39 347.232 145.078C347.616 144.754 348.036 144.484 348.492 144.268C348.108 144.016 347.76 143.74 347.448 143.44C347.136 143.14 346.884 142.792 346.692 142.396C346.512 142 346.422 141.544 346.422 141.028C346.422 140.344 346.59 139.774 346.926 139.318C347.262 138.862 347.706 138.52 348.258 138.292C348.81 138.064 349.404 137.95 350.04 137.95C350.7 137.95 351.3 138.064 351.84 138.292C352.392 138.52 352.83 138.862 353.154 139.318C353.49 139.774 353.658 140.35 353.658 141.046C353.658 141.562 353.556 142.018 353.352 142.414C353.148 142.798 352.872 143.134 352.524 143.422C352.188 143.71 351.798 143.968 351.354 144.196C351.81 144.436 352.242 144.718 352.65 145.042C353.07 145.354 353.412 145.726 353.676 146.158C353.94 146.578 354.072 147.076 354.072 147.652C354.072 148.372 353.898 148.996 353.55 149.524C353.214 150.052 352.746 150.46 352.146 150.748C351.546 151.036 350.844 151.18 350.04 151.18ZM350.004 149.848C350.832 149.848 351.456 149.65 351.876 149.254C352.296 148.858 352.506 148.33 352.506 147.67C352.506 147.094 352.284 146.596 351.84 146.176C351.408 145.744 350.73 145.312 349.806 144.88C349.314 145.108 348.9 145.366 348.564 145.654C348.24 145.93 347.994 146.242 347.826 146.59C347.658 146.926 347.574 147.31 347.574 147.742C347.574 148.366 347.766 148.876 348.15 149.272C348.546 149.656 349.164 149.848 350.004 149.848ZM350.058 143.548C350.442 143.368 350.784 143.17 351.084 142.954C351.396 142.738 351.642 142.48 351.822 142.18C352.002 141.88 352.092 141.52 352.092 141.1C352.092 140.5 351.906 140.05 351.534 139.75C351.174 139.438 350.67 139.282 350.022 139.282C349.614 139.282 349.254 139.354 348.942 139.498C348.642 139.63 348.408 139.834 348.24 140.11C348.072 140.374 347.988 140.704 347.988 141.1C347.988 141.532 348.078 141.898 348.258 142.198C348.438 142.486 348.684 142.738 348.996 142.954C349.308 143.158 349.662 143.356 350.058 143.548ZM356.174 153.322C356.294 152.842 356.408 152.338 356.516 151.81C356.636 151.294 356.738 150.784 356.822 150.28C356.918 149.776 356.996 149.32 357.056 148.912H358.802L358.928 149.11C358.82 149.53 358.682 149.986 358.514 150.478C358.346 150.958 358.166 151.438 357.974 151.918C357.782 152.41 357.584 152.878 357.38 153.322H356.174ZM365.558 139.804H375.8V141.082H373.946V151H372.488V145.636H369.23V146.608C369.23 146.944 369.146 147.196 368.978 147.364C368.81 147.532 368.588 147.616 368.312 147.616C368.096 147.616 367.862 147.544 367.61 147.4C367.37 147.256 367.142 147.064 366.926 146.824C366.722 146.584 366.554 146.332 366.422 146.068C366.29 145.792 366.224 145.528 366.224 145.276C366.224 145 366.302 144.778 366.458 144.61C366.626 144.442 366.914 144.358 367.322 144.358H372.488V141.082H365.558V139.804ZM378.962 141.082V151H377.504V141.082H375.902V139.804H380.816V141.082H378.962ZM377.522 139.93C377.27 138.982 377.018 138.238 376.766 137.698C376.526 137.146 376.256 136.756 375.956 136.528C375.656 136.3 375.302 136.186 374.894 136.186C374.63 136.186 374.396 136.216 374.192 136.276C373.988 136.324 373.802 136.378 373.634 136.438L373.202 135.124C373.454 135.028 373.706 134.962 373.958 134.926C374.21 134.89 374.504 134.872 374.84 134.872C375.332 134.872 375.77 134.956 376.154 135.124C376.538 135.292 376.886 135.568 377.198 135.952C377.51 136.336 377.804 136.858 378.08 137.518C378.356 138.166 378.62 138.97 378.872 139.93H377.522ZM391.145 141.082H389.453V144.16C389.453 144.772 389.405 145.258 389.309 145.618C389.225 145.978 389.075 146.296 388.859 146.572C388.655 146.836 388.367 147.058 387.995 147.238C387.635 147.406 387.215 147.508 386.735 147.544L386.447 146.212C386.711 146.164 386.933 146.11 387.113 146.05C387.305 145.978 387.461 145.876 387.581 145.744C387.725 145.6 387.827 145.426 387.887 145.222C387.959 145.006 387.995 144.652 387.995 144.16V141.082H383.801V144.646C383.801 145.198 383.819 145.648 383.855 145.996C383.891 146.344 383.969 146.632 384.089 146.86C384.209 147.088 384.389 147.298 384.629 147.49C384.869 147.67 385.193 147.88 385.601 148.12L387.581 149.236C388.085 149.524 388.487 149.8 388.787 150.064C389.099 150.328 389.321 150.61 389.453 150.91C389.597 151.198 389.669 151.546 389.669 151.954C389.669 152.434 389.567 152.884 389.363 153.304C389.171 153.736 388.991 154.072 388.823 154.312L387.527 153.556C387.683 153.316 387.827 153.058 387.959 152.782C388.103 152.518 388.175 152.254 388.175 151.99C388.175 151.762 388.127 151.558 388.031 151.378C387.935 151.21 387.743 151.024 387.455 150.82C387.167 150.604 386.729 150.328 386.141 149.992L384.575 149.092C384.107 148.816 383.705 148.534 383.369 148.246C383.045 147.946 382.799 147.592 382.631 147.184C382.535 146.956 382.463 146.692 382.415 146.392C382.367 146.092 382.343 145.732 382.343 145.312V141.082H380.921V139.804H391.145V141.082ZM397.674 147.004C397.326 147.004 396.978 147.046 396.63 147.13C396.282 147.214 395.97 147.322 395.694 147.454C395.322 147.226 394.98 146.974 394.668 146.698C394.368 146.422 394.128 146.116 393.948 145.78C393.78 145.444 393.696 145.072 393.696 144.664C393.696 144.328 393.756 144.04 393.876 143.8C393.996 143.56 394.158 143.362 394.362 143.206C394.542 143.062 394.74 142.948 394.956 142.864C395.184 142.78 395.442 142.72 395.73 142.684C396.03 142.648 396.378 142.63 396.774 142.63H398.448V141.082H391.23V139.804H401.886V141.082H399.906V143.908H396.594C396.222 143.908 395.958 143.926 395.802 143.962C395.646 143.998 395.514 144.058 395.406 144.142C395.322 144.214 395.256 144.304 395.208 144.412C395.16 144.508 395.136 144.622 395.136 144.754C395.136 145.042 395.22 145.288 395.388 145.492C395.556 145.684 395.736 145.858 395.928 146.014C396.204 145.918 396.498 145.846 396.81 145.798C397.122 145.738 397.434 145.708 397.746 145.708C398.634 145.708 399.372 145.936 399.96 146.392C400.548 146.836 400.842 147.448 400.842 148.228C400.842 148.768 400.71 149.248 400.446 149.668C400.182 150.076 399.786 150.4 399.258 150.64C398.742 150.88 398.088 151 397.296 151C396.516 151 395.784 150.88 395.1 150.64C394.428 150.4 393.81 150.064 393.246 149.632C392.682 149.2 392.16 148.708 391.68 148.156L392.778 147.274C393.462 148.09 394.158 148.696 394.866 149.092C395.586 149.476 396.396 149.668 397.296 149.668C398.004 149.668 398.526 149.548 398.862 149.308C399.21 149.056 399.384 148.708 399.384 148.264C399.384 147.844 399.234 147.532 398.934 147.328C398.646 147.112 398.226 147.004 397.674 147.004ZM405.039 141.082V151H403.581V141.082H401.979V139.804H406.893V141.082H405.039Z" fill="white"/>
<g clip-path="url(#clip3_166_4786)">
<rect x="8" y="193" width="414" height="176" rx="6" fill="white"/>
<rect x="42.5" y="210" width="99" height="35" rx="17.5" fill="#EDEDF1"/>
<path d="M54.9893 221.804H65.3213V223.298H54.9893V221.804ZM60.6593 221.894C61.1033 221.93 61.5233 222.026 61.9193 222.182C62.3153 222.338 62.6633 222.542 62.9633 222.794C63.2753 223.046 63.5153 223.34 63.6833 223.676C63.8513 224 63.9353 224.354 63.9353 224.738C63.9353 225.638 63.5693 226.364 62.8373 226.916C62.1173 227.468 61.1033 227.768 59.7953 227.816L59.7053 226.358C60.5333 226.334 61.1513 226.196 61.5593 225.944C61.9793 225.692 62.1893 225.278 62.1893 224.702C62.1893 224.258 62.0393 223.886 61.7393 223.586C61.4393 223.286 61.0793 223.082 60.6593 222.974V221.894ZM62.2253 226.844C62.5493 227.096 62.8613 227.39 63.1613 227.726C63.4613 228.062 63.7073 228.44 63.8993 228.86C64.0913 229.268 64.1873 229.73 64.1873 230.246C64.1873 230.846 64.0493 231.356 63.7733 231.776C63.5093 232.184 63.1373 232.49 62.6573 232.694C62.1773 232.898 61.6253 233 61.0013 233C60.2813 233 59.6033 232.82 58.9673 232.46C58.3433 232.1 57.7373 231.506 57.1493 230.678C56.5733 229.85 56.0093 228.746 55.4573 227.366L56.9693 226.826C57.3293 227.774 57.7073 228.596 58.1033 229.292C58.4993 229.988 58.9253 230.522 59.3813 230.894C59.8373 231.266 60.3293 231.452 60.8573 231.452C61.1693 231.452 61.4393 231.41 61.6673 231.326C61.9073 231.23 62.0873 231.08 62.2073 230.876C62.3393 230.66 62.4053 230.384 62.4053 230.048C62.4053 229.496 62.2313 229.004 61.8833 228.572C61.5473 228.14 61.0673 227.726 60.4433 227.33L62.2253 226.844ZM71.0919 233.234C70.5399 232.766 70.0299 232.292 69.5619 231.812C69.0939 231.32 68.7219 230.81 68.4459 230.282C68.1699 229.754 68.0319 229.202 68.0319 228.626C68.0319 228.374 68.0739 228.14 68.1579 227.924C68.2419 227.696 68.3559 227.498 68.4999 227.33C68.6439 227.15 68.7879 227.012 68.9319 226.916L69.3819 227.204L65.7099 227.276V225.764H74.2779V223.298H65.0439V221.804H77.8419V223.298H76.0239V233H74.2779V227.258H72.3339C71.7339 227.258 71.2779 227.294 70.9659 227.366C70.6539 227.426 70.3899 227.552 70.1739 227.744C70.0419 227.864 69.9399 228.008 69.8679 228.176C69.7959 228.344 69.7599 228.554 69.7599 228.806C69.7599 229.166 69.8559 229.52 70.0479 229.868C70.2399 230.204 70.5159 230.558 70.8759 230.93C71.2479 231.29 71.7039 231.686 72.2439 232.118L71.0919 233.234ZM83.0131 223.298L83.4271 222.884C83.5591 223.088 83.6671 223.352 83.7511 223.676C83.8351 223.988 83.8771 224.384 83.8771 224.864C83.8771 225.512 83.7391 226.064 83.4631 226.52C83.1991 226.976 82.8271 227.372 82.3471 227.708C81.8791 228.032 81.3271 228.314 80.6911 228.554L80.7451 228.356C81.0931 228.74 81.4831 229.148 81.9151 229.58C82.3591 230.012 82.8271 230.438 83.3191 230.858C83.8111 231.278 84.3031 231.686 84.7951 232.082L83.6611 233.234C82.9531 232.646 82.2871 232.058 81.6631 231.47C81.0391 230.882 80.4871 230.33 80.0071 229.814C79.5391 229.298 79.1671 228.854 78.8911 228.482C78.6271 228.122 78.4531 227.828 78.3691 227.6C78.2851 227.372 78.2431 227.156 78.2431 226.952C78.2431 226.7 78.3391 226.46 78.5311 226.232C78.7231 225.992 79.0411 225.872 79.4851 225.872C79.9531 225.872 80.3371 226.022 80.6371 226.322C80.9491 226.61 81.2251 227.018 81.4651 227.546L80.2951 226.898C80.9311 226.67 81.3991 226.37 81.6991 225.998C81.9991 225.614 82.1491 225.158 82.1491 224.63C82.1491 224.27 82.1011 223.928 82.0051 223.604C81.9211 223.28 81.8131 223.046 81.6811 222.902L82.4371 223.298H77.5771V221.804H85.3711V223.298H83.0131ZM98.6864 223.298V233H96.9404V228.95L97.3904 229.454C97.1024 229.646 96.8024 229.82 96.4904 229.976C96.1904 230.132 95.8664 230.258 95.5184 230.354C95.1824 230.438 94.7864 230.48 94.3304 230.48C93.8384 230.48 93.3944 230.396 92.9984 230.228C92.6024 230.06 92.2784 229.85 92.0264 229.598C91.8224 229.382 91.6544 229.148 91.5224 228.896C91.3904 228.632 91.2944 228.32 91.2344 227.96C91.1744 227.588 91.1444 227.144 91.1444 226.628V223.298H89.7764V221.804H100.504V223.298H98.6864ZM96.9404 223.298H92.8724V226.448C92.8724 226.904 92.8904 227.27 92.9264 227.546C92.9624 227.81 93.0164 228.02 93.0884 228.176C93.1604 228.332 93.2564 228.476 93.3764 228.608C93.5084 228.74 93.6764 228.836 93.8804 228.896C94.0844 228.956 94.3244 228.986 94.6004 228.986C94.9844 228.986 95.3444 228.914 95.6804 228.77C96.0164 228.614 96.3164 228.428 96.5804 228.212C96.8564 227.996 97.0724 227.78 97.2284 227.564L96.9404 228.644V223.298ZM105.779 216.872C106.979 216.872 108.095 217.004 109.127 217.268C110.171 217.52 111.131 217.874 112.007 218.33C112.883 218.786 113.681 219.32 114.401 219.932C115.133 220.544 115.787 221.21 116.363 221.93H114.365C113.201 220.778 111.923 219.902 110.531 219.302C109.151 218.69 107.705 218.384 106.193 218.384C105.125 218.384 104.309 218.546 103.745 218.87C103.181 219.194 102.899 219.674 102.899 220.31C102.899 220.646 102.959 220.952 103.079 221.228C103.211 221.492 103.355 221.726 103.511 221.93H101.729C101.561 221.63 101.423 221.324 101.315 221.012C101.219 220.7 101.171 220.352 101.171 219.968C101.171 219.008 101.579 218.252 102.395 217.7C103.211 217.148 104.339 216.872 105.779 216.872ZM101.783 223.298H100.235V221.804H105.347V223.298H103.529V233H101.783V223.298ZM114.699 233.504L115.113 233.972C114.873 234.164 114.621 234.332 114.357 234.476C114.093 234.62 113.811 234.728 113.511 234.8C113.223 234.872 112.893 234.908 112.521 234.908C111.981 234.908 111.489 234.8 111.045 234.584C110.613 234.368 110.265 234.05 110.001 233.63C109.737 233.21 109.605 232.706 109.605 232.118C109.605 232.034 109.605 231.95 109.605 231.866C109.617 231.77 109.629 231.68 109.641 231.596L110.253 231.776L107.859 233.432L106.905 232.082L112.089 229.04L112.809 230.354L112.269 230.696C111.897 230.924 111.639 231.158 111.495 231.398C111.351 231.626 111.279 231.896 111.279 232.208C111.279 232.664 111.417 232.982 111.693 233.162C111.969 233.354 112.257 233.45 112.557 233.45C113.133 233.45 113.613 233.3 113.997 233C114.381 232.712 114.723 232.358 115.023 231.938L114.699 233.126V227.816L115.185 228.626C114.597 228.602 113.979 228.542 113.331 228.446C112.683 228.338 112.053 228.2 111.441 228.032C110.829 227.864 110.259 227.672 109.731 227.456C109.239 227.78 108.717 228.11 108.165 228.446C107.625 228.77 107.055 229.1 106.455 229.436L105.483 228.068C105.987 227.828 106.467 227.588 106.923 227.348C107.391 227.108 107.835 226.874 108.255 226.646C107.655 226.214 107.229 225.782 106.977 225.35C106.725 224.918 106.599 224.468 106.599 224C106.599 223.568 106.713 223.172 106.941 222.812C107.181 222.452 107.523 222.164 107.967 221.948C108.423 221.732 108.963 221.624 109.587 221.624C110.451 221.624 111.153 221.84 111.693 222.272C112.233 222.704 112.503 223.28 112.503 224C112.503 224.504 112.377 224.954 112.125 225.35C111.885 225.746 111.549 226.118 111.117 226.466C111.657 226.646 112.287 226.79 113.007 226.898C113.727 227.006 114.489 227.066 115.293 227.078L114.699 227.834V223.298H113.601V221.804H118.245V223.298H116.427V235.682H114.699V233.504ZM109.605 225.854C110.001 225.59 110.301 225.314 110.505 225.026C110.709 224.726 110.811 224.414 110.811 224.09C110.811 223.718 110.697 223.442 110.469 223.262C110.241 223.082 109.941 222.992 109.569 222.992C109.221 222.992 108.921 223.088 108.669 223.28C108.417 223.472 108.291 223.76 108.291 224.144C108.291 224.42 108.387 224.708 108.579 225.008C108.771 225.308 109.113 225.59 109.605 225.854ZM127.457 223.298V233H125.711V228.662H121.931V229.22C121.931 229.652 121.835 229.964 121.643 230.156C121.451 230.336 121.217 230.426 120.941 230.426C120.701 230.426 120.449 230.348 120.185 230.192C119.921 230.036 119.669 229.838 119.429 229.598C119.201 229.358 119.015 229.1 118.871 228.824C118.727 228.548 118.655 228.284 118.655 228.032C118.655 227.792 118.733 227.588 118.889 227.42C119.057 227.252 119.363 227.168 119.807 227.168H120.185V223.298H117.989V221.804H129.257V223.298H127.457ZM125.711 223.298H121.931V227.168H125.711V223.298Z" fill="black"/>
<path d="M51.894 265.058C51.582 264.818 51.3 264.518 51.048 264.158C50.796 263.786 50.67 263.33 50.67 262.79C50.67 262.442 50.73 262.142 50.85 261.89C50.982 261.638 51.156 261.434 51.372 261.278C51.564 261.134 51.768 261.02 51.984 260.936C52.212 260.84 52.47 260.774 52.758 260.738C53.058 260.702 53.388 260.684 53.748 260.684H55.98V259.298H49.5V257.804H59.526V259.298H57.708V262.16H53.784C53.424 262.16 53.172 262.178 53.028 262.214C52.884 262.25 52.758 262.31 52.65 262.394C52.566 262.466 52.5 262.55 52.452 262.646C52.416 262.742 52.398 262.85 52.398 262.97C52.398 263.234 52.476 263.468 52.632 263.672C52.8 263.876 53.004 264.062 53.244 264.23L51.894 265.058ZM55.35 267.74C55.758 267.62 56.088 267.464 56.34 267.272C56.604 267.08 56.736 266.816 56.736 266.48C56.736 266.072 56.568 265.754 56.232 265.526C55.908 265.298 55.38 265.184 54.648 265.184C53.856 265.184 53.25 265.346 52.83 265.67C52.41 265.982 52.2 266.402 52.2 266.93C52.2 267.194 52.236 267.452 52.308 267.704C52.38 267.944 52.512 268.202 52.704 268.478C52.908 268.742 53.196 269.042 53.568 269.378C53.94 269.726 54.426 270.116 55.026 270.548L53.874 271.7C53.154 271.124 52.542 270.584 52.038 270.08C51.534 269.576 51.144 269.06 50.868 268.532C50.604 268.004 50.472 267.434 50.472 266.822C50.472 266.126 50.676 265.55 51.084 265.094C51.492 264.626 52.014 264.278 52.65 264.05C53.298 263.81 53.988 263.69 54.72 263.69C55.584 263.69 56.286 263.822 56.826 264.086C57.378 264.338 57.78 264.668 58.032 265.076C58.284 265.484 58.41 265.922 58.41 266.39C58.41 267.098 58.2 267.686 57.78 268.154C57.36 268.61 56.73 268.946 55.89 269.162L55.35 267.74ZM69.8034 259.298H67.9854V269H66.2574V265.472L66.6354 265.994C66.2514 266.27 65.8194 266.516 65.3394 266.732C64.8594 266.936 64.2534 267.038 63.5214 267.038C62.8494 267.038 62.2554 266.912 61.7394 266.66C61.2234 266.408 60.8094 266.054 60.4974 265.598C60.1974 265.142 60.0474 264.59 60.0474 263.942C60.0474 262.922 60.3954 262.13 61.0914 261.566C61.7874 261.002 62.7054 260.72 63.8454 260.72C64.0254 260.72 64.2354 260.732 64.4754 260.756C64.7154 260.768 64.9434 260.786 65.1594 260.81C65.3874 260.834 65.5614 260.864 65.6814 260.9L65.5734 262.412C65.3454 262.364 65.0934 262.322 64.8174 262.286C64.5534 262.25 64.2894 262.232 64.0254 262.232C63.3174 262.232 62.7654 262.382 62.3694 262.682C61.9854 262.97 61.7934 263.384 61.7934 263.924C61.7934 264.5 61.9674 264.92 62.3154 265.184C62.6754 265.436 63.1074 265.562 63.6114 265.562C64.0794 265.562 64.4934 265.484 64.8534 265.328C65.2134 265.172 65.5314 264.974 65.8074 264.734C66.0954 264.482 66.3474 264.23 66.5634 263.978L66.2574 265.094V259.298H59.2734V257.804H69.8034V259.298ZM72.8331 259.298V269H71.0871V259.298H69.5391V257.804H74.6511V259.298H72.8331ZM93.3588 259.298H87.5268V262.952L87.4368 262.664C87.7248 262.388 88.0488 262.178 88.4088 262.034C88.7808 261.878 89.1768 261.8 89.5968 261.8C90.3888 261.8 91.0368 262.058 91.5408 262.574C92.0568 263.078 92.3148 263.792 92.3148 264.716C92.3148 265.268 92.2188 265.862 92.0268 266.498C91.8468 267.122 91.5408 267.746 91.1088 268.37L89.5788 267.488C89.8788 267.116 90.1188 266.696 90.2988 266.228C90.4908 265.748 90.5868 265.274 90.5868 264.806C90.5868 264.278 90.4728 263.894 90.2448 263.654C90.0288 263.402 89.7288 263.276 89.3448 263.276C89.0328 263.276 88.7088 263.384 88.3728 263.6C88.0488 263.816 87.7308 264.122 87.4188 264.518L87.5268 264.104V269H85.7808V265.346L86.1408 265.85C85.9128 266.03 85.6548 266.216 85.3668 266.408C85.0788 266.588 84.7548 266.738 84.3948 266.858C84.0468 266.978 83.6388 267.038 83.1708 267.038C82.5828 267.038 82.0308 266.924 81.5148 266.696C81.0108 266.456 80.6028 266.102 80.2908 265.634C79.9788 265.166 79.8228 264.584 79.8228 263.888C79.8228 263.24 79.9788 262.682 80.2908 262.214C80.6028 261.734 81.0288 261.368 81.5688 261.116C82.1208 260.852 82.7568 260.72 83.4768 260.72C83.7648 260.72 84.0768 260.738 84.4128 260.774C84.7608 260.81 85.0308 260.852 85.2228 260.9L85.0788 262.412C84.8988 262.364 84.6708 262.322 84.3948 262.286C84.1188 262.25 83.8668 262.232 83.6388 262.232C82.9788 262.232 82.4688 262.376 82.1088 262.664C81.7488 262.952 81.5688 263.354 81.5688 263.87C81.5688 264.458 81.7428 264.89 82.0908 265.166C82.4388 265.43 82.8288 265.562 83.2608 265.562C83.8728 265.562 84.4068 265.4 84.8628 265.076C85.3308 264.74 85.7508 264.356 86.1228 263.924L85.7808 265.076V259.298H79.0488V257.804H93.3588V259.298ZM94.6418 259.298H93.0938V257.804H94.4438C93.6518 256.664 92.8177 255.812 91.9417 255.248C91.0537 254.672 90.1117 254.384 89.1157 254.384C88.3717 254.384 87.7897 254.546 87.3697 254.87C86.9497 255.182 86.7397 255.62 86.7397 256.184C86.7397 256.556 86.7997 256.886 86.9197 257.174C87.0397 257.45 87.1717 257.702 87.3157 257.93H85.5697C85.4017 257.606 85.2637 257.282 85.1557 256.958C85.0477 256.634 84.9937 256.286 84.9937 255.914C84.9937 254.99 85.3357 254.252 86.0197 253.7C86.6917 253.148 87.6217 252.872 88.8097 252.872C89.6497 252.872 90.4297 252.992 91.1497 253.232C91.8697 253.46 92.5297 253.79 93.1298 254.222C93.7418 254.654 94.3118 255.176 94.8398 255.788C95.3678 256.388 95.8538 257.06 96.2978 257.804H98.2058V259.298H96.3878V269H94.6418V259.298ZM107.194 252.872C107.998 252.872 108.736 252.992 109.408 253.232C110.08 253.46 110.698 253.796 111.262 254.24C111.838 254.684 112.366 255.218 112.846 255.842C113.338 256.466 113.794 257.162 114.214 257.93H112.432C111.7 256.742 110.926 255.854 110.11 255.266C109.294 254.666 108.412 254.366 107.464 254.366C106.816 254.366 106.288 254.522 105.88 254.834C105.472 255.146 105.268 255.578 105.268 256.13C105.268 256.502 105.328 256.832 105.448 257.12C105.568 257.408 105.706 257.678 105.862 257.93H104.116C103.924 257.594 103.78 257.258 103.684 256.922C103.588 256.586 103.54 256.232 103.54 255.86C103.54 255.26 103.684 254.738 103.972 254.294C104.272 253.838 104.692 253.49 105.232 253.25C105.784 252.998 106.438 252.872 107.194 252.872ZM104.152 259.298H102.604V257.804H107.716V259.298H105.898V269H104.152V259.298ZM114.944 270.098C114.752 269.774 114.56 269.444 114.368 269.108C114.188 268.772 114.026 268.454 113.882 268.154C113.738 267.854 113.618 267.602 113.522 267.398L113.27 266.642C113.21 266.534 113.156 266.384 113.108 266.192C113.06 266 113.036 265.844 113.036 265.724C113.036 265.304 113.174 265.004 113.45 264.824C113.726 264.644 114.026 264.554 114.35 264.554C114.902 264.554 115.322 264.71 115.61 265.022C115.898 265.322 116.042 265.664 116.042 266.048C116.042 266.384 115.976 266.654 115.844 266.858C115.712 267.062 115.538 267.224 115.322 267.344C115.106 267.452 114.866 267.542 114.602 267.614L114.098 267.65C113.93 267.698 113.72 267.734 113.468 267.758C113.216 267.782 112.946 267.794 112.658 267.794C112.13 267.794 111.602 267.734 111.074 267.614C110.558 267.482 110.084 267.278 109.652 267.002C109.22 266.714 108.872 266.336 108.608 265.868C108.344 265.388 108.212 264.806 108.212 264.122C108.212 263.594 108.308 263.138 108.5 262.754C108.692 262.37 108.944 262.046 109.256 261.782C109.664 261.434 110.162 261.182 110.75 261.026C111.35 260.87 112.016 260.792 112.748 260.792H113.288L112.64 261.35V259.298H107.438V257.804H117.248V259.298H114.368V262.286H113.486C112.79 262.286 112.232 262.328 111.812 262.412C111.404 262.484 111.056 262.604 110.768 262.772C110.504 262.94 110.3 263.15 110.156 263.402C110.012 263.654 109.94 263.954 109.94 264.302C109.94 264.878 110.162 265.358 110.606 265.742C111.05 266.114 111.752 266.3 112.712 266.3C112.832 266.3 112.958 266.3 113.09 266.3C113.222 266.288 113.42 266.252 113.684 266.192L114.908 267.074C115.076 267.41 115.274 267.764 115.502 268.136C115.73 268.508 116.024 268.934 116.384 269.414L114.944 270.098ZM128.052 259.298V269H126.324V259.298H124.794V257.804H129.87V259.298H128.052ZM119.268 265.814C118.836 265.814 118.464 265.706 118.152 265.49C117.852 265.262 117.702 264.938 117.702 264.518C117.702 264.146 117.816 263.864 118.044 263.672C118.272 263.468 118.578 263.366 118.962 263.366C119.238 263.366 119.532 263.438 119.844 263.582C120.156 263.714 120.546 263.978 121.014 264.374L121.248 264.626C121.668 264.938 122.076 265.292 122.472 265.688C122.868 266.084 123.246 266.492 123.606 266.912C123.966 267.332 124.29 267.74 124.578 268.136L123.246 269.054C122.502 268.034 121.836 267.218 121.248 266.606C120.672 265.982 120.132 265.484 119.628 265.112L119.484 264.212C120.048 264.2 120.552 264.074 120.996 263.834C121.452 263.582 121.812 263.228 122.076 262.772C122.352 262.304 122.49 261.746 122.49 261.098C122.49 260.438 122.322 259.922 121.986 259.55C121.662 259.166 121.242 258.974 120.726 258.974C120.39 258.974 120.138 259.052 119.97 259.208C119.802 259.352 119.718 259.556 119.718 259.82C119.718 259.952 119.742 260.09 119.79 260.234C119.85 260.366 119.958 260.498 120.114 260.63C120.27 260.75 120.492 260.852 120.78 260.936C121.068 261.02 121.446 261.068 121.914 261.08L121.536 262.448C120.384 262.364 119.526 262.076 118.962 261.584C118.41 261.08 118.134 260.48 118.134 259.784C118.134 259.148 118.356 258.632 118.8 258.236C119.256 257.828 119.91 257.624 120.762 257.624C121.362 257.624 121.92 257.756 122.436 258.02C122.964 258.272 123.39 258.662 123.714 259.19C124.038 259.706 124.2 260.36 124.2 261.152C124.2 261.992 123.996 262.766 123.588 263.474C123.18 264.182 122.604 264.752 121.86 265.184C121.128 265.604 120.264 265.814 119.268 265.814ZM132.915 259.298V269H131.169V259.298H129.621V257.804H134.733V259.298H132.915Z" fill="#24252D"/>
<rect x="187" y="210" width="78" height="35" rx="17.5" fill="#4CC3CB"/>
<path d="M221.652 223.298H219.834V233H218.088V229.778L218.376 230.264C218.076 230.444 217.776 230.612 217.476 230.768C217.188 230.912 216.864 231.026 216.504 231.11C216.144 231.194 215.712 231.236 215.208 231.236C214.224 231.236 213.438 230.99 212.85 230.498C212.262 230.006 211.968 229.352 211.968 228.536C211.968 228.14 212.046 227.762 212.202 227.402C212.37 227.042 212.634 226.736 212.994 226.484C213.018 226.46 213.042 226.424 213.066 226.376C213.09 226.316 213.126 226.274 213.174 226.25C213.462 226.058 213.786 225.92 214.146 225.836C214.506 225.752 214.878 225.71 215.262 225.71C215.406 225.71 215.562 225.716 215.73 225.728C215.898 225.74 216.024 225.758 216.108 225.782L215.982 227.204C215.91 227.192 215.826 227.186 215.73 227.186C215.634 227.186 215.55 227.186 215.478 227.186C215.106 227.186 214.788 227.234 214.524 227.33C214.26 227.426 214.056 227.57 213.912 227.762C213.768 227.954 213.696 228.188 213.696 228.464C213.696 228.908 213.852 229.238 214.164 229.454C214.488 229.658 214.89 229.76 215.37 229.76C216.078 229.76 216.66 229.604 217.116 229.292C217.584 228.968 217.974 228.614 218.286 228.23L218.088 229.238V223.298H217.008V221.804H221.652V223.298ZM214.11 227.24C213.498 227.168 212.928 227.012 212.4 226.772C211.884 226.532 211.47 226.196 211.158 225.764C210.846 225.332 210.69 224.798 210.69 224.162C210.69 223.67 210.804 223.232 211.032 222.848C211.272 222.464 211.596 222.164 212.004 221.948C212.424 221.732 212.892 221.624 213.408 221.624C214.104 221.624 214.668 221.798 215.1 222.146C215.544 222.494 215.766 222.944 215.766 223.496C215.766 223.796 215.706 224.084 215.586 224.36C215.466 224.624 215.28 224.882 215.028 225.134L213.858 224.378C213.978 224.27 214.062 224.156 214.11 224.036C214.158 223.904 214.182 223.778 214.182 223.658C214.182 223.466 214.122 223.298 214.002 223.154C213.882 223.01 213.684 222.938 213.408 222.938C213.084 222.938 212.808 223.058 212.58 223.298C212.352 223.526 212.238 223.838 212.238 224.234C212.238 224.63 212.34 224.942 212.544 225.17C212.76 225.398 213.024 225.566 213.336 225.674C213.66 225.782 213.99 225.848 214.326 225.872L214.11 227.24ZM217.813 221.93C217.609 221.51 217.459 221.114 217.363 220.742C217.255 220.37 217.201 219.992 217.201 219.608C217.201 218.792 217.471 218.132 218.011 217.628C218.539 217.124 219.277 216.872 220.225 216.872C220.825 216.872 221.341 216.98 221.773 217.196C222.217 217.4 222.607 217.712 222.943 218.132C223.279 218.54 223.573 219.05 223.825 219.662C224.077 220.274 224.311 220.988 224.527 221.804H226.489V223.298H224.671V233H222.925V223.298H221.377V221.804H222.925C222.721 221.024 222.499 220.382 222.259 219.878C222.019 219.362 221.749 218.984 221.449 218.744C221.149 218.492 220.783 218.366 220.351 218.366C219.883 218.366 219.535 218.504 219.307 218.78C219.067 219.056 218.947 219.428 218.947 219.896C218.947 220.292 219.001 220.652 219.109 220.976C219.217 221.288 219.349 221.606 219.505 221.93H217.813ZM235.679 223.298V233H233.933V228.662H230.153V229.22C230.153 229.652 230.057 229.964 229.865 230.156C229.673 230.336 229.439 230.426 229.163 230.426C228.923 230.426 228.671 230.348 228.407 230.192C228.143 230.036 227.891 229.838 227.651 229.598C227.423 229.358 227.237 229.1 227.093 228.824C226.949 228.548 226.877 228.284 226.877 228.032C226.877 227.792 226.955 227.588 227.111 227.42C227.279 227.252 227.585 227.168 228.029 227.168H228.407V223.298H226.211V221.804H237.479V223.298H235.679ZM233.933 223.298H230.153V227.168H233.933V223.298ZM233.668 221.93C233.464 221.51 233.314 221.114 233.218 220.742C233.11 220.37 233.056 219.992 233.056 219.608C233.056 218.792 233.326 218.132 233.866 217.628C234.394 217.124 235.132 216.872 236.08 216.872C236.68 216.872 237.196 216.98 237.628 217.196C238.072 217.4 238.462 217.712 238.798 218.132C239.134 218.54 239.428 219.05 239.68 219.662C239.932 220.274 240.166 220.988 240.382 221.804H242.344V223.298H240.526V233H238.78V223.298H237.232V221.804H238.78C238.576 221.024 238.354 220.382 238.114 219.878C237.874 219.362 237.604 218.984 237.304 218.744C237.004 218.492 236.638 218.366 236.206 218.366C235.738 218.366 235.39 218.504 235.162 218.78C234.922 219.056 234.802 219.428 234.802 219.896C234.802 220.292 234.856 220.652 234.964 220.976C235.072 221.288 235.204 221.606 235.36 221.93H233.668Z" fill="white"/>
<path d="M188.894 265.058C188.582 264.818 188.3 264.518 188.048 264.158C187.796 263.786 187.67 263.33 187.67 262.79C187.67 262.442 187.73 262.142 187.85 261.89C187.982 261.638 188.156 261.434 188.372 261.278C188.564 261.134 188.768 261.02 188.984 260.936C189.212 260.84 189.47 260.774 189.758 260.738C190.058 260.702 190.388 260.684 190.748 260.684H192.98V259.298H186.5V257.804H196.526V259.298H194.708V262.16H190.784C190.424 262.16 190.172 262.178 190.028 262.214C189.884 262.25 189.758 262.31 189.65 262.394C189.566 262.466 189.5 262.55 189.452 262.646C189.416 262.742 189.398 262.85 189.398 262.97C189.398 263.234 189.476 263.468 189.632 263.672C189.8 263.876 190.004 264.062 190.244 264.23L188.894 265.058ZM192.35 267.74C192.758 267.62 193.088 267.464 193.34 267.272C193.604 267.08 193.736 266.816 193.736 266.48C193.736 266.072 193.568 265.754 193.232 265.526C192.908 265.298 192.38 265.184 191.648 265.184C190.856 265.184 190.25 265.346 189.83 265.67C189.41 265.982 189.2 266.402 189.2 266.93C189.2 267.194 189.236 267.452 189.308 267.704C189.38 267.944 189.512 268.202 189.704 268.478C189.908 268.742 190.196 269.042 190.568 269.378C190.94 269.726 191.426 270.116 192.026 270.548L190.874 271.7C190.154 271.124 189.542 270.584 189.038 270.08C188.534 269.576 188.144 269.06 187.868 268.532C187.604 268.004 187.472 267.434 187.472 266.822C187.472 266.126 187.676 265.55 188.084 265.094C188.492 264.626 189.014 264.278 189.65 264.05C190.298 263.81 190.988 263.69 191.72 263.69C192.584 263.69 193.286 263.822 193.826 264.086C194.378 264.338 194.78 264.668 195.032 265.076C195.284 265.484 195.41 265.922 195.41 266.39C195.41 267.098 195.2 267.686 194.78 268.154C194.36 268.61 193.73 268.946 192.89 269.162L192.35 267.74ZM206.803 259.298H204.985V269H203.257V265.472L203.635 265.994C203.251 266.27 202.819 266.516 202.339 266.732C201.859 266.936 201.253 267.038 200.521 267.038C199.849 267.038 199.255 266.912 198.739 266.66C198.223 266.408 197.809 266.054 197.497 265.598C197.197 265.142 197.047 264.59 197.047 263.942C197.047 262.922 197.395 262.13 198.091 261.566C198.787 261.002 199.705 260.72 200.845 260.72C201.025 260.72 201.235 260.732 201.475 260.756C201.715 260.768 201.943 260.786 202.159 260.81C202.387 260.834 202.561 260.864 202.681 260.9L202.573 262.412C202.345 262.364 202.093 262.322 201.817 262.286C201.553 262.25 201.289 262.232 201.025 262.232C200.317 262.232 199.765 262.382 199.369 262.682C198.985 262.97 198.793 263.384 198.793 263.924C198.793 264.5 198.967 264.92 199.315 265.184C199.675 265.436 200.107 265.562 200.611 265.562C201.079 265.562 201.493 265.484 201.853 265.328C202.213 265.172 202.531 264.974 202.807 264.734C203.095 264.482 203.347 264.23 203.563 263.978L203.257 265.094V259.298H196.273V257.804H206.803V259.298ZM209.833 259.298V269H208.087V259.298H206.539V257.804H211.651V259.298H209.833ZM230.359 259.298H224.527V262.952L224.437 262.664C224.725 262.388 225.049 262.178 225.409 262.034C225.781 261.878 226.177 261.8 226.597 261.8C227.389 261.8 228.037 262.058 228.541 262.574C229.057 263.078 229.315 263.792 229.315 264.716C229.315 265.268 229.219 265.862 229.027 266.498C228.847 267.122 228.541 267.746 228.109 268.37L226.579 267.488C226.879 267.116 227.119 266.696 227.299 266.228C227.491 265.748 227.587 265.274 227.587 264.806C227.587 264.278 227.473 263.894 227.245 263.654C227.029 263.402 226.729 263.276 226.345 263.276C226.033 263.276 225.709 263.384 225.373 263.6C225.049 263.816 224.731 264.122 224.419 264.518L224.527 264.104V269H222.781V265.346L223.141 265.85C222.913 266.03 222.655 266.216 222.367 266.408C222.079 266.588 221.755 266.738 221.395 266.858C221.047 266.978 220.639 267.038 220.171 267.038C219.583 267.038 219.031 266.924 218.515 266.696C218.011 266.456 217.603 266.102 217.291 265.634C216.979 265.166 216.823 264.584 216.823 263.888C216.823 263.24 216.979 262.682 217.291 262.214C217.603 261.734 218.029 261.368 218.569 261.116C219.121 260.852 219.757 260.72 220.477 260.72C220.765 260.72 221.077 260.738 221.413 260.774C221.761 260.81 222.031 260.852 222.223 260.9L222.079 262.412C221.899 262.364 221.671 262.322 221.395 262.286C221.119 262.25 220.867 262.232 220.639 262.232C219.979 262.232 219.469 262.376 219.109 262.664C218.749 262.952 218.569 263.354 218.569 263.87C218.569 264.458 218.743 264.89 219.091 265.166C219.439 265.43 219.829 265.562 220.261 265.562C220.873 265.562 221.407 265.4 221.863 265.076C222.331 264.74 222.751 264.356 223.123 263.924L222.781 265.076V259.298H216.049V257.804H230.359V259.298ZM231.642 259.298H230.094V257.804H231.444C230.652 256.664 229.818 255.812 228.942 255.248C228.054 254.672 227.112 254.384 226.116 254.384C225.372 254.384 224.79 254.546 224.37 254.87C223.95 255.182 223.74 255.62 223.74 256.184C223.74 256.556 223.8 256.886 223.92 257.174C224.04 257.45 224.172 257.702 224.316 257.93H222.57C222.402 257.606 222.264 257.282 222.156 256.958C222.048 256.634 221.994 256.286 221.994 255.914C221.994 254.99 222.336 254.252 223.02 253.7C223.692 253.148 224.622 252.872 225.81 252.872C226.65 252.872 227.43 252.992 228.15 253.232C228.87 253.46 229.53 253.79 230.13 254.222C230.742 254.654 231.312 255.176 231.84 255.788C232.368 256.388 232.854 257.06 233.298 257.804H235.206V259.298H233.388V269H231.642V259.298ZM243.546 259.298V264.824C243.546 265.184 243.462 265.46 243.294 265.652C243.126 265.844 242.892 265.94 242.592 265.94C242.34 265.94 242.082 265.868 241.818 265.724C241.554 265.568 241.302 265.37 241.062 265.13C240.834 264.878 240.648 264.614 240.504 264.338C240.36 264.05 240.288 263.78 240.288 263.528C240.288 263.24 240.366 263 240.522 262.808C240.69 262.616 240.996 262.52 241.44 262.52H241.818V259.298H239.604V257.804H250.26V259.298H248.442V269H246.696V259.298H243.546ZM254.942 252.872C255.83 252.872 256.664 252.998 257.444 253.25C258.224 253.49 258.956 253.838 259.64 254.294C260.324 254.738 260.954 255.272 261.53 255.896C262.118 256.508 262.664 257.186 263.168 257.93H261.296C260.684 257.138 260.054 256.484 259.406 255.968C258.758 255.44 258.086 255.044 257.39 254.78C256.706 254.516 255.992 254.384 255.248 254.384C254.432 254.384 253.796 254.552 253.34 254.888C252.884 255.212 252.656 255.662 252.656 256.238C252.656 256.598 252.716 256.922 252.836 257.21C252.968 257.486 253.106 257.726 253.25 257.93H251.486C251.318 257.63 251.18 257.324 251.072 257.012C250.976 256.688 250.928 256.34 250.928 255.968C250.928 255.344 251.09 254.804 251.414 254.348C251.738 253.88 252.2 253.52 252.8 253.268C253.4 253.004 254.114 252.872 254.942 252.872ZM251.54 259.298H249.992V257.804H255.104V259.298H253.286V269H251.54V259.298ZM263.826 259.298V269H262.08V263.258H260.208C259.5 263.258 258.966 263.294 258.606 263.366C258.258 263.426 257.976 263.552 257.76 263.744C257.616 263.864 257.508 264.008 257.436 264.176C257.376 264.344 257.346 264.554 257.346 264.806C257.346 265.166 257.436 265.52 257.616 265.868C257.808 266.204 258.09 266.558 258.462 266.93C258.834 267.29 259.29 267.686 259.83 268.118L258.678 269.234C258.126 268.766 257.616 268.292 257.148 267.812C256.68 267.32 256.302 266.81 256.014 266.282C255.738 265.754 255.6 265.202 255.6 264.626C255.6 264.206 255.678 263.828 255.834 263.492C256.002 263.144 256.212 262.862 256.464 262.646C256.692 262.43 256.95 262.262 257.238 262.142C257.538 262.01 257.892 261.914 258.3 261.854C258.708 261.794 259.194 261.764 259.758 261.764H262.08V259.298H254.826V257.804H265.626V259.298H263.826Z" fill="#24252D"/>
<rect x="310.5" y="210" width="77" height="35" rx="17.5" fill="#101860"/>
<path d="M329.418 221.804H340.146V223.298H329.418V221.804ZM339.876 226.556H337.68C337.356 226.556 337.092 226.55 336.888 226.538C336.696 226.526 336.54 226.502 336.42 226.466L336.042 226.052C336.606 226.412 337.062 226.862 337.41 227.402C337.758 227.93 337.932 228.506 337.932 229.13C337.932 229.694 337.806 230.168 337.554 230.552C337.302 230.924 336.966 231.206 336.546 231.398C336.126 231.578 335.664 231.668 335.16 231.668C334.656 231.668 334.17 231.572 333.702 231.38C333.246 231.176 332.796 230.852 332.352 230.408C331.92 229.964 331.5 229.37 331.092 228.626C330.696 227.882 330.306 226.964 329.922 225.872L331.416 225.332C331.788 226.376 332.16 227.258 332.532 227.978C332.916 228.698 333.312 229.238 333.72 229.598C334.128 229.958 334.566 230.138 335.034 230.138C335.394 230.138 335.682 230.048 335.898 229.868C336.114 229.676 336.222 229.364 336.222 228.932C336.222 228.44 336.048 227.972 335.7 227.528C335.352 227.084 334.908 226.7 334.368 226.376L334.962 225.062H339.876V226.556ZM333.468 234.098C333.468 233.786 333.576 233.516 333.792 233.288C334.008 233.072 334.26 232.964 334.548 232.964C334.86 232.964 335.118 233.072 335.322 233.288C335.538 233.516 335.646 233.786 335.646 234.098C335.646 234.422 335.538 234.692 335.322 234.908C335.118 235.124 334.86 235.232 334.548 235.232C334.26 235.232 334.008 235.124 333.792 234.908C333.576 234.692 333.468 234.422 333.468 234.098ZM349.627 221.804V223.298H347.809V233H346.063V229.166L346.441 229.67C346.201 229.862 345.919 230.048 345.595 230.228C345.283 230.396 344.929 230.528 344.533 230.624C344.149 230.72 343.723 230.768 343.255 230.768C342.511 230.768 341.857 230.594 341.293 230.246C340.741 229.898 340.297 229.418 339.961 228.806C339.625 228.194 339.391 227.486 339.259 226.682C339.991 226.538 340.531 226.328 340.879 226.052C341.239 225.764 341.419 225.362 341.419 224.846C341.419 224.438 341.323 224.072 341.131 223.748C340.939 223.424 340.747 223.16 340.555 222.956L341.599 223.298H338.629V221.804H349.627ZM341.851 223.298L342.355 222.83C342.595 223.178 342.787 223.55 342.931 223.946C343.075 224.33 343.147 224.726 343.147 225.134C343.147 225.734 342.979 226.25 342.643 226.682C342.319 227.102 341.833 227.426 341.185 227.654C341.413 228.182 341.701 228.584 342.049 228.86C342.397 229.136 342.847 229.274 343.399 229.274C344.059 229.274 344.641 229.112 345.145 228.788C345.649 228.452 346.063 228.044 346.387 227.564L346.063 228.752V223.298H341.851ZM352.646 223.298V233H350.9V223.298H349.352V221.804H354.464V223.298H352.646ZM361.692 234.098C361.5 233.774 361.308 233.444 361.116 233.108C360.936 232.772 360.774 232.454 360.63 232.154C360.486 231.854 360.366 231.602 360.27 231.398L360.018 230.642C359.958 230.534 359.904 230.384 359.856 230.192C359.808 230 359.784 229.844 359.784 229.724C359.784 229.304 359.922 229.004 360.198 228.824C360.474 228.644 360.774 228.554 361.098 228.554C361.65 228.554 362.07 228.71 362.358 229.022C362.646 229.322 362.79 229.664 362.79 230.048C362.79 230.384 362.724 230.654 362.592 230.858C362.46 231.062 362.286 231.224 362.07 231.344C361.854 231.452 361.614 231.542 361.35 231.614L360.846 231.65C360.678 231.698 360.468 231.734 360.216 231.758C359.964 231.782 359.694 231.794 359.406 231.794C358.878 231.794 358.35 231.734 357.822 231.614C357.306 231.482 356.832 231.278 356.4 231.002C355.968 230.714 355.62 230.336 355.356 229.868C355.092 229.388 354.96 228.806 354.96 228.122C354.96 227.594 355.056 227.138 355.248 226.754C355.44 226.37 355.692 226.046 356.004 225.782C356.412 225.434 356.91 225.182 357.498 225.026C358.098 224.87 358.764 224.792 359.496 224.792H360.036L359.388 225.35V223.298H354.186V221.804H363.996V223.298H361.116V226.286H360.234C359.538 226.286 358.98 226.328 358.56 226.412C358.152 226.484 357.804 226.604 357.516 226.772C357.252 226.94 357.048 227.15 356.904 227.402C356.76 227.654 356.688 227.954 356.688 228.302C356.688 228.878 356.91 229.358 357.354 229.742C357.798 230.114 358.5 230.3 359.46 230.3C359.58 230.3 359.706 230.3 359.838 230.3C359.97 230.288 360.168 230.252 360.432 230.192L361.656 231.074C361.824 231.41 362.022 231.764 362.25 232.136C362.478 232.508 362.772 232.934 363.132 233.414L361.692 234.098ZM367.042 223.298V233H365.296V223.298H363.748V221.804H368.86V223.298H367.042Z" fill="white"/>
<path d="M335.5 257.804H346.084V259.298H344.266V269H342.538V263.816H339.388V264.626C339.388 265.01 339.298 265.292 339.118 265.472C338.95 265.652 338.71 265.742 338.398 265.742C338.158 265.742 337.906 265.67 337.642 265.526C337.378 265.37 337.132 265.172 336.904 264.932C336.676 264.68 336.49 264.416 336.346 264.14C336.202 263.852 336.13 263.582 336.13 263.33C336.13 263.042 336.208 262.802 336.364 262.61C336.532 262.418 336.838 262.322 337.282 262.322H342.538V259.298H335.5V257.804ZM355.304 259.298V269H353.558V264.662H349.778V265.22C349.778 265.652 349.682 265.964 349.49 266.156C349.298 266.336 349.064 266.426 348.788 266.426C348.548 266.426 348.296 266.348 348.032 266.192C347.768 266.036 347.516 265.838 347.276 265.598C347.048 265.358 346.862 265.1 346.718 264.824C346.574 264.548 346.502 264.284 346.502 264.032C346.502 263.792 346.58 263.588 346.736 263.42C346.904 263.252 347.21 263.168 347.654 263.168H348.032V259.298H345.836V257.804H357.104V259.298H355.304ZM353.558 259.298H349.778V263.168H353.558V259.298ZM353.293 257.93C353.089 257.51 352.939 257.114 352.843 256.742C352.735 256.37 352.681 255.992 352.681 255.608C352.681 254.792 352.951 254.132 353.491 253.628C354.019 253.124 354.757 252.872 355.705 252.872C356.305 252.872 356.821 252.98 357.253 253.196C357.697 253.4 358.087 253.712 358.423 254.132C358.759 254.54 359.053 255.05 359.305 255.662C359.557 256.274 359.791 256.988 360.007 257.804H361.969V259.298H360.151V269H358.405V259.298H356.857V257.804H358.405C358.201 257.024 357.979 256.382 357.739 255.878C357.499 255.362 357.229 254.984 356.929 254.744C356.629 254.492 356.263 254.366 355.831 254.366C355.363 254.366 355.015 254.504 354.787 254.78C354.547 255.056 354.427 255.428 354.427 255.896C354.427 256.292 354.481 256.652 354.589 256.976C354.697 257.288 354.829 257.606 354.985 257.93H353.293Z" fill="#24252D"/>
<g filter="url(#filter0_d_166_4786)">
<g filter="url(#filter1_f_166_4786)">
<rect x="82.4258" y="331" width="265.148" height="14" fill="#EDEDF1"/>
<rect x="82.9258" y="331.5" width="264.148" height="13" stroke="#F6F7F9"/>
</g>
<rect x="61.5" y="292.5" width="307" height="59" rx="5.5" fill="#EDEDF1"/>
<rect x="61.5" y="292.5" width="307" height="59" rx="5.5" stroke="#F6F7F9"/>
<path d="M120.16 316.264H117.964V328H116.074V320.692H113.05V322.06C113.05 323.176 112.72 324.082 112.06 324.778C111.4 325.462 110.506 325.804 109.378 325.804C108.226 325.804 107.326 325.462 106.678 324.778C106.042 324.094 105.724 323.188 105.724 322.06V319.072H107.632V322.024C107.632 322.672 107.788 323.188 108.1 323.572C108.412 323.956 108.844 324.148 109.396 324.148C109.96 324.148 110.404 323.956 110.728 323.572C111.052 323.188 111.214 322.672 111.214 322.024V319.072H116.074V316.264H104.068V314.68H120.16V316.264ZM121.487 328V316.264H119.291V314.68H125.573V316.264H123.377V328H121.487ZM134.659 309.82C137.263 309.82 139.231 310.258 140.563 311.134C141.907 311.998 142.579 313.246 142.579 314.878V315.184H140.725V314.932C140.725 312.556 138.697 311.368 134.641 311.368C132.697 311.368 131.239 311.62 130.267 312.124C129.307 312.628 128.809 313.48 128.773 314.68H130.987V316.264H128.791V328H126.901V316.264H124.705V314.68H126.901C126.949 313.036 127.615 311.818 128.899 311.026C130.183 310.222 132.103 309.82 134.659 309.82ZM145.365 316.264H143.169V328H141.279V320.548H138.147C138.687 321.172 138.957 321.922 138.957 322.798C138.957 323.482 138.801 324.082 138.489 324.598C138.177 325.102 137.745 325.486 137.193 325.75C136.653 326.014 136.047 326.146 135.375 326.146C134.679 326.146 134.043 326.002 133.467 325.714C132.891 325.414 132.435 324.994 132.099 324.454C131.775 323.914 131.613 323.284 131.613 322.564C131.613 321.808 131.781 321.16 132.117 320.62C132.465 320.08 132.933 319.672 133.521 319.396C134.121 319.108 134.793 318.964 135.537 318.964H141.279V316.264H130.119V314.68H145.365V316.264ZM135.411 324.544C136.011 324.544 136.497 324.358 136.869 323.986C137.253 323.614 137.445 323.134 137.445 322.546C137.445 321.97 137.253 321.496 136.869 321.124C136.485 320.74 135.999 320.548 135.411 320.548C134.799 320.548 134.295 320.74 133.899 321.124C133.515 321.496 133.323 321.976 133.323 322.564C133.323 323.152 133.515 323.632 133.899 324.004C134.283 324.364 134.787 324.544 135.411 324.544ZM151.338 320.134C151.422 320.146 151.548 320.152 151.716 320.152C152.292 320.152 152.712 319.99 152.976 319.666C153.24 319.33 153.372 318.808 153.372 318.1V316.264H148.548V323.158C148.548 324.07 148.764 324.778 149.196 325.282C149.628 325.786 150.246 326.038 151.05 326.038C151.794 326.038 152.376 325.822 152.796 325.39C153.216 324.946 153.426 324.334 153.426 323.554H155.28C155.28 324.838 154.902 325.846 154.146 326.578C153.402 327.298 152.382 327.658 151.086 327.658C149.634 327.658 148.536 327.25 147.792 326.434C147.048 325.618 146.676 324.508 146.676 323.104L146.658 316.264H144.498V314.68H157.098V316.264H155.208V318.154C155.208 319.402 154.968 320.338 154.488 320.962C154.008 321.574 153.222 321.88 152.13 321.88C151.89 321.88 151.626 321.862 151.338 321.826V320.134ZM176.216 316.264H174.02V328H172.13V321.322H169.124V322.564C169.124 323.788 168.824 324.736 168.224 325.408C167.636 326.068 166.784 326.398 165.668 326.398C164.612 326.398 163.766 326.092 163.13 325.48C162.494 324.868 162.176 324.064 162.176 323.068C162.176 322.024 162.512 321.214 163.184 320.638C163.868 320.062 164.744 319.774 165.812 319.774H167.36V316.264H160.916V314.68H176.216V316.264ZM172.13 316.264H169.124V319.774H172.13V316.264ZM167.36 321.322H165.866C165.29 321.322 164.822 321.478 164.462 321.79C164.102 322.102 163.922 322.528 163.922 323.068C163.922 323.596 164.084 324.016 164.408 324.328C164.732 324.64 165.146 324.796 165.65 324.796C166.19 324.796 166.61 324.61 166.91 324.238C167.21 323.854 167.36 323.326 167.36 322.654V321.322ZM181.647 314.68V316.264H179.451V328H177.561V316.264H175.365V314.68H177.687C176.979 314.152 176.445 313.786 176.085 313.582C175.725 313.378 175.377 313.252 175.041 313.204C174.693 313.144 174.171 313.114 173.475 313.114H172.647V311.908H173.439C174.111 311.908 174.621 311.932 174.969 311.98C175.317 312.028 175.671 312.148 176.031 312.34C176.391 312.52 176.841 312.826 177.381 313.258C176.877 312.346 176.427 311.68 176.031 311.26C175.635 310.84 175.263 310.582 174.915 310.486C174.567 310.378 174.099 310.324 173.511 310.324H172.647V309.1H173.475C174.399 309.1 175.107 309.202 175.599 309.406C176.079 309.61 176.589 310.09 177.129 310.846C177.681 311.602 178.419 312.88 179.343 314.68H181.647ZM196.439 316.264H194.225V328H192.353V321.97H184.451V324.346C184.451 325.006 184.601 325.54 184.901 325.948C185.213 326.344 185.669 326.542 186.269 326.542C186.833 326.542 187.271 326.362 187.583 326.002C187.907 325.63 188.069 325.138 188.069 324.526V324.31H189.887C189.899 324.394 189.905 324.496 189.905 324.616C189.905 325.708 189.581 326.572 188.933 327.208C188.297 327.844 187.421 328.162 186.305 328.162C185.117 328.162 184.199 327.802 183.551 327.082C182.915 326.362 182.597 325.42 182.597 324.256V320.602H184.163C185.147 320.602 185.879 320.35 186.359 319.846C186.851 319.342 187.097 318.652 187.097 317.776V316.264H180.779V314.68H196.439V316.264ZM192.353 316.264H188.969V317.776C188.969 318.844 188.681 319.726 188.105 320.422H192.353V316.264ZM210.88 316.264H208.684V328H206.794V321.322H203.788V322.564C203.788 323.788 203.488 324.736 202.888 325.408C202.3 326.068 201.448 326.398 200.332 326.398C199.276 326.398 198.43 326.092 197.794 325.48C197.158 324.868 196.84 324.064 196.84 323.068C196.84 322.024 197.176 321.214 197.848 320.638C198.532 320.062 199.408 319.774 200.476 319.774H202.024V316.264H195.58V314.68H210.88V316.264ZM206.794 316.264H203.788V319.774H206.794V316.264ZM202.024 321.322H200.53C199.954 321.322 199.486 321.478 199.126 321.79C198.766 322.102 198.586 322.528 198.586 323.068C198.586 323.596 198.748 324.016 199.072 324.328C199.396 324.64 199.81 324.796 200.314 324.796C200.854 324.796 201.274 324.61 201.574 324.238C201.874 323.854 202.024 323.326 202.024 322.654V321.322ZM225.037 316.264V319.774C225.301 319.258 225.679 318.85 226.171 318.55C226.675 318.238 227.281 318.082 227.989 318.082C228.721 318.082 229.369 318.262 229.933 318.622C230.497 318.97 230.935 319.456 231.247 320.08C231.559 320.692 231.715 321.394 231.715 322.186C231.715 323.038 231.553 323.776 231.229 324.4C230.905 325.012 230.461 325.486 229.897 325.822C229.333 326.146 228.691 326.308 227.971 326.308C227.539 326.308 227.155 326.266 226.819 326.182V324.688C226.999 324.736 227.221 324.76 227.485 324.76C228.157 324.76 228.709 324.538 229.141 324.094C229.585 323.638 229.807 323.014 229.807 322.222C229.807 321.478 229.579 320.872 229.123 320.404C228.679 319.936 228.115 319.702 227.431 319.702C226.639 319.702 226.039 319.966 225.631 320.494C225.235 321.022 225.037 321.652 225.037 322.384V328H223.219V324.706C222.943 325.222 222.541 325.636 222.013 325.948C221.485 326.26 220.849 326.416 220.105 326.416C219.361 326.416 218.701 326.242 218.125 325.894C217.549 325.546 217.099 325.06 216.775 324.436C216.463 323.8 216.307 323.062 216.307 322.222C216.307 321.394 216.469 320.668 216.793 320.044C217.117 319.42 217.573 318.94 218.161 318.604C218.749 318.256 219.421 318.082 220.177 318.082C220.897 318.082 221.515 318.232 222.031 318.532C222.547 318.832 222.943 319.234 223.219 319.738V316.264H214.705V314.68H233.299V316.264H225.037ZM220.717 324.832C221.257 324.832 221.713 324.706 222.085 324.454C222.469 324.202 222.751 323.878 222.931 323.482C223.123 323.086 223.219 322.678 223.219 322.258C223.219 321.574 223.003 320.98 222.571 320.476C222.139 319.96 221.521 319.702 220.717 319.702C220.009 319.702 219.415 319.936 218.935 320.404C218.455 320.86 218.215 321.472 218.215 322.24C218.215 323.032 218.449 323.662 218.917 324.13C219.385 324.598 219.985 324.832 220.717 324.832ZM223.262 314.752C222.674 313.828 222.194 313.168 221.822 312.772C221.45 312.364 221.09 312.1 220.742 311.98C220.382 311.848 219.89 311.782 219.266 311.782H218.456V310.234H219.23C220.154 310.246 220.886 310.348 221.426 310.54C221.954 310.72 222.494 311.122 223.046 311.746C223.586 312.37 224.252 313.372 225.044 314.752H223.262ZM250.382 314.68V316.264H248.204V328H246.386V324.85C246.086 325.354 245.654 325.762 245.09 326.074C244.526 326.374 243.866 326.524 243.11 326.524C242.294 326.524 241.55 326.344 240.878 325.984C240.218 325.624 239.696 325.12 239.312 324.472C238.928 323.812 238.736 323.056 238.736 322.204C238.736 321.352 238.922 320.602 239.294 319.954C239.678 319.306 240.2 318.802 240.86 318.442C241.52 318.082 242.258 317.902 243.074 317.902C243.818 317.902 244.472 318.058 245.036 318.37C245.6 318.67 246.05 319.072 246.386 319.576V316.264H237.134V314.68H250.382ZM243.452 319.162C242.648 319.162 241.97 319.402 241.418 319.882L246.044 323.77C246.332 323.278 246.476 322.744 246.476 322.168C246.476 321.652 246.356 321.166 246.116 320.71C245.888 320.242 245.546 319.87 245.09 319.594C244.634 319.306 244.088 319.162 243.452 319.162ZM240.392 322.204C240.392 322.804 240.53 323.326 240.806 323.77C241.082 324.214 241.454 324.556 241.922 324.796C242.39 325.036 242.906 325.156 243.47 325.156C244.298 325.156 244.976 324.91 245.504 324.418L240.842 320.53C240.542 320.998 240.392 321.556 240.392 322.204ZM251.741 328V316.264H249.545V314.68H255.827V316.264H253.631V328H251.741ZM258.631 322.114V324.364C258.631 325.024 258.781 325.552 259.081 325.948C259.381 326.344 259.825 326.542 260.413 326.542C260.953 326.542 261.379 326.362 261.691 326.002C262.015 325.63 262.177 325.138 262.177 324.526V324.13H263.995V324.472C263.995 325.6 263.677 326.5 263.041 327.172C262.417 327.832 261.553 328.162 260.449 328.162C259.261 328.162 258.349 327.808 257.713 327.1C257.089 326.38 256.777 325.438 256.777 324.274V320.566H258.649C260.605 320.566 261.583 319.63 261.583 317.758V316.264H254.959V314.68H265.435V316.264H263.455V317.758C263.455 319.15 263.119 320.224 262.447 320.98C261.775 321.736 260.731 322.114 259.315 322.114H258.631ZM261.67 314.752C261.082 313.828 260.602 313.168 260.23 312.772C259.858 312.364 259.498 312.1 259.15 311.98C258.79 311.848 258.298 311.782 257.674 311.782H256.864V310.234H257.638C258.562 310.246 259.294 310.348 259.834 310.54C260.362 310.72 260.902 311.122 261.454 311.746C261.994 312.37 262.66 313.372 263.452 314.752H261.67ZM284.55 316.264H282.354V328H280.464V321.322H277.458V322.564C277.458 323.788 277.158 324.736 276.558 325.408C275.97 326.068 275.118 326.398 274.002 326.398C272.946 326.398 272.1 326.092 271.464 325.48C270.828 324.868 270.51 324.064 270.51 323.068C270.51 322.024 270.846 321.214 271.518 320.638C272.202 320.062 273.078 319.774 274.146 319.774H275.694V316.264H269.25V314.68H284.55V316.264ZM280.464 316.264H277.458V319.774H280.464V316.264ZM275.694 321.322H274.2C273.624 321.322 273.156 321.478 272.796 321.79C272.436 322.102 272.256 322.528 272.256 323.068C272.256 323.596 272.418 324.016 272.742 324.328C273.066 324.64 273.48 324.796 273.984 324.796C274.524 324.796 274.944 324.61 275.244 324.238C275.544 323.854 275.694 323.326 275.694 322.654V321.322ZM280.567 314.752C279.979 313.828 279.499 313.168 279.127 312.772C278.755 312.364 278.395 312.1 278.047 311.98C277.687 311.848 277.195 311.782 276.571 311.782H275.761V310.234H276.535C277.459 310.246 278.191 310.348 278.731 310.54C279.259 310.72 279.799 311.122 280.351 311.746C280.891 312.37 281.557 313.372 282.349 314.752H280.567ZM284.887 311.998C284.887 312.334 284.773 312.616 284.545 312.844C284.317 313.072 284.035 313.186 283.699 313.186C283.363 313.186 283.081 313.072 282.853 312.844C282.613 312.616 282.493 312.334 282.493 311.998C282.493 311.662 282.613 311.38 282.853 311.152C283.081 310.924 283.363 310.81 283.699 310.81C284.035 310.81 284.317 310.924 284.545 311.152C284.773 311.38 284.887 311.662 284.887 311.998Z" fill="#115223"/>
<g clip-path="url(#clip4_166_4786)">
<path d="M316.189 322L308.344 314.155C308.19 314 308.006 313.878 307.804 313.794C307.602 313.71 307.385 313.667 307.166 313.667C306.947 313.667 306.731 313.71 306.528 313.794C306.326 313.878 306.143 314 305.988 314.155C305.833 314.31 305.71 314.494 305.627 314.696C305.543 314.898 305.5 315.115 305.5 315.333C305.5 315.552 305.543 315.769 305.627 315.971C305.71 316.173 305.833 316.357 305.988 316.512L309.809 320.333L297.166 320.333C296.724 320.333 296.3 320.509 295.988 320.822C295.675 321.134 295.499 321.558 295.499 322C295.499 322.442 295.675 322.866 295.988 323.179C296.3 323.491 296.724 323.667 297.166 323.667L309.809 323.667L305.988 327.488C305.832 327.643 305.709 327.826 305.625 328.029C305.541 328.231 305.498 328.448 305.498 328.667C305.498 328.886 305.541 329.103 305.625 329.305C305.709 329.507 305.832 329.691 305.988 329.845C306.142 330 306.326 330.123 306.528 330.207C306.73 330.291 306.947 330.334 307.166 330.334C307.385 330.334 307.602 330.291 307.804 330.207C308.006 330.123 308.19 330 308.344 329.845L316.189 322Z" fill="#115223"/>
</g>
</g>
</g>
</g>
<defs>
<filter id="filter0_d_166_4786" x="51" y="286" width="328" height="80" filterUnits="userSpaceOnUse" color-interpolation-filters="sRGB">
<feFlood flood-opacity="0" result="BackgroundImageFix"/>
<feColorMatrix in="SourceAlpha" type="matrix" values="0 0 0 0 0 0 0 0 0 0 0 0 0 0 0 0 0 0 127 0" result="hardAlpha"/>
<feOffset dy="4"/>
<feGaussianBlur stdDeviation="5"/>
<feComposite in2="hardAlpha" operator="out"/>
<feColorMatrix type="matrix" values="0 0 0 0 0 0 0 0 0 0 0 0 0 0 0 0 0 0 0.25 0"/>
<feBlend mode="normal" in2="BackgroundImageFix" result="effect1_dropShadow_166_4786"/>
<feBlend mode="normal" in="SourceGraphic" in2="effect1_dropShadow_166_4786" result="shape"/>
</filter>
<filter id="filter1_f_166_4786" x="38.4258" y="287" width="353.148" height="102" filterUnits="userSpaceOnUse" color-interpolation-filters="sRGB">
<feFlood flood-opacity="0" result="BackgroundImageFix"/>
<feBlend mode="normal" in="SourceGraphic" in2="BackgroundImageFix" result="shape"/>
<feGaussianBlur stdDeviation="22" result="effect1_foregroundBlur_166_4786"/>
</filter>
<linearGradient id="paint0_linear_166_4786" x1="0" y1="188.5" x2="430" y2="188.5" gradientUnits="userSpaceOnUse">
<stop offset="0.2" stop-color="#26C3E4"/>
<stop offset="1" stop-color="#3A7BD5"/>
</linearGradient>
<clipPath id="clip0_166_4786">
<path d="M0 0H430V364.2C430 368.68 430 370.921 429.128 372.632C428.361 374.137 427.137 375.361 425.632 376.128C423.921 377 421.68 377 417.2 377H12.8C8.31957 377 6.07937 377 4.36808 376.128C2.86278 375.361 1.63893 374.137 0.871948 372.632C0 370.921 0 368.68 0 364.2V0Z" fill="white"/>
</clipPath>
<clipPath id="clip1_166_4786">
<rect width="51.9324" height="51.9324" fill="white" transform="translate(343 21)"/>
</clipPath>
<clipPath id="clip2_166_4786">
<rect width="19.1377" height="19.1377" fill="white" transform="translate(200.5 136.931)"/>
</clipPath>
<clipPath id="clip3_166_4786">
<rect x="8" y="193" width="414" height="176" rx="6" fill="white"/>
</clipPath>
<clipPath id="clip4_166_4786">
<rect width="20" height="40" fill="white" transform="translate(325.5 312) rotate(90)"/>
</clipPath>
</defs>
</svg>
