<svg width="430" height="377" viewBox="0 0 430 377" fill="none" xmlns="http://www.w3.org/2000/svg">
<g clip-path="url(#clip0_1472_1639)">
<path d="M0 0H430V354.6C430 362.441 430 366.361 428.474 369.356C427.132 371.99 424.99 374.132 422.356 375.474C419.361 377 415.441 377 407.6 377H22.4C14.5593 377 10.6389 377 7.64413 375.474C5.00986 374.132 2.86814 371.99 1.52591 369.356C0 366.361 0 362.441 0 354.6V0Z" fill="white"/>
<rect y="-16.4521" width="430" height="512.905" fill="url(#paint0_linear_1472_1639)"/>
<circle opacity="0.8" cx="224.867" cy="71.3137" r="6.75121" fill="#2D344D" fill-opacity="0.6"/>
<circle cx="391.051" cy="6.91722" r="6.75121" fill="#435365"/>
<circle opacity="0.79" cx="51.9319" cy="10.5525" r="10.3865" fill="#435365"/>
<circle opacity="0.79" cx="132.947" cy="26.1317" r="5.19324" fill="#2B314B" fill-opacity="0.46"/>
<circle opacity="0.79" cx="187.995" cy="45.8661" r="5.19324" fill="#2B314B" fill-opacity="0.46"/>
<circle opacity="0.79" cx="270.049" cy="15.746" r="5.19324" fill="#2B314B" fill-opacity="0.46"/>
<path d="M286.664 162.987C281.694 162.987 277.095 164.322 273.089 166.622C273.238 165.385 273.312 164.149 273.312 162.913C273.312 143.108 257.29 127.086 237.485 127.086C217.754 127.086 201.658 143.108 201.658 162.913C201.707 165.188 201.93 167.413 202.325 169.589C200.026 168.921 197.652 168.55 195.13 168.55C181.704 168.55 170.875 179.38 170.875 192.806C170.875 206.232 181.704 217.061 195.13 217.061H286.664C301.573 217.061 313.664 204.971 313.664 190.061C313.664 175.078 301.573 162.987 286.664 162.987Z" fill="#2F283D"/>
<path d="M189.789 164.597C184.894 164.597 180.221 165.932 176.289 168.231C176.388 166.995 176.438 165.734 176.438 164.448C176.438 144.717 160.416 128.695 140.685 128.695C120.88 128.695 104.857 144.717 104.857 164.448C104.857 166.773 105.055 169.023 105.451 171.198C103.226 170.457 100.778 170.086 98.3299 170.086C84.904 170.086 74 180.99 74 194.341C74 207.767 84.904 218.671 98.3299 218.671H189.789C204.699 218.671 216.864 206.506 216.864 191.597C216.864 176.688 204.699 164.597 189.789 164.597Z" fill="#413554"/>
<path d="M323.158 123.726C317.299 123.726 311.735 125.283 307.062 128.028C307.211 126.594 307.285 125.135 307.285 123.651C307.285 100.063 288.147 81 264.633 81C241.119 81 222.056 100.063 222.056 123.651C222.056 126.371 222.303 129.017 222.798 131.588C220.053 130.772 217.235 130.327 214.193 130.327C198.245 130.327 185.339 143.234 185.339 159.182C185.339 175.13 198.245 188.111 214.193 188.111H323.158C340.887 188.111 355.351 173.72 355.351 155.918C355.351 138.116 340.887 123.726 323.158 123.726Z" fill="#4B3D61"/>
<path d="M252.468 187.443H273.163L256.103 217.039L269.381 210.734L242.232 249.825L252.468 225.273L244.754 227.795L252.468 187.443Z" fill="url(#paint1_linear_1472_1639)"/>
<path d="M124.236 219H144.931L127.871 248.596L141.149 242.291L114 281.382L124.236 256.83L116.522 259.352L124.236 219Z" fill="url(#paint2_linear_1472_1639)"/>
<path d="M204.236 233H224.931L207.871 262.596L221.149 256.291L194 295.382L204.236 270.83L196.522 273.352L204.236 233Z" fill="url(#paint3_linear_1472_1639)"/>
</g>
<defs>
<linearGradient id="paint0_linear_1472_1639" x1="0" y1="240" x2="430" y2="240" gradientUnits="userSpaceOnUse">
<stop stop-color="#536976"/>
<stop offset="1" stop-color="#292E49"/>
</linearGradient>
<linearGradient id="paint1_linear_1472_1639" x1="318.768" y1="176.044" x2="330.435" y2="241.448" gradientUnits="userSpaceOnUse">
<stop stop-color="#FDCC4B"/>
<stop offset="0.996" stop-color="#FCB949"/>
</linearGradient>
<linearGradient id="paint2_linear_1472_1639" x1="190.537" y1="207.601" x2="202.203" y2="273.005" gradientUnits="userSpaceOnUse">
<stop stop-color="#FDCC4B"/>
<stop offset="0.996" stop-color="#FCB949"/>
</linearGradient>
<linearGradient id="paint3_linear_1472_1639" x1="270.537" y1="221.601" x2="282.203" y2="287.005" gradientUnits="userSpaceOnUse">
<stop stop-color="#FDCC4B"/>
<stop offset="0.996" stop-color="#FCB949"/>
</linearGradient>
<clipPath id="clip0_1472_1639">
<path d="M0 0H430V354.6C430 362.441 430 366.361 428.474 369.356C427.132 371.99 424.99 374.132 422.356 375.474C419.361 377 415.441 377 407.6 377H22.4C14.5593 377 10.6389 377 7.64413 375.474C5.00986 374.132 2.86814 371.99 1.52591 369.356C0 366.361 0 362.441 0 354.6V0Z" fill="white"/>
</clipPath>
</defs>
</svg>
