<svg width="49" height="49" viewBox="0 0 49 49" fill="none" xmlns="http://www.w3.org/2000/svg">
<g clip-path="url(#clip0_166_3489)">
<path d="M13.2381 37.8313C14.4188 29.8894 8.40855 32.2796 4.63842 36.2535C3.57666 39.3054 2.78154 41.5489 2.78154 41.5489C2.49396 42.3183 1.85881 43.1334 0.880859 43.5438C1.71883 43.8362 2.8301 43.6172 3.37193 43.2096C3.2748 43.9495 2.99199 44.5628 2.55586 45.0722C3.57952 44.9141 4.46416 44.5247 5.22786 43.9305C5.19167 44.6313 5.01646 45.2417 4.68032 45.7492C5.6497 45.6588 6.50291 45.2008 7.28852 44.5247C7.24947 45.1579 7.15711 45.7207 6.96285 46.1482C7.95604 46.1187 9.213 45.5188 9.97956 44.8065C13.5182 44.3019 14.3296 41.7261 13.2381 37.8313Z" fill="#E0AC69"/>
<path d="M22.2181 28.395C22.0565 26.5016 20.5915 26.1985 18.8576 26.4562C13.5965 23.2335 10.0706 24.0943 7.62967 27.5085C6.65934 30.4138 5.54997 33.6314 4.63867 36.2539C5.50998 36.0177 6.26987 35.4559 6.76599 34.6455C6.61458 35.3816 6.68314 36.1187 6.94977 36.8566C7.77537 36.5738 8.35719 36.0168 8.73237 35.2264C8.74761 35.9653 8.92853 36.6252 9.30848 37.1928C9.99886 36.8147 10.4836 36.2234 10.8187 35.4806C10.7987 36.1396 10.9854 36.7271 11.3844 37.2404C12.0738 36.8557 12.5623 36.3377 12.8451 35.6825C12.7908 36.5005 12.9108 37.1947 13.2384 37.8317L22.2181 31.0613C23.4792 30.2339 23.4134 29.3419 22.2181 28.395Z" fill="#F1C27D"/>
<path d="M13.4976 19.2319C11.1684 20.3184 9.322 22.3343 8.49164 24.8911C8.22501 25.7139 7.93362 26.5956 7.62891 27.5079C8.4545 27.3432 9.14964 26.7156 9.6629 25.991C9.57815 26.648 9.72956 27.2146 10.1485 27.6812C10.818 27.4593 11.3103 27.0613 11.6398 26.4995C11.7378 27.1384 12.0026 27.6717 12.5368 28.0326C13.2681 27.7374 13.7318 27.2137 13.9728 26.4995C14.1023 27.1356 14.4908 27.6412 15.0831 28.0421C15.662 27.725 16.0439 27.2032 16.2496 26.4995C16.3677 27.1975 16.8057 27.7593 17.498 28.2116C18.1912 27.7593 18.7387 27.1537 18.8568 26.4557C19.2113 21.8989 17.1484 19.7685 13.4976 19.2319Z" fill="#FFDBAC"/>
<path d="M38.6022 36.7726C39.3377 36.09 39.8546 36.249 40.1886 37.1116L38.7412 43.8934C37.3356 43.6259 36.8722 42.7825 37.6652 41.1595L38.6022 36.7726Z" fill="#655F68"/>
<path d="M39.81 48.1157H33.35V45.7341C34.9754 44.199 37.4395 44.1214 39.0235 44.8038L39.0254 44.8028C39.3291 45.8322 39.5929 46.9349 39.81 48.1157ZM15.6573 45.7341V48.1157H9.19727C9.41438 46.9359 9.67815 45.8341 9.98001 44.8066C9.98096 44.8057 9.98287 44.8047 9.98382 44.8038C11.8882 43.7915 14.3781 43.9267 15.6573 45.7341Z" fill="#F7B6AD"/>
<path d="M38.7421 43.8935C38.4174 42.9127 38.0555 42.0023 37.666 41.1596C35.9082 37.3592 33.5657 34.9024 31.3403 33.3264C30.3228 34.9125 30.2648 36.4189 31.3403 37.8315L33.3505 39.5951C32.3756 41.7691 32.235 43.8339 33.3505 45.7342C35.273 46.0313 37.6879 45.6504 39.0239 44.8038L39.0258 44.8029C38.9344 44.4925 38.8402 44.1897 38.7421 43.8935ZM13.239 37.8315C11.963 39.6655 10.8213 41.9538 9.98047 44.8067C9.98142 44.8057 9.98332 44.8048 9.98428 44.8038C11.3203 45.6504 13.7352 46.0313 15.6578 45.7342L16.8488 40.3968L17.6679 37.8315C19.331 36.4523 19.1791 34.9394 17.6679 33.3264C16.1739 34.3844 14.6274 35.8395 13.239 37.8315ZM28.3131 31.6229C29.3408 33.8783 29.5726 35.9898 28.3131 37.8315C26.1189 39.9271 23.5482 39.7367 20.6951 37.8315C19.2183 35.9898 19.4901 33.8783 20.6951 31.6229C21.2446 31.3867 21.7569 31.2029 22.2187 31.061C22.2187 31.061 22.6806 32.9674 24.5041 32.9674C26.3277 32.9674 26.7895 31.061 26.7895 31.061C27.2513 31.203 27.7636 31.3867 28.3131 31.6229Z" fill="#E15C63"/>
<path d="M31.9538 2.96684C30.5768 1.35373 26.7888 0.884277 24.5034 0.884277C22.218 0.884277 18.43 1.35373 17.053 2.96684C15.6761 4.57899 14.1582 9.25546 14.1582 9.25546H34.8486C34.8486 9.25546 33.3307 4.57899 31.9538 2.96684Z" fill="#F1C27D"/>
<path d="M34.8486 9.25526C31.9681 8.55632 28.3857 8.14209 24.5034 8.14209C20.6211 8.14209 17.0388 8.55632 14.1582 9.25526C9.97881 10.2685 7.27539 11.8816 7.27539 13.6975C7.27539 15.4868 9.89882 17.0789 13.9735 18.094L35.0362 18.0969L35.0409 18.093C39.1108 17.077 41.7314 15.4858 41.7314 13.6975C41.7314 11.8816 39.028 10.2685 34.8486 9.25526Z" fill="#E0AC69"/>
<path d="M35.0368 18.0971C35.5625 18.7894 35.7129 19.8378 35.3501 20.8329C34.9045 22.0527 33.8303 22.8031 32.8028 22.6793H32.8019C31.3486 20.9945 31.3635 19.0682 33.8589 17.3486C33.9741 17.3705 34.0827 17.4001 34.195 17.4458C34.534 17.5819 34.8178 17.8086 35.0368 18.0971ZM16.2062 22.6793H16.2052C15.771 22.7317 15.3292 22.6279 14.9292 22.3993V22.3984C14.4379 22.1175 14.0103 21.6461 13.7427 21.0414C13.7122 20.9738 13.6837 20.9043 13.658 20.8329C13.4608 20.293 13.4151 19.7378 13.4989 19.2322C13.5694 18.8037 13.7322 18.4113 13.9741 18.0942C14.1922 17.8067 14.4759 17.581 14.813 17.4458C14.9254 17.4001 15.034 17.3705 15.1492 17.3486C16.9415 19.3801 17.0704 21.2582 16.2062 22.6793Z" fill="#DFA3A5"/>
<path d="M32.0643 13.0827C30.115 12.5276 27.4792 12.001 24.5025 12.001C21.5258 12.001 18.89 12.5276 16.9407 13.0827C15.86 14.3298 15.1127 15.6662 15.1477 17.3488C15.3467 19.3885 15.7162 21.2654 16.2047 22.6795C16.4113 23.2784 16.6398 23.7945 16.8855 24.2049C17.3083 24.9087 17.9911 25.7171 18.8567 26.4561C19.7946 27.2569 20.9468 27.9758 22.2171 28.3948V31.0611C22.2171 31.0611 22.679 32.9675 24.5025 32.9675C26.3261 32.9675 26.7879 31.0611 26.7879 31.0611V28.3948C29.2304 27.5902 31.2396 25.6714 32.1195 24.2049C32.3652 23.7945 32.5937 23.2784 32.8004 22.6795C33.2889 21.2654 33.6583 19.3885 33.8574 17.3488C33.7877 16.2679 33.4403 14.8451 32.0643 13.0827Z" fill="#FFAD92"/>
<path d="M47.4779 22.4059C47.9159 22.4992 48.1949 22.9306 48.1016 23.3686L46.6085 30.3619C46.039 33.0311 43.6793 34.8584 41.0559 34.8565L40.5579 37.1895L40.1894 37.1114L38.6029 36.7724L38.2344 36.6943L38.7324 34.3604C36.3366 33.291 34.9292 30.66 35.4996 27.9908L36.9917 20.9966C37.0369 20.7862 37.1638 20.6023 37.3445 20.4853C37.5252 20.3684 37.7449 20.328 37.9554 20.3729C38.3934 20.4662 38.6724 20.8976 38.5791 21.3356L37.0889 28.3146C37.0765 28.3717 37.0708 28.4279 37.0708 28.4841C37.0708 28.8593 37.3326 29.1964 37.7135 29.2773C38.1516 29.3716 38.5829 29.0916 38.6762 28.6536L40.1665 21.6746C40.2598 21.2366 40.6912 20.9566 41.1292 21.0509C41.5673 21.1442 41.8472 21.5756 41.753 22.0136L40.2636 28.9926C40.1703 29.4306 40.4493 29.862 40.8874 29.9553C41.3254 30.0486 41.7568 29.7696 41.8501 29.3306L43.3403 22.3526C43.3625 22.2483 43.405 22.1495 43.4654 22.0617C43.5258 21.9738 43.6029 21.8988 43.6923 21.8408C43.7817 21.7828 43.8816 21.7429 43.9864 21.7236C44.0912 21.7042 44.1988 21.7057 44.3031 21.7279C44.7421 21.8212 45.0211 22.2526 44.9277 22.6906L43.4375 29.6696C43.3925 29.8803 43.4331 30.1001 43.5502 30.2808C43.6674 30.4616 43.8515 30.5884 44.0621 30.6333C44.5002 30.7266 44.9315 30.4467 45.0249 30.0086L46.5142 23.0296C46.5594 22.8192 46.6863 22.6353 46.867 22.5184C47.0476 22.4014 47.2674 22.361 47.4779 22.4059Z" fill="#CDC7B9"/>
<path d="M31.5854 37.8315H17.4198C16.4457 37.8315 15.6562 38.621 15.6562 39.5951V48.1158H33.349V39.5951C33.349 38.621 32.5595 37.8315 31.5854 37.8315Z" fill="#1498B7"/>
<path d="M28.3112 37.8312V31.6226C29.2425 32.0235 30.2766 32.5739 31.3383 33.3261V40.9003C31.3383 41.7364 30.6603 42.4134 29.8252 42.4134C29.4072 42.4134 29.0292 42.2439 28.7549 41.9706C28.614 41.8303 28.5023 41.6634 28.4262 41.4798C28.35 41.2961 28.3109 41.0991 28.3112 40.9003V37.8312ZM17.666 37.8312V33.3261C17.7812 33.2442 17.8965 33.1642 18.0117 33.0881C18.823 32.5424 19.6143 32.112 20.3494 31.7759C20.4656 31.7225 20.5799 31.6711 20.6932 31.6226V40.9003C20.6932 41.3183 20.5237 41.6964 20.2495 41.9706C20.1089 42.1112 19.942 42.2226 19.7584 42.2986C19.5747 42.3746 19.3779 42.4136 19.1791 42.4134C18.344 42.4134 17.666 41.7364 17.666 40.9003V37.8312Z" fill="#1EA6BC"/>
<path d="M27.2242 19.6092L28.3127 22.6811L26.531 21.7832L25.8854 23.322L24.5037 21.8698L23.122 23.322L22.4764 21.7832L20.6947 22.6811L21.7831 19.6092C21.9823 19.0469 22.3509 18.5601 22.8381 18.2158C23.3252 17.8716 23.9071 17.6867 24.5037 17.6866C25.115 17.6866 25.693 17.879 26.1692 18.2161C26.6453 18.5522 27.0195 19.0331 27.2242 19.6092ZM34.8374 14.0348C34.8194 15.3155 34.4937 16.4201 33.8585 17.3486C32.853 16.2678 32.255 14.8451 32.0655 13.0825C33.2872 13.4301 34.2394 13.7881 34.8374 14.0348ZM14.1699 14.0348C14.7679 13.7881 15.7202 13.4301 16.9419 13.0825C16.7524 14.8451 16.1544 16.2678 15.1488 17.3486C14.5137 16.4201 14.188 15.3155 14.1699 14.0348Z" fill="#604533"/>
<path d="M15.657 45.7339V48.1155H11.8242C12.6155 48.1155 13.165 47.1185 13.5449 45.8072C14.2648 45.8586 14.9904 45.8367 15.657 45.7339Z" fill="#DFA3A5"/>
<path d="M15.657 40.2481V45.7343C14.9904 45.8372 14.2648 45.8591 13.5449 45.8077C14.0927 43.9152 14.2885 41.3672 14.3522 40.2113C14.3616 40.0448 14.4343 39.8881 14.5555 39.7735C14.6767 39.659 14.8372 39.5951 15.004 39.5952C15.0898 39.5952 15.1747 39.6121 15.2539 39.6449C15.3332 39.6777 15.4051 39.7257 15.4658 39.7864C15.5264 39.847 15.5745 39.919 15.6073 39.9982C15.6401 40.0774 15.657 40.1623 15.657 40.2481Z" fill="#D14B62"/>
<path d="M33.3496 45.7339V48.1155H37.1824C36.3911 48.1155 35.8416 47.1185 35.4617 45.8072C34.7418 45.8586 34.0162 45.8367 33.3496 45.7339Z" fill="#DFA3A5"/>
<path d="M33.3496 40.2481V45.7343C34.0162 45.8372 34.7418 45.8591 35.4617 45.8077C34.914 43.9152 34.7181 41.3672 34.6544 40.2113C34.6451 40.0448 34.5723 39.8881 34.4511 39.7735C34.3299 39.659 34.1694 39.5951 34.0026 39.5952C33.9168 39.5952 33.8319 39.6121 33.7527 39.6449C33.6735 39.6777 33.6015 39.7258 33.5409 39.7864C33.4802 39.847 33.4321 39.919 33.3993 39.9982C33.3665 40.0774 33.3496 40.1623 33.3496 40.2481Z" fill="#D14B62"/>
<path d="M26.7876 28.3945V30.121C24.307 30.818 22.2168 29.5687 22.2168 29.5687V28.3945C22.9462 28.6345 23.7137 28.7754 24.5022 28.7754C25.2906 28.7754 26.0582 28.6346 26.7876 28.3945Z" fill="#DFA3A5"/>
<path d="M28.3126 18.11C28.7333 18.11 29.0744 17.7689 29.0744 17.3482C29.0744 16.9275 28.7333 16.5864 28.3126 16.5864C27.8918 16.5864 27.5508 16.9275 27.5508 17.3482C27.5508 17.7689 27.8918 18.11 28.3126 18.11Z" fill="#3A322B"/>
<path d="M29.7812 14.0048C28.8307 13.3351 27.5715 13.5475 27.5185 13.5568C27.4198 13.575 27.3324 13.6315 27.2751 13.7139C27.2179 13.7964 27.1954 13.898 27.2127 13.9969C27.23 14.0957 27.2856 14.1838 27.3674 14.2418C27.4492 14.2999 27.5507 14.3234 27.6497 14.3071C27.6596 14.3055 28.6544 14.1427 29.3424 14.6275C29.4091 14.6744 29.4856 14.697 29.5614 14.697C29.6225 14.6971 29.6828 14.6824 29.737 14.6543C29.7913 14.6262 29.838 14.5854 29.8731 14.5354C29.9019 14.4945 29.9224 14.4484 29.9334 14.3996C29.9444 14.3508 29.9456 14.3003 29.9371 14.251C29.9286 14.2018 29.9104 14.1546 29.8837 14.1124C29.8569 14.0701 29.8221 14.0336 29.7812 14.0048Z" fill="#3A322B"/>
<path d="M20.6954 18.11C21.1161 18.11 21.4572 17.7689 21.4572 17.3482C21.4572 16.9275 21.1161 16.5864 20.6954 16.5864C20.2747 16.5864 19.9336 16.9275 19.9336 17.3482C19.9336 17.7689 20.2747 18.11 20.6954 18.11Z" fill="#3A322B"/>
<path d="M21.3593 14.3073C21.4588 14.3247 21.5612 14.3019 21.6439 14.2438C21.7266 14.1858 21.7828 14.0973 21.8002 13.9978C21.8177 13.8982 21.7948 13.7959 21.7368 13.7132C21.6787 13.6305 21.5902 13.5742 21.4907 13.5568C21.4377 13.5475 20.1786 13.335 19.228 14.0048C19.1454 14.063 19.0893 14.1516 19.072 14.2512C19.0547 14.3507 19.0777 14.453 19.1359 14.5356C19.1941 14.6182 19.2827 14.6743 19.3822 14.6916C19.4818 14.7089 19.5841 14.6859 19.6667 14.6277C20.3524 14.1446 21.3422 14.3044 21.3593 14.3073ZM27.5831 19.4822C27.1219 18.1806 25.8844 17.3061 24.5035 17.3061C23.1227 17.3061 21.8851 18.1806 21.424 19.4822L20.3354 22.5541C20.31 22.6258 20.3066 22.7034 20.3257 22.7771C20.3448 22.8507 20.3856 22.9169 20.4426 22.9672C20.4997 23.0175 20.5705 23.0495 20.646 23.0592C20.7214 23.0688 20.798 23.0556 20.8659 23.0214L22.2832 22.307L22.7706 23.4694C22.7951 23.5278 22.8337 23.5792 22.883 23.6189C22.9323 23.6587 22.9908 23.6854 23.053 23.6969C23.1153 23.7083 23.1795 23.7041 23.2397 23.6845C23.2999 23.6648 23.3543 23.6305 23.3979 23.5846L24.5034 22.4224L25.609 23.5846C25.6526 23.6304 25.707 23.6647 25.7672 23.6842C25.8274 23.7038 25.8915 23.708 25.9537 23.6966C26.016 23.6851 26.0744 23.6584 26.1237 23.6187C26.173 23.5791 26.2117 23.5277 26.2362 23.4694L26.7237 22.307L28.1409 23.0214C28.2088 23.0556 28.2854 23.0688 28.3609 23.0592C28.4363 23.0495 28.5071 23.0175 28.5642 22.9672C28.6213 22.9169 28.662 22.8507 28.6811 22.7771C28.7002 22.7034 28.6968 22.6258 28.6714 22.5541L27.5831 19.4822ZM26.7021 21.4428C26.6554 21.4193 26.6044 21.4057 26.5522 21.4028C26.5 21.3998 26.4478 21.4076 26.3988 21.4257C26.3498 21.4438 26.305 21.4718 26.2672 21.5079C26.2294 21.544 26.1995 21.5875 26.1793 21.6357L25.7592 22.6371L24.7795 21.6072C24.7439 21.5698 24.7011 21.54 24.6536 21.5197C24.6062 21.4994 24.5551 21.4889 24.5035 21.4889C24.4519 21.4889 24.4008 21.4994 24.3534 21.5197C24.306 21.54 24.2631 21.5698 24.2276 21.6072L23.2478 22.6371L22.8278 21.6357C22.8075 21.5875 22.7776 21.544 22.7398 21.5078C22.7021 21.4717 22.6573 21.4437 22.6083 21.4257C22.5592 21.4076 22.507 21.3998 22.4548 21.4027C22.4027 21.4057 22.3516 21.4193 22.305 21.4428L21.3705 21.9139L22.1421 19.7365C22.4958 18.7385 23.4448 18.0679 24.5036 18.0679C25.5624 18.0679 26.5114 18.7385 26.8651 19.7365L27.6367 21.9139L26.7021 21.4428Z" fill="#3A322B"/>
<path d="M48.3078 22.5508C48.223 22.4191 48.1129 22.3056 47.9838 22.2168C47.8548 22.1279 47.7094 22.0656 47.5561 22.0333C47.403 22.0002 47.2449 21.9978 47.0908 22.0262C46.9368 22.0547 46.7899 22.1133 46.6587 22.1989C46.527 22.2837 46.4135 22.3939 46.3246 22.5229C46.2358 22.6519 46.1734 22.7972 46.1411 22.9505L44.6512 29.9294C44.6017 30.1617 44.3715 30.3103 44.1403 30.2605C44.0279 30.2365 43.9315 30.1701 43.869 30.0737C43.8064 29.9772 43.7852 29.8621 43.8092 29.7496L45.299 22.7707C45.3655 22.4592 45.3068 22.1405 45.1335 21.8733C44.9603 21.6061 44.6933 21.4222 44.3818 21.3558C44.2287 21.3226 44.0706 21.3202 43.9165 21.3486C43.7625 21.377 43.6156 21.4357 43.4844 21.5213C43.3527 21.6061 43.2392 21.7162 43.1503 21.8452C43.0615 21.9742 42.9991 22.1196 42.9668 22.2729L41.4772 29.2517C41.4655 29.307 41.443 29.3595 41.411 29.4061C41.3789 29.4527 41.3379 29.4924 41.2904 29.5231C41.243 29.554 41.19 29.5752 41.1343 29.5854C41.0787 29.5957 41.0216 29.5948 40.9663 29.5828C40.911 29.5711 40.8585 29.5486 40.8119 29.5165C40.7653 29.4845 40.7255 29.4435 40.6948 29.396C40.664 29.3486 40.6428 29.2955 40.6326 29.2399C40.6223 29.1843 40.6232 29.1272 40.6351 29.0719L42.125 22.093C42.2622 21.45 41.8509 20.8153 41.2079 20.6781C40.5646 20.5408 39.9302 20.9522 39.793 21.5952L38.3031 28.5741C38.2914 28.6294 38.2689 28.6819 38.2369 28.7285C38.2048 28.7751 38.1638 28.8148 38.1163 28.8455C38.0689 28.8763 38.0158 28.8974 37.9602 28.9077C37.9047 28.918 37.8476 28.9171 37.7923 28.9053C37.6807 28.8813 37.5832 28.814 37.5211 28.7182C37.459 28.6224 37.4374 28.506 37.4611 28.3943L38.951 21.4154C39.0882 20.7725 38.6767 20.1378 38.0338 20.0004C37.7225 19.934 37.4037 19.9927 37.1364 20.1659C36.8691 20.3392 36.6853 20.6062 36.6188 20.9176L35.1258 27.9111C34.5539 30.5901 35.88 33.3415 38.2967 34.5747L37.8612 36.6146C37.8403 36.7126 37.8589 36.8149 37.9129 36.8993C37.967 36.9836 38.0521 37.0433 38.1499 37.0652L37.5205 40.013C34.33 33.8931 29.6514 31.6005 27.1692 30.7826V28.6659C29.6588 27.7567 31.6212 25.7768 32.4469 24.4006C32.667 24.0336 32.8742 23.5861 33.0657 23.0712C34.1751 23.0488 35.2529 22.2073 35.7072 20.9632C36.0408 20.0492 35.9818 19.0902 35.6198 18.3358C39.7532 17.2253 42.1118 15.5471 42.1118 13.6978C42.1118 12.0351 40.226 10.5114 36.802 9.40729C36.2759 9.2376 35.7218 9.08029 35.1439 8.93545C34.8304 8.00273 33.5027 4.19489 32.2431 2.71929C30.8467 1.08381 27.201 0.503418 24.5031 0.503418C21.8053 0.503418 18.1596 1.08381 16.7634 2.71939C15.5038 4.19499 14.1761 8.00273 13.8626 8.93555C13.2847 9.08038 12.7306 9.23769 12.2045 9.40738C8.78044 10.5115 6.89471 12.0352 6.89471 13.6979C6.89471 15.5473 9.25323 17.2253 13.3867 18.3359C13.2901 18.5386 13.2159 18.7513 13.1656 18.9701C10.781 20.1398 8.95099 22.245 8.12958 24.7742C6.04845 31.1831 2.4582 41.3203 2.4243 41.4161C2.12882 42.2083 1.49682 42.8725 0.733498 43.1927C0.662468 43.2226 0.602146 43.2732 0.560491 43.338C0.518837 43.4028 0.497808 43.4787 0.500181 43.5557C0.502553 43.6327 0.528215 43.7072 0.573779 43.7693C0.619343 43.8314 0.682669 43.8782 0.755399 43.9036C1.42035 44.1358 2.19215 44.0909 2.8153 43.897C2.6895 44.2361 2.50763 44.5432 2.26661 44.8248C2.21603 44.8839 2.18475 44.957 2.17698 45.0344C2.16921 45.1118 2.18532 45.1897 2.22315 45.2577C2.26099 45.3256 2.31872 45.3804 2.38859 45.4146C2.45846 45.4487 2.53712 45.4607 2.61399 45.4488C3.37284 45.3319 4.07911 45.0891 4.72293 44.7247C4.64094 45.0286 4.52058 45.3011 4.36298 45.5397C4.32332 45.5997 4.30145 45.6696 4.29988 45.7414C4.29831 45.8133 4.31712 45.8841 4.35412 45.9457C4.39116 46.0072 4.44481 46.0571 4.5089 46.0895C4.57299 46.1219 4.64493 46.1356 4.71645 46.129C5.43492 46.0614 6.12416 45.8106 6.8053 45.3667C6.75702 45.6126 6.69427 45.8197 6.61637 45.9915C6.59011 46.0495 6.57881 46.1132 6.5835 46.1767C6.58819 46.2402 6.60873 46.3015 6.64324 46.355C6.67774 46.4086 6.72512 46.4526 6.78102 46.4831C6.83693 46.5136 6.89959 46.5296 6.96327 46.5296C6.96708 46.5296 6.97089 46.5296 6.9747 46.5294C7.69746 46.5077 8.56457 46.2148 9.32246 45.764C9.1292 46.519 8.96224 47.2804 8.82187 48.047C8.81174 48.1019 8.81382 48.1584 8.82797 48.2125C8.84212 48.2665 8.86799 48.3168 8.90374 48.3597C8.93949 48.4026 8.98425 48.4371 9.03484 48.4608C9.08543 48.4845 9.14062 48.4968 9.19648 48.4967H39.8098C39.8657 48.4967 39.9208 48.4844 39.9714 48.4607C40.0219 48.437 40.0667 48.4025 40.1024 48.3596C40.1381 48.3167 40.164 48.2664 40.1782 48.2124C40.1924 48.1584 40.1945 48.1019 40.1844 48.047C39.9059 46.5312 39.55 45.1448 39.1341 43.8757L40.4818 37.5632C40.5066 37.5681 40.5317 37.5711 40.5567 37.5711C40.6439 37.5711 40.7285 37.5412 40.7963 37.4863C40.8641 37.4315 40.911 37.355 40.9292 37.2697L41.3646 35.2298C44.074 35.0908 46.4083 33.1208 46.9802 30.4419L48.4733 23.4484C48.5064 23.2953 48.5089 23.1371 48.4805 22.9831C48.4521 22.829 48.3934 22.6821 48.3078 22.5508ZM38.5727 44.6252C37.3681 45.269 35.3985 45.5848 33.7305 45.4002V39.5951C33.7305 38.4577 32.8404 37.5249 31.7204 37.4552V34.0962C34.2538 36.0711 36.9439 39.3166 38.5727 44.6252ZM13.225 35.707C13.2309 35.6174 13.2049 35.5285 13.1517 35.4562C13.0985 35.3839 13.0215 35.3327 12.9342 35.3116C12.8469 35.2906 12.7549 35.301 12.6746 35.3412C12.5943 35.3813 12.5307 35.4485 12.4952 35.531C12.2874 36.0126 11.9586 36.4055 11.4946 36.7244C11.2824 36.3551 11.1852 35.9488 11.1991 35.4918C11.2017 35.4038 11.1738 35.3176 11.12 35.2478C11.0662 35.178 10.9899 35.1291 10.9041 35.1093C10.8182 35.0894 10.7282 35.1 10.6493 35.1391C10.5703 35.1782 10.5074 35.2434 10.4712 35.3237C10.2096 35.903 9.86991 36.3431 9.43825 36.659C9.23114 36.2406 9.1242 35.7658 9.11259 35.2183C9.11077 35.1325 9.08006 35.0499 9.02542 34.9837C8.97077 34.9176 8.89541 34.8718 8.81152 34.8539C8.72763 34.8359 8.64014 34.8468 8.56321 34.8848C8.48628 34.9227 8.42442 34.9855 8.38764 35.063C8.10692 35.655 7.71279 36.0766 7.18905 36.3428C7.04745 35.7928 7.03041 35.2492 7.13887 34.7221C7.15689 34.6344 7.1434 34.5431 7.10077 34.4643C7.05813 34.3855 6.98908 34.3242 6.90575 34.2913C6.82242 34.2583 6.73015 34.2558 6.64517 34.2842C6.56018 34.3126 6.48791 34.37 6.44106 34.4464C6.14711 34.9261 5.74526 35.3137 5.27418 35.5817C6.10797 33.1787 7.06745 30.3868 7.9238 27.8273C8.4842 27.6649 8.95699 27.3325 9.33722 26.963C9.43007 27.3223 9.60652 27.6475 9.86581 27.9362C9.9153 27.9914 9.97982 28.0309 10.0515 28.0499C10.1231 28.0689 10.1987 28.0666 10.2691 28.0432C10.745 27.8853 11.1496 27.644 11.4787 27.3224C11.6642 27.7498 11.9471 28.0933 12.3246 28.3481C12.3763 28.383 12.4357 28.4046 12.4977 28.4112C12.5596 28.4178 12.6223 28.409 12.6801 28.3857C13.2077 28.1731 13.6274 27.8485 13.9348 27.4163C14.1549 27.7702 14.4674 28.0852 14.87 28.3579C14.9279 28.3972 14.9957 28.4198 15.0656 28.4231C15.1356 28.4264 15.2051 28.4103 15.2666 28.3766C15.6589 28.1617 15.9787 27.8627 16.2236 27.4833C16.4665 27.8749 16.823 28.2253 17.2907 28.5307C17.3526 28.5713 17.425 28.5929 17.499 28.5929C17.573 28.5929 17.6454 28.5713 17.7074 28.5307C18.1826 28.2202 18.7484 27.7413 19.0495 27.097C19.8584 27.7248 20.8024 28.2876 21.8374 28.6656V30.7823C21.4397 30.9139 21.0475 31.0616 20.6618 31.2252L20.4666 29.7459C20.4527 29.6463 20.4001 29.5562 20.32 29.4953C20.24 29.4344 20.1392 29.4076 20.0395 29.4207C19.9398 29.4339 19.8493 29.486 19.7878 29.5655C19.7264 29.6451 19.6989 29.7458 19.7114 29.8456L19.9368 31.5533C19.3845 31.8196 18.8471 32.1156 18.3268 32.44L18.046 29.8143C18.0237 29.6051 17.8357 29.4546 17.6267 29.476C17.5263 29.4868 17.4342 29.5371 17.3708 29.6157C17.3074 29.6943 17.2778 29.7949 17.2885 29.8953L17.611 32.9107C16.2043 33.8858 14.7143 35.2233 13.3426 37.0522C13.2302 36.6488 13.1916 36.2096 13.225 35.707ZM18.0478 33.5352C18.7665 33.036 19.5241 32.5954 20.3133 32.2176V40.9004C20.3133 41.5251 19.8052 42.0332 19.1805 42.0332C18.5558 42.0332 18.0477 41.5251 18.0477 40.9004V33.5352H18.0478ZM17.286 34.0962V37.4552C16.1659 37.5248 15.2759 38.4577 15.2759 39.5951V45.4002C13.6078 45.5847 11.6384 45.269 10.4337 44.6252C12.0625 39.3166 14.7526 36.0711 17.286 34.0962ZM16.0377 39.5951C16.0377 38.8779 16.5865 38.287 17.286 38.2192V40.9004C17.286 41.9451 18.1359 42.795 19.1806 42.795C20.2253 42.795 21.0752 41.9451 21.0752 40.9004V38.2123H27.9313V40.9004C27.9313 41.9451 28.7812 42.795 29.8259 42.795C30.8706 42.795 31.7205 41.9451 31.7205 40.9004V38.2192C32.4201 38.287 32.9688 38.8779 32.9688 39.5951V47.7348H16.0377V39.5951ZM28.693 32.2176C29.4822 32.5954 30.2398 33.036 30.9585 33.5352V40.9004C30.9585 41.5251 30.4504 42.0332 29.8257 42.0332C29.201 42.0332 28.6929 41.5251 28.6929 40.9004V32.2176H28.693ZM27.9312 31.8782V37.4505H21.0751V31.8781C21.3716 31.7553 21.6722 31.6424 21.9762 31.5395C22.295 32.3172 23.0804 33.3487 24.5031 33.3487C25.9259 33.3487 26.7113 32.3172 27.0301 31.5395C27.3341 31.6424 27.6347 31.7554 27.9312 31.8782ZM26.4073 31.01C26.3342 31.2624 25.885 32.5869 24.5031 32.5869C23.1213 32.5869 22.6721 31.2624 22.599 31.01V28.9034C23.2106 29.0636 23.8476 29.1563 24.5031 29.1563C25.1587 29.1563 25.7957 29.0636 26.4073 28.9034V31.01ZM31.7936 24.0085C30.7762 25.7042 27.8972 28.3944 24.5031 28.3944C21.1091 28.3944 18.2301 25.7042 17.2127 24.0085C16.4562 22.7478 15.8358 20.314 15.5442 17.4761C16.4826 16.411 17.0684 15.0369 17.2878 13.3853C19.1886 12.8624 21.6989 12.3814 24.5031 12.3814C27.3074 12.3814 29.8177 12.8625 31.7185 13.3853C31.9379 15.0369 32.5237 16.411 33.4621 17.4761C33.1705 20.3141 32.5501 22.7478 31.7936 24.0085ZM14.015 20.7019C13.5927 19.5455 13.955 18.3121 14.8196 17.8631C15.0071 19.5418 15.3021 21.0525 15.6756 22.2814C14.9751 22.1431 14.3215 21.5412 14.015 20.7019ZM15.199 16.7012C14.8186 15.9982 14.6059 15.1893 14.5605 14.2896C15.0401 14.1 15.6911 13.8624 16.4825 13.6194C16.2763 14.8335 15.8465 15.8666 15.199 16.7012ZM33.8073 16.7012C33.1599 15.8665 32.73 14.8335 32.5237 13.6194C33.3151 13.8623 33.9661 14.1 34.4457 14.2896C34.4004 15.1892 34.1877 15.9981 33.8073 16.7012ZM34.9914 20.7019C34.685 21.5411 34.0308 22.1429 33.3309 22.2814C33.7043 21.0525 33.9993 19.5419 34.1869 17.8632C35.0514 18.3121 35.4137 19.5456 34.9914 20.7019ZM17.3427 3.21398C18.656 1.67563 22.4615 1.26521 24.5031 1.26521C26.5448 1.26521 30.3503 1.67563 31.6636 3.21398C32.6774 4.40172 33.8013 7.40557 34.2663 8.72958C31.4057 8.10043 28.0335 7.76181 24.5031 7.76181C20.9726 7.76181 17.6004 8.10043 14.7398 8.72958C15.205 7.40557 16.3289 4.40181 17.3427 3.21398ZM7.65651 13.6979C7.65651 11.1991 14.4259 8.5238 24.5031 8.5238C34.5804 8.5238 41.3498 11.1992 41.3498 13.6979C41.3498 15.1899 39.043 16.6669 35.1671 17.6672C34.9604 17.4455 34.7155 17.264 34.4367 17.136C34.8563 16.3874 35.1084 15.5385 35.1894 14.6013C35.3092 14.6551 35.3746 14.6867 35.3799 14.6894C35.4705 14.734 35.5752 14.7408 35.6708 14.7082C35.7664 14.6756 35.8452 14.6064 35.8898 14.5158C35.9344 14.4252 35.9412 14.3206 35.9087 14.225C35.8762 14.1294 35.8071 14.0506 35.7165 14.006C35.5188 13.9085 30.8008 11.6195 24.5032 11.6195C18.2057 11.6195 13.4877 13.9085 13.29 14.006C13.1999 14.0509 13.1312 14.1297 13.099 14.2251C13.0668 14.3205 13.0737 14.4248 13.1182 14.5151C13.1627 14.6055 13.2411 14.6745 13.3364 14.7072C13.4316 14.7398 13.536 14.7334 13.6265 14.6894C13.6318 14.6868 13.6973 14.6551 13.817 14.6013C13.8979 15.5385 14.15 16.3874 14.5697 17.1359C14.2908 17.2639 14.046 17.4453 13.8392 17.6671C9.96323 16.6668 7.65651 15.19 7.65651 13.6979ZM13.0826 19.8729C13.0969 20.2228 13.1639 20.5804 13.2887 20.9318C12.1099 21.9868 11.1704 23.3247 10.5653 24.816C10.5274 24.9097 10.5281 25.0145 10.5675 25.1076C10.6068 25.2006 10.6815 25.2742 10.7752 25.3122C10.8688 25.3502 10.9736 25.3494 11.0667 25.3101C11.1597 25.2707 11.2334 25.196 11.2713 25.1024C11.7968 23.8071 12.6289 22.5955 13.6361 21.6474C13.8642 22.008 14.1501 22.3123 14.4706 22.547C14.2197 23.2697 14.0095 24.0546 13.8456 24.8855C13.8261 24.9846 13.8467 25.0874 13.903 25.1713C13.9592 25.2552 14.0465 25.3133 14.1456 25.3329C14.2447 25.3524 14.3476 25.3318 14.4315 25.2755C14.5154 25.2193 14.5735 25.132 14.593 25.0329C14.7408 24.283 14.9277 23.5736 15.1488 22.9178C15.4022 23.0132 15.6699 23.065 15.9407 23.0711C16.1322 23.586 16.3394 24.0335 16.5595 24.4005C16.9506 25.0523 17.5976 25.8393 18.4338 26.5842C18.3037 26.9888 17.9807 27.3917 17.4997 27.7478C16.9972 27.3693 16.7105 26.9384 16.6256 26.4363C16.6112 26.3513 16.5685 26.2737 16.5043 26.2162C16.4401 26.1586 16.3584 26.1245 16.2723 26.1195C16.1863 26.1144 16.1011 26.1386 16.0306 26.1883C15.9601 26.2379 15.9086 26.31 15.8845 26.3928C15.7289 26.9245 15.4713 27.3162 15.1002 27.583C14.6852 27.2529 14.4378 26.8718 14.3466 26.4237C14.3299 26.3416 14.2866 26.2674 14.2234 26.2124C14.1602 26.1574 14.0806 26.1248 13.997 26.1196C13.9134 26.114 13.8303 26.1364 13.7607 26.1831C13.6911 26.2299 13.6389 26.2984 13.6124 26.3779C13.4227 26.9398 13.0866 27.3388 12.5878 27.5919C12.2784 27.3223 12.0952 26.9514 12.0166 26.4416C12.0045 26.3639 11.9687 26.2918 11.9141 26.2352C11.8595 26.1787 11.7887 26.1404 11.7114 26.1257C11.6342 26.111 11.5543 26.1205 11.4827 26.153C11.4111 26.1855 11.3513 26.2394 11.3115 26.3073C11.067 26.7247 10.7268 27.0269 10.2763 27.2253C10.0583 26.8928 9.98122 26.5028 10.0414 26.0409C10.0524 25.9566 10.0348 25.871 9.99152 25.7978C9.94821 25.7246 9.88164 25.668 9.80243 25.637C9.72322 25.606 9.63592 25.6024 9.55444 25.6268C9.47296 25.6512 9.40199 25.7022 9.35284 25.7716C9.0924 26.1392 8.7175 26.5712 8.24709 26.8569C8.45944 26.2169 8.66313 25.5975 8.85415 25.0094C9.56319 22.8259 11.0871 20.985 13.0826 19.8729ZM7.51358 45.692C7.59052 45.3666 7.64165 44.9875 7.66822 44.5479C7.67277 44.4731 7.65518 44.3987 7.61764 44.3339C7.5801 44.269 7.52428 44.2167 7.45717 44.1835C7.39006 44.1502 7.31462 44.1375 7.24031 44.1468C7.166 44.1562 7.0961 44.1873 7.03936 44.2362C6.47925 44.7185 5.92618 45.0451 5.36446 45.2233C5.50234 44.8393 5.58404 44.4139 5.60852 43.9511C5.6124 43.8782 5.59524 43.8057 5.55908 43.7423C5.52293 43.6788 5.46929 43.6271 5.40458 43.5933C5.33986 43.5595 5.26679 43.545 5.19407 43.5516C5.12134 43.5581 5.05204 43.5855 4.99441 43.6303C4.51337 44.005 3.97109 44.2935 3.39159 44.4831C3.57214 44.1065 3.69203 43.6975 3.74983 43.2594C3.75963 43.185 3.74725 43.1094 3.71424 43.0421C3.68124 42.9747 3.62907 42.9186 3.5643 42.8807C3.49953 42.8429 3.42502 42.8251 3.35013 42.8294C3.27525 42.8337 3.20331 42.8601 3.14334 42.9052C2.89424 43.0924 2.47068 43.2365 2.02103 43.2815C2.524 42.8499 2.90909 42.2976 3.1402 41.6764C3.15668 41.6299 3.91542 39.4874 4.93347 36.5621C5.44548 36.3941 5.91759 36.1229 6.3206 35.7652C6.35365 36.1697 6.44392 36.5773 6.59114 36.9853C6.62505 37.0793 6.69454 37.1562 6.78461 37.1995C6.87469 37.2427 6.97815 37.2488 7.07269 37.2165C7.63585 37.0239 8.11035 36.7114 8.49172 36.2832C8.59857 36.6919 8.7654 37.0667 8.99117 37.4042C9.04412 37.4833 9.12473 37.5397 9.21715 37.5624C9.30958 37.585 9.40713 37.5722 9.49063 37.5266C9.91666 37.2935 10.2869 36.9776 10.5985 36.5826C10.7065 36.8999 10.8683 37.1978 11.0832 37.4743C11.1391 37.5462 11.2189 37.5957 11.3081 37.6138C11.3974 37.632 11.4901 37.6175 11.5697 37.5732C11.9363 37.3684 12.2528 37.1272 12.5175 36.8513C12.5729 37.1797 12.6693 37.4998 12.8042 37.8043C11.5772 39.6046 10.4734 41.8346 9.64813 44.5923C9.05945 45.1125 8.24138 45.5273 7.51358 45.692ZM10.217 45.3701C11.3001 45.9069 12.8181 46.2155 14.2873 46.2155C14.6213 46.2155 14.9524 46.1982 15.2759 46.1654V47.7348H9.65679C9.8134 46.9397 10.0003 46.1509 10.217 45.3701ZM33.7305 47.7348V46.1654C34.0539 46.1982 34.3849 46.2155 34.7191 46.2155C36.1882 46.2155 37.7063 45.9068 38.7894 45.3701C39.0061 46.151 39.193 46.9398 39.3496 47.7349H33.7305V47.7348ZM38.0627 41.1217L38.8947 37.2247L39.7368 37.4045L38.6468 42.5099C38.4659 42.0415 38.2711 41.5786 38.0627 41.1217ZM47.7283 23.2893L46.2353 30.2828C45.7165 32.7129 43.5397 34.4758 41.0585 34.4757C41.0573 34.4757 41.0563 34.4753 41.0549 34.4757C40.9677 34.4757 40.8831 34.5056 40.8153 34.5605C40.7475 34.6153 40.7006 34.6918 40.6824 34.7771L40.2638 36.738L38.6858 36.4011L39.1044 34.4401C39.1226 34.3548 39.111 34.2658 39.0714 34.188C39.0319 34.1102 38.9669 34.0484 38.8872 34.0128C36.6204 33.0006 35.3518 30.5013 35.8709 28.07L37.3638 21.0766C37.3754 21.0212 37.398 20.9687 37.4301 20.9221C37.4621 20.8756 37.5032 20.8358 37.5507 20.8052C37.5981 20.7743 37.6511 20.7531 37.7067 20.7428C37.7623 20.7326 37.8194 20.7334 37.8747 20.7454C37.9863 20.7694 38.0838 20.8366 38.1459 20.9324C38.208 21.0282 38.2295 21.1447 38.2059 21.2564L36.716 28.2353C36.5788 28.8781 36.9901 29.5129 37.6331 29.6502C38.2763 29.7877 38.9108 29.3761 39.048 28.7331L40.5379 21.7542C40.562 21.6427 40.6293 21.5453 40.725 21.4832C40.8208 21.4212 40.9372 21.3996 41.0488 21.4231C41.1041 21.4348 41.1566 21.4573 41.2032 21.4894C41.2498 21.5214 41.2895 21.5624 41.3202 21.6099C41.351 21.6573 41.3722 21.7104 41.3825 21.766C41.3927 21.8216 41.3918 21.8787 41.3799 21.934L39.89 28.9129C39.8235 29.2244 39.8823 29.5431 40.0555 29.8103C40.2287 30.0775 40.4957 30.2614 40.8072 30.3278C41.1184 30.3944 41.4372 30.3356 41.7046 30.1623C41.8363 30.0775 41.9498 29.9674 42.0387 29.8384C42.1275 29.7094 42.1899 29.564 42.2222 29.4107L43.7121 22.4318C43.7238 22.3765 43.7463 22.324 43.7784 22.2774C43.8104 22.2308 43.8514 22.1911 43.899 22.1604C43.9464 22.1296 43.9994 22.1084 44.055 22.0982C44.1106 22.0879 44.1677 22.0888 44.223 22.1007C44.2784 22.1124 44.3309 22.1349 44.3775 22.167C44.4241 22.1991 44.4638 22.2401 44.4945 22.2876C44.5254 22.335 44.5465 22.3881 44.5568 22.4437C44.567 22.4993 44.5661 22.5564 44.5542 22.6117L43.0643 29.5906C42.9978 29.9021 43.0566 30.2208 43.2298 30.488C43.403 30.7552 43.67 30.9391 43.9815 31.0055C44.6247 31.1427 45.2592 30.7314 45.3965 30.0884L46.8863 23.1095C46.9104 22.998 46.9777 22.9006 47.0734 22.8385C47.1692 22.7765 47.2856 22.7548 47.3972 22.7783C47.4526 22.79 47.505 22.8125 47.5516 22.8446C47.5982 22.8766 47.638 22.9176 47.6686 22.9652C47.6995 23.0126 47.7206 23.0656 47.7309 23.1213C47.7411 23.1769 47.7403 23.234 47.7283 23.2893Z" fill="#3A322B"/>
<path d="M15.2211 29.4814C15.1719 29.4718 15.1214 29.472 15.0724 29.482C15.0234 29.4919 14.9768 29.5114 14.9353 29.5394C14.8938 29.5674 14.8583 29.6033 14.8307 29.645C14.8031 29.6867 14.784 29.7335 14.7744 29.7826L14.0061 33.7335C13.9953 33.7887 13.9969 33.8456 14.0108 33.9001C14.0246 33.9546 14.0503 34.0054 14.0861 34.0488C14.1219 34.0922 14.1669 34.1271 14.2177 34.151C14.2686 34.175 14.3242 34.1874 14.3804 34.1873C14.4687 34.1872 14.5543 34.1563 14.6224 34.1001C14.6906 34.0439 14.7371 33.9658 14.754 33.879L15.5222 29.928C15.5318 29.8789 15.5316 29.8284 15.5216 29.7794C15.5116 29.7304 15.4921 29.6838 15.4641 29.6423C15.4362 29.6008 15.4003 29.5653 15.3586 29.5377C15.3169 29.5101 15.2702 29.4909 15.2211 29.4814ZM12.2189 29.3579C12.17 29.3474 12.1195 29.3467 12.0703 29.3558C12.0211 29.3648 11.9741 29.3835 11.9322 29.4107C11.8902 29.438 11.854 29.4732 11.8257 29.5144C11.7973 29.5556 11.7774 29.602 11.767 29.651L10.932 33.5669C10.9202 33.6224 10.9209 33.68 10.9341 33.7352C10.9473 33.7904 10.9728 33.842 11.0085 33.8862C11.0443 33.9303 11.0894 33.9659 11.1407 33.9903C11.192 34.0147 11.2481 34.0274 11.3049 34.0273C11.3921 34.0272 11.4766 33.9972 11.5443 33.9423C11.6121 33.8875 11.6589 33.811 11.6771 33.7257L12.512 29.8098C12.5224 29.7609 12.5232 29.7104 12.5141 29.6612C12.505 29.612 12.4863 29.5651 12.4591 29.5231C12.4319 29.4812 12.3966 29.445 12.3554 29.4166C12.3142 29.3883 12.2678 29.3683 12.2189 29.3579ZM9.33856 29.1976C9.29045 29.1839 9.24011 29.1799 9.19042 29.1857C9.14074 29.1915 9.09268 29.207 9.049 29.2314C9.00532 29.2557 8.96688 29.2885 8.93586 29.3277C8.90484 29.367 8.88187 29.4119 8.86824 29.4601L7.86039 33.0124C7.83281 33.1096 7.84498 33.2138 7.89421 33.302C7.94345 33.3903 8.02572 33.4553 8.12292 33.4829C8.22013 33.5105 8.32431 33.4983 8.41255 33.4491C8.50078 33.3999 8.56585 33.3176 8.59343 33.2204L9.60109 29.668C9.61474 29.6199 9.61878 29.5696 9.61298 29.5199C9.60717 29.4702 9.59164 29.4221 9.56726 29.3784C9.54288 29.3348 9.51014 29.2963 9.47089 29.2653C9.43165 29.2343 9.38669 29.2113 9.33856 29.1976ZM6.74512 38.3468C6.69929 38.3267 6.64996 38.3159 6.59994 38.3149C6.54991 38.3139 6.50019 38.3228 6.4536 38.341C6.407 38.3592 6.36446 38.3864 6.32839 38.4211C6.29232 38.4558 6.26343 38.4972 6.24338 38.543L4.75655 41.9415C4.71605 42.0341 4.71399 42.139 4.75081 42.233C4.78763 42.3271 4.86033 42.4027 4.9529 42.4432C5.04547 42.4837 5.15034 42.4858 5.24443 42.449C5.33853 42.4122 5.41414 42.3395 5.45464 42.2469L6.94147 38.8484C6.98191 38.7559 6.98394 38.651 6.94712 38.557C6.91031 38.4629 6.83765 38.3873 6.74512 38.3468ZM9.31723 38.5429C9.22141 38.5108 9.1168 38.5182 9.02639 38.5633C8.93599 38.6084 8.86719 38.6875 8.83511 38.7833L7.56538 42.5814C7.53656 42.6764 7.5459 42.7788 7.59143 42.867C7.63696 42.9552 7.71509 43.0221 7.8092 43.0535C7.90331 43.085 8.00598 43.0785 8.09538 43.0355C8.18478 42.9924 8.25387 42.9162 8.28795 42.823L9.55767 39.0248C9.58968 38.929 9.58233 38.8244 9.53724 38.734C9.49215 38.6437 9.41301 38.5749 9.31723 38.5429Z" fill="#3A322B"/>
</g>
<defs>
<clipPath id="clip0_166_3489">
<rect width="48" height="48" fill="white" transform="translate(0.5 0.5)"/>
</clipPath>
</defs>
</svg>
