<svg width="92" height="92" viewBox="0 0 92 92" fill="none" xmlns="http://www.w3.org/2000/svg">
  <path
    d="M92 46C92 71.4051 71.4051 92 46 92C20.5949 92 0 71.4051 0 46C0 20.5949 20.5949 0 46 0C71.4051 0 92 20.5949 92 46Z"
    fill="#1E6231" />
  <path
    d="M92 46C92 71.4051 71.4051 92 46 92C20.5949 92 0 71.4051 0 46C0 20.5949 20.5949 0 46 0C71.4051 0 92 20.5949 92 46Z"
    fill="#1E6231" />
  <path
    d="M39.1 32.2C39.1 30.3701 39.8269 28.615 41.1209 27.321C42.4149 26.027 44.17 25.3 46 25.3C47.83 25.3 49.585 26.027 50.879 27.321C52.173 28.615 52.9 30.3701 52.9 32.2V46C52.9 47.83 52.173 49.5851 50.879 50.8791C49.585 52.1731 47.83 52.9 46 52.9C44.17 52.9 42.4149 52.1731 41.1209 50.8791C39.8269 49.5851 39.1 47.83 39.1 46V32.2Z"
    fill="white" />
  <path
    d="M35.65 45.179C35.65 44.7215 35.4682 44.2827 35.1447 43.9592C34.8212 43.6357 34.3824 43.454 33.925 43.454C33.4675 43.454 33.0287 43.6357 32.7052 43.9592C32.3817 44.2827 32.2 44.7215 32.2 45.179V46.0001C32.2 53.0381 37.467 58.8456 44.275 59.6943V63.2501H40.825C40.3675 63.2501 39.9287 63.4318 39.6052 63.7553C39.2817 64.0788 39.1 64.5176 39.1 64.9751C39.1 65.4326 39.2817 65.8713 39.6052 66.1948C39.9287 66.5183 40.3675 66.7001 40.825 66.7001H51.175C51.6325 66.7001 52.0712 66.5183 52.3947 66.1948C52.7182 65.8713 52.9 65.4326 52.9 64.9751C52.9 64.5176 52.7182 64.0788 52.3947 63.7553C52.0712 63.4318 51.6325 63.2501 51.175 63.2501H47.725V59.6943C51.06 59.2736 54.127 57.6503 56.3502 55.1289C58.5734 52.6076 59.8001 49.3616 59.7999 46.0001V45.179C59.7999 44.7215 59.6182 44.2827 59.2947 43.9592C58.9712 43.6357 58.5324 43.454 58.075 43.454C57.6175 43.454 57.1787 43.6357 56.8552 43.9592C56.5317 44.2827 56.35 44.7215 56.35 45.179V46.0001C56.35 48.7451 55.2595 51.3776 53.3185 53.3186C51.3775 55.2596 48.7449 56.3501 46 56.3501C43.255 56.3501 40.6224 55.2596 38.6814 53.3186C36.7404 51.3776 35.65 48.7451 35.65 46.0001V45.179Z"
    fill="white" />
</svg>