<svg width="56" height="56" viewBox="0 0 56 56" fill="none" xmlns="http://www.w3.org/2000/svg">
<g filter="url(#filter0_d_261_2390)">
<path d="M52 24.2424C52 37.6311 41.2548 48 28 48C14.7452 48 4 37.1463 4 23.7576C4 10.3689 14.7452 0 28 0C41.2548 0 52 10.8537 52 24.2424Z" fill="#1E6231"/>
</g>
<path d="M16.9181 12.1342C15.8864 11.6413 14.7528 12.5842 15.0474 13.6889L17.2074 21.7599C17.2616 21.9628 17.3741 22.1452 17.531 22.2847C17.688 22.4241 17.8825 22.5144 18.0903 22.5442L28.6803 24.0571C28.9867 24.0999 28.9867 24.5435 28.6803 24.5874L18.0914 26.0992C17.8835 26.1291 17.6891 26.2193 17.5321 26.3587C17.3752 26.4982 17.2626 26.6806 17.2085 26.8835L15.0474 34.9588C14.7528 36.0624 15.8864 37.0053 16.9181 36.5135L39.9517 25.5324C40.9685 25.0481 40.9685 23.5996 39.9517 23.1142L16.9181 12.1342Z" fill="white"/>
<defs>
<filter id="filter0_d_261_2390" x="0" y="0" width="56" height="56" filterUnits="userSpaceOnUse" color-interpolation-filters="sRGB">
<feFlood flood-opacity="0" result="BackgroundImageFix"/>
<feColorMatrix in="SourceAlpha" type="matrix" values="0 0 0 0 0 0 0 0 0 0 0 0 0 0 0 0 0 0 127 0" result="hardAlpha"/>
<feOffset dy="4"/>
<feGaussianBlur stdDeviation="2"/>
<feComposite in2="hardAlpha" operator="out"/>
<feColorMatrix type="matrix" values="0 0 0 0 0 0 0 0 0 0 0 0 0 0 0 0 0 0 0.5 0"/>
<feBlend mode="normal" in2="BackgroundImageFix" result="effect1_dropShadow_261_2390"/>
<feBlend mode="normal" in="SourceGraphic" in2="effect1_dropShadow_261_2390" result="shape"/>
</filter>
</defs>
</svg>
