<svg width="430" height="377" viewBox="0 0 430 377" fill="none" xmlns="http://www.w3.org/2000/svg">
<g clip-path="url(#clip0_1471_986)">
<path d="M0 0H430V364.2C430 368.68 430 370.921 429.128 372.632C428.361 374.137 427.137 375.361 425.632 376.128C423.921 377 421.68 377 417.2 377H12.8C8.31957 377 6.07937 377 4.36808 376.128C2.86278 375.361 1.63893 374.137 0.871948 372.632C0 370.921 0 368.68 0 364.2V0Z" fill="white"/>
<rect opacity="0.59" width="430" height="377" fill="url(#paint0_linear_1471_986)"/>
<circle opacity="0.23" cx="252.922" cy="-16.6177" r="89.3237" fill="white" fill-opacity="0.49"/>
<circle opacity="0.28" cx="252.837" cy="-16.7027" r="70.1829" fill="white" fill-opacity="0.3"/>
<circle cx="253.135" cy="-16.405" r="47.852" fill="#FCE588"/>
</g>
<defs>
<linearGradient id="paint0_linear_1471_986" x1="0" y1="188.5" x2="430" y2="188.5" gradientUnits="userSpaceOnUse">
<stop offset="0.2" stop-color="#26C3E4"/>
<stop offset="1" stop-color="#3A7BD5"/>
</linearGradient>
<clipPath id="clip0_1471_986">
<path d="M0 0H430V364.2C430 368.68 430 370.921 429.128 372.632C428.361 374.137 427.137 375.361 425.632 376.128C423.921 377 421.68 377 417.2 377H12.8C8.31957 377 6.07937 377 4.36808 376.128C2.86278 375.361 1.63893 374.137 0.871948 372.632C0 370.921 0 368.68 0 364.2V0Z" fill="white"/>
</clipPath>
</defs>
</svg>
