<svg width="430" height="377" viewBox="0 0 430 377" fill="none" xmlns="http://www.w3.org/2000/svg">
<g clip-path="url(#clip0_1471_1106)">
<path d="M0 0H430V354.6C430 362.441 430 366.361 428.474 369.356C427.132 371.99 424.99 374.132 422.356 375.474C419.361 377 415.441 377 407.6 377H22.4C14.5593 377 10.6389 377 7.64413 375.474C5.00986 374.132 2.86814 371.99 1.52591 369.356C0 366.361 0 362.441 0 354.6V0Z" fill="white"/>
<rect y="-16.4521" width="430" height="512.905" fill="url(#paint0_linear_1471_1106)"/>
<circle opacity="0.8" cx="224.867" cy="71.3137" r="6.75121" fill="#2D344D" fill-opacity="0.6"/>
<circle cx="391.051" cy="6.91722" r="6.75121" fill="#435365"/>
<circle opacity="0.79" cx="51.9319" cy="10.5525" r="10.3865" fill="#435365"/>
<circle opacity="0.79" cx="132.947" cy="26.1317" r="5.19324" fill="#2B314B" fill-opacity="0.46"/>
<circle opacity="0.79" cx="187.995" cy="45.8661" r="5.19324" fill="#2B314B" fill-opacity="0.46"/>
<circle opacity="0.79" cx="270.049" cy="15.746" r="5.19324" fill="#2B314B" fill-opacity="0.46"/>
</g>
<defs>
<linearGradient id="paint0_linear_1471_1106" x1="0" y1="240" x2="430" y2="240" gradientUnits="userSpaceOnUse">
<stop stop-color="#536976"/>
<stop offset="1" stop-color="#292E49"/>
</linearGradient>
<clipPath id="clip0_1471_1106">
<path d="M0 0H430V354.6C430 362.441 430 366.361 428.474 369.356C427.132 371.99 424.99 374.132 422.356 375.474C419.361 377 415.441 377 407.6 377H22.4C14.5593 377 10.6389 377 7.64413 375.474C5.00986 374.132 2.86814 371.99 1.52591 369.356C0 366.361 0 362.441 0 354.6V0Z" fill="white"/>
</clipPath>
</defs>
</svg>
