<svg width="36" height="36" viewBox="0 0 36 36" fill="none" xmlns="http://www.w3.org/2000/svg">
  <rect x="0.75" y="0.75" width="34.5" height="34.5" rx="17.25" stroke="#474C5D" stroke-width="1.5" />
  <path
    d="M19.875 8.07534C19.875 6.40534 17.855 5.56909 16.675 6.75034L11.05 12.3753H8.63501C7.20876 12.3753 5.73751 13.2053 5.31001 14.7566C5.01998 15.8134 4.87366 16.9045 4.87501 18.0003C4.87501 19.1228 5.02626 20.2103 5.31251 21.2441C5.73876 22.7941 7.21001 23.6253 8.63626 23.6253H11.0488L16.6738 29.2503C17.855 30.4316 19.875 29.5953 19.875 27.9253V8.07534ZM26.23 9.38284C26.4058 9.20727 26.6441 9.10866 26.8925 9.10866C27.1409 9.10866 27.3792 9.20727 27.555 9.38284C32.315 14.1416 32.315 21.8578 27.555 26.6178C27.3773 26.7834 27.1422 26.8736 26.8994 26.8693C26.6565 26.865 26.4247 26.7666 26.253 26.5949C26.0812 26.4231 25.9828 26.1914 25.9785 25.9485C25.9743 25.7056 26.0644 25.4706 26.23 25.2928C27.1877 24.3352 27.9475 23.1983 28.4658 21.9471C28.9841 20.6958 29.2509 19.3547 29.2509 18.0003C29.2509 16.646 28.9841 15.3049 28.4658 14.0536C27.9475 12.8024 27.1877 11.6655 26.23 10.7078C26.0544 10.5321 25.9558 10.2938 25.9558 10.0453C25.9558 9.7969 26.0544 9.55862 26.23 9.38284Z"
    fill="#474C5D" />
  <path
    d="M22.9135 12.6967C23.0006 12.6096 23.104 12.5404 23.2178 12.4933C23.3316 12.4461 23.4535 12.4219 23.5767 12.4219C23.6998 12.4219 23.8218 12.4461 23.9356 12.4933C24.0494 12.5404 24.1527 12.6096 24.2398 12.6967C24.9364 13.3931 25.4889 14.22 25.8659 15.13C26.2429 16.04 26.4369 17.0154 26.4369 18.0004C26.4369 18.9854 26.2429 19.9608 25.8659 20.8708C25.4889 21.7809 24.9364 22.6077 24.2398 23.3042C24.0629 23.4749 23.826 23.5693 23.5802 23.567C23.3344 23.5647 23.0993 23.466 22.9256 23.2921C22.7519 23.1182 22.6534 22.8831 22.6514 22.6372C22.6493 22.3914 22.7439 22.1547 22.9148 21.9779C23.4371 21.4556 23.8515 20.8355 24.1342 20.153C24.4169 19.4706 24.5623 18.7391 24.5623 18.0004C24.5623 17.2617 24.4169 16.5303 24.1342 15.8478C23.8515 15.1654 23.4371 14.5453 22.9148 14.0229C22.7392 13.8471 22.6406 13.6089 22.6406 13.3604C22.6406 13.112 22.7392 12.8737 22.9148 12.6979L22.9135 12.6967Z"
    fill="#474C5D" />
</svg>