<svg xmlns="http://www.w3.org/2000/svg" width="50" height="50" viewBox="0 0 50 50" fill="none">
  <path d="M46.875 15.625V37.5H3.125V15.625H46.875ZM50 12.5H0V40.625H50V12.5Z" fill="#0FA958"/>
  <path d="M12.5 31.25H37.5V34.375H12.5V31.25ZM6.25 31.25H9.375V34.375H6.25V31.25ZM40.625 31.25H43.75V34.375H40.625V31.25ZM34.375 25H37.5V28.125H34.375V25ZM28.125 25H31.25V28.125H28.125V25ZM21.875 25H25V28.125H21.875V25ZM15.625 25H18.75V28.125H15.625V25ZM9.375 25H12.5V28.125H9.375V25ZM31.25 18.75H34.375V21.875H31.25V18.75ZM37.5 18.75V21.875H40.625V28.125H43.75V18.75H37.5ZM25 18.75H28.125V21.875H25V18.75ZM18.75 18.75H21.875V21.875H18.75V18.75ZM12.5 18.75H15.625V21.875H12.5V18.75ZM6.25 18.75H9.375V21.875H6.25V18.75Z" fill="#0FA958"/>
</svg>